<?xml version="1.0" encoding="UTF-8" standalone="no"?>
<!-- Generator: Adobe Illustrator 25.0.1, SVG Export Plug-In . SVG Version: 6.00 Build 0)  -->

<svg
   version="1.1"
   id="Layer_1"
   x="0px"
   y="0px"
   viewBox="0 0 238.11025 94.488187"
   xml:space="preserve"
   sodipodi:docname="MKR_485_breadboard.svg"
   width="63mm"
   height="25mm"
   inkscape:version="1.3 (0e150ed6c4, 2023-07-21)"
   xmlns:inkscape="http://www.inkscape.org/namespaces/inkscape"
   xmlns:sodipodi="http://sodipodi.sourceforge.net/DTD/sodipodi-0.dtd"
   xmlns="http://www.w3.org/2000/svg"
   xmlns:svg="http://www.w3.org/2000/svg"><defs
   id="defs315" /><sodipodi:namedview
   id="namedview315"
   pagecolor="#ffffff"
   bordercolor="#000000"
   borderopacity="0.25"
   inkscape:showpageshadow="2"
   inkscape:pageopacity="0.0"
   inkscape:pagecheckerboard="0"
   inkscape:deskcolor="#d1d1d1"
   showgrid="true"
   inkscape:zoom="4.0058574"
   inkscape:cx="99.479329"
   inkscape:cy="79.508573"
   inkscape:window-width="1920"
   inkscape:window-height="1017"
   inkscape:window-x="-8"
   inkscape:window-y="-8"
   inkscape:window-maximized="1"
   inkscape:current-layer="Layer_1"
   inkscape:document-units="mm"><inkscape:grid
     id="grid315"
     units="mm"
     originx="0"
     originy="0"
     spacingx="9.5999998"
     spacingy="9.5999997"
     empcolor="#0099e5"
     empopacity="0.30196078"
     color="#0099e5"
     opacity="0.14902"
     empspacing="10"
     dotted="false"
     gridanglex="30"
     gridanglez="30"
     visible="true" /></sodipodi:namedview>&#10;<style
   type="text/css"
   id="style1">&#10;	.st0{fill:#057582;}&#10;	.st1{fill:#81BBC1;}&#10;	.st2{fill:#8C9091;}&#10;	.st3{fill:#B1D4D9;}&#10;	.st4{fill:#010101;}&#10;	.st5{fill:#E6540F;}&#10;	.st6{fill:#C4C6C7;}&#10;	.st7{fill:#167F8C;}&#10;	.st8{opacity:0.5;}&#10;	.st9{fill:#F0B92F;}&#10;	.st10{opacity:0.5;fill:#EBAA01;enable-background:new    ;}&#10;	.st11{fill:#4A9CA6;}&#10;	.st12{opacity:0.5;fill:#F2C657;enable-background:new    ;}&#10;	.st13{fill:none;stroke:#8C9091;stroke-width:0.9186;}&#10;	.st14{fill:#FFFFFF;}&#10;	.st15{opacity:0.3;fill:#057582;enable-background:new    ;}&#10;	.st16{fill:#8B7867;}&#10;</style>&#10;<path
   class="st0"
   d="m 11.029833,1.0779629 v 0 c 0.133082,0 0.133082,-0.13308101 0.133082,-0.13308101 z"
   id="path1"
   style="stroke-width:1.33082" />&#10;<path
   class="st0"
   d="M 226.09027,1.0779629 H 11.295997 c 0,0 0,-0.13308101 -0.133082,-0.13308101 V 1.0779629 h -0.133082 v 0 c -4.6578687,0 -8.3841637,3.8593772 -8.3841637,8.517246 V 86.782744 c 0,0 0.133082,0 0.133082,0.133082 0,0 0,0.133082 -0.133082,0.133082 v 0.133082 c 0,4.524787 3.726295,8.251081 8.2510817,8.251081 0,0 0,0 0,0 H 226.09027 c 4.79095,0 8.65033,-3.859376 8.65033,-8.650327 V 9.8613726 c 0,-4.7909505 -3.85938,-8.7834097 -8.65033,-8.7834097 z M 11.162915,91.174449 c -2.3954757,0 -4.2586227,-1.863148 -4.2586227,-4.258623 0,-2.395475 1.863147,-4.258622 4.2586227,-4.258622 2.395476,0 4.258623,1.863147 4.258623,4.258622 0,2.395475 -1.863147,4.258623 -4.258623,4.258623 z m 0,-77.320617 c -2.3954757,0 -4.2586227,-1.863147 -4.2586227,-4.2586231 0,-2.3954755 1.863147,-4.2586229 4.2586227,-4.2586229 2.395476,0 4.258623,1.8631474 4.258623,4.2586229 0,2.3954761 -1.863147,4.2586231 -4.258623,4.2586231 z M 226.22335,91.174449 c -2.39547,0 -4.25862,-1.863148 -4.25862,-4.258623 0,-2.395475 1.99623,-4.258622 4.25862,-4.258622 2.39548,0 4.25862,1.863147 4.25862,4.258622 0,0 0,0 0,0 0,2.395475 -1.86314,4.258623 -4.25862,4.258623 z m 0,-77.320617 c -2.39547,0 -4.25862,-1.863147 -4.25862,-4.2586231 0,-2.3954755 1.86315,-4.2586229 4.25862,-4.2586229 2.39548,0 4.25862,1.8631474 4.25862,4.2586229 0,0 0,0 0,0 0,2.3954761 -1.86314,4.2586231 -4.25862,4.2586231 z"
   id="path2"
   style="stroke-width:1.33082" />&#10;<path
   class="st0"
   d="m 2.6456693,86.915826 c 0,0.133082 0,0.133082 0,0 z"
   id="path3"
   style="stroke-width:1.33082" />&#10;<path
   class="st1"
   d="m 148.90273,70.546746 v -6.12177 c 0,-0.266164 0.26617,-0.532328 0.53233,-0.532328 v 0 h 4.39171 c 0.26616,0 0.53232,0.266164 0.53232,0.532328 v 6.12177 c 0,0.266164 -0.26616,0.532327 -0.53232,0.532327 v 0 h -4.39171 c -0.26616,0 -0.53233,-0.266163 -0.53233,-0.532327 z"
   id="path4"
   style="stroke-width:1.33082" />&#10;<path
   class="st1"
   d="m 159.68237,70.546746 v -6.12177 c 0,-0.266164 0.26617,-0.532328 0.53233,-0.532328 v 0 h 4.3917 c 0.26617,0 0.53233,0.266164 0.53233,0.532328 0,0 0,0 0,0 v 6.12177 c 0,0.266164 -0.26616,0.532327 -0.53233,0.532327 v 0 h -4.3917 c -0.26616,0 -0.53233,-0.266163 -0.53233,-0.532327 z"
   id="path5"
   style="stroke-width:1.33082" />&#10;<rect
   x="-89.282021"
   y="-60.432518"
   class="st2"
   width="9.5819006"
   height="5.1901965"
   id="rect5"
   transform="scale(-1)"
   style="stroke-width:1.33082" />&#10;<rect
   x="-89.282021"
   y="-50.850609"
   class="st2"
   width="9.5819006"
   height="5.1901965"
   id="rect6"
   transform="scale(-1)"
   style="stroke-width:1.33082" />&#10;<rect
   x="-89.282021"
   y="-41.268711"
   class="st2"
   width="9.5819006"
   height="5.1901965"
   id="rect7"
   transform="scale(-1)"
   style="stroke-width:1.33082" />&#10;<rect
   x="-63.863373"
   y="-41.268711"
   class="st2"
   width="9.5819006"
   height="5.1901965"
   id="rect8"
   transform="scale(-1)"
   style="stroke-width:1.33082" />&#10;<rect
   x="-63.863373"
   y="-50.850609"
   class="st2"
   width="9.5819006"
   height="5.1901965"
   id="rect9"
   transform="scale(-1)"
   style="stroke-width:1.33082" />&#10;<rect
   x="-63.863373"
   y="-60.432518"
   class="st2"
   width="9.5819006"
   height="5.1901965"
   id="rect10"
   transform="scale(-1)"
   style="stroke-width:1.33082" />&#10;<rect
   x="-141.8494"
   y="-64.957298"
   class="st2"
   width="5.3232784"
   height="1.5969836"
   id="rect11"
   transform="scale(-1)"
   style="stroke-width:1.33082" />&#10;<rect
   x="-141.8494"
   y="-62.561825"
   class="st2"
   width="5.3232784"
   height="1.5969836"
   id="rect12"
   transform="scale(-1)"
   style="stroke-width:1.33082" />&#10;<rect
   x="-141.8494"
   y="-60.033268"
   class="st2"
   width="5.3232784"
   height="1.5969836"
   id="rect13"
   transform="scale(-1)"
   style="stroke-width:1.33082" />&#10;<rect
   x="-141.8494"
   y="-57.637798"
   class="st2"
   width="5.3232784"
   height="1.5969836"
   id="rect14"
   transform="scale(-1)"
   style="stroke-width:1.33082" />&#10;<rect
   x="-141.8494"
   y="-55.109238"
   class="st2"
   width="5.3232784"
   height="1.5969836"
   id="rect15"
   transform="scale(-1)"
   style="stroke-width:1.33082" />&#10;<rect
   x="-141.8494"
   y="-52.71376"
   class="st2"
   width="5.3232784"
   height="1.5969836"
   id="rect16"
   transform="scale(-1)"
   style="stroke-width:1.33082" />&#10;<rect
   x="-141.8494"
   y="-50.318279"
   class="st2"
   width="5.3232784"
   height="1.5969836"
   id="rect17"
   transform="scale(-1)"
   style="stroke-width:1.33082" />&#10;<rect
   x="-141.8494"
   y="-47.78973"
   class="st2"
   width="5.3232784"
   height="1.5969836"
   id="rect18"
   transform="scale(-1)"
   style="stroke-width:1.33082" />&#10;<rect
   x="-141.8494"
   y="-45.394253"
   class="st2"
   width="5.3232784"
   height="1.5969836"
   id="rect19"
   transform="scale(-1)"
   style="stroke-width:1.33082" />&#10;<rect
   x="-141.8494"
   y="-42.865692"
   class="st2"
   width="5.3232784"
   height="1.5969836"
   id="rect20"
   transform="scale(-1)"
   style="stroke-width:1.33082" />&#10;<rect
   x="-141.8494"
   y="-40.470222"
   class="st2"
   width="5.3232784"
   height="1.5969836"
   id="rect21"
   transform="scale(-1)"
   style="stroke-width:1.33082" />&#10;<rect
   x="-141.8494"
   y="-38.074745"
   class="st2"
   width="5.3232784"
   height="1.5969836"
   id="rect22"
   transform="scale(-1)"
   style="stroke-width:1.33082" />&#10;<rect
   x="-141.8494"
   y="-35.546185"
   class="st2"
   width="5.3232784"
   height="1.5969836"
   id="rect23"
   transform="scale(-1)"
   style="stroke-width:1.33082" />&#10;<rect
   x="-141.8494"
   y="-33.150715"
   class="st2"
   width="5.3232784"
   height="1.5969836"
   id="rect24"
   transform="scale(-1)"
   style="stroke-width:1.33082" />&#10;<rect
   x="-117.09615"
   y="-33.150715"
   class="st2"
   width="5.3232784"
   height="1.5969836"
   id="rect25"
   transform="scale(-1)"
   style="stroke-width:1.33082" />&#10;<rect
   x="-117.09615"
   y="-35.546185"
   class="st2"
   width="5.3232784"
   height="1.5969836"
   id="rect26"
   transform="scale(-1)"
   style="stroke-width:1.33082" />&#10;<rect
   x="-117.09615"
   y="-38.074745"
   class="st2"
   width="5.3232784"
   height="1.5969836"
   id="rect27"
   transform="scale(-1)"
   style="stroke-width:1.33082" />&#10;<rect
   x="-117.09615"
   y="-40.470222"
   class="st2"
   width="5.3232784"
   height="1.5969836"
   id="rect28"
   transform="scale(-1)"
   style="stroke-width:1.33082" />&#10;<rect
   x="-117.09615"
   y="-42.865692"
   class="st2"
   width="5.3232784"
   height="1.5969836"
   id="rect29"
   transform="scale(-1)"
   style="stroke-width:1.33082" />&#10;<rect
   x="-117.09615"
   y="-45.394253"
   class="st2"
   width="5.3232784"
   height="1.5969836"
   id="rect30"
   transform="scale(-1)"
   style="stroke-width:1.33082" />&#10;<rect
   x="-117.09615"
   y="-47.78973"
   class="st2"
   width="5.3232784"
   height="1.5969836"
   id="rect31"
   transform="scale(-1)"
   style="stroke-width:1.33082" />&#10;<rect
   x="-117.09615"
   y="-50.318279"
   class="st2"
   width="5.3232784"
   height="1.5969836"
   id="rect32"
   transform="scale(-1)"
   style="stroke-width:1.33082" />&#10;<rect
   x="-117.09615"
   y="-52.71376"
   class="st2"
   width="5.3232784"
   height="1.5969836"
   id="rect33"
   transform="scale(-1)"
   style="stroke-width:1.33082" />&#10;<rect
   x="-117.09615"
   y="-55.109238"
   class="st2"
   width="5.3232784"
   height="1.5969836"
   id="rect34"
   transform="scale(-1)"
   style="stroke-width:1.33082" />&#10;<rect
   x="-117.09615"
   y="-57.637798"
   class="st2"
   width="5.3232784"
   height="1.5969836"
   id="rect35"
   transform="scale(-1)"
   style="stroke-width:1.33082" />&#10;<rect
   x="-117.09615"
   y="-60.033268"
   class="st2"
   width="5.3232784"
   height="1.5969836"
   id="rect36"
   transform="scale(-1)"
   style="stroke-width:1.33082" />&#10;<rect
   x="-117.09615"
   y="-62.561825"
   class="st2"
   width="5.3232784"
   height="1.5969836"
   id="rect37"
   transform="scale(-1)"
   style="stroke-width:1.33082" />&#10;<rect
   x="-117.09615"
   y="-64.957298"
   class="st2"
   width="5.3232784"
   height="1.5969836"
   id="rect38"
   transform="scale(-1)"
   style="stroke-width:1.33082" />&#10;<path
   class="st1"
   d="M 15.953866,21.306422 H 9.8320953 c -1.730066,0 -3.060885,1.330819 -3.060885,3.060885 0,1.730065 1.330819,3.060885 3.060885,3.060885 0,0 0,0 0,0 h 6.1217707 c 1.730065,0 3.060885,-1.33082 3.060885,-3.060885 0,-1.730066 -1.33082,-3.060885 -3.060885,-3.060885 z"
   id="path38"
   style="stroke-width:1.33082" />&#10;<path
   class="st1"
   d="M 15.953866,30.888323 H 9.8320953 c -1.730066,0 -3.060885,1.330819 -3.060885,3.060885 0,1.730065 1.330819,3.060885 3.060885,3.060885 0,0 0,0 0,0 h 6.1217707 c 1.730065,0 3.060885,-1.33082 3.060885,-3.060885 0,-1.730066 -1.33082,-3.060885 -3.060885,-3.060885 z"
   id="path39"
   style="stroke-width:1.33082" />&#10;<path
   class="st1"
   d="M 15.953866,40.470224 H 9.8320953 c -1.730066,0 -3.060885,1.330819 -3.060885,3.060885 0,1.730065 1.330819,3.060885 3.060885,3.060885 0,0 0,0 0,0 h 6.1217707 c 1.730065,0 3.060885,-1.33082 3.060885,-3.060885 0,-1.730066 -1.33082,-3.060885 -3.060885,-3.060885 z"
   id="path40"
   style="stroke-width:1.33082" />&#10;<path
   class="st1"
   d="M 15.953866,50.052124 H 9.8320953 c -1.730066,0 -3.060885,1.33082 -3.060885,3.060885 0,1.730066 1.330819,3.060885 3.060885,3.060885 0,0 0,0 0,0 h 6.1217707 c 1.730065,0 3.060885,-1.330819 3.060885,-3.060885 0,-1.730065 -1.33082,-3.060885 -3.060885,-3.060885 z"
   id="path41"
   style="stroke-width:1.33082" />&#10;<path
   class="st1"
   d="M 15.953866,59.634025 H 9.8320953 c -1.730066,0 -3.060885,1.33082 -3.060885,3.060885 0,1.730066 1.330819,3.060885 3.060885,3.060885 0,0 0,0 0,0 h 6.1217707 c 1.730065,0 3.060885,-1.330819 3.060885,-3.060885 0,-1.730065 -1.33082,-3.060885 -3.060885,-3.060885 z"
   id="path42"
   style="stroke-width:1.33082" />&#10;<path
   class="st1"
   d="M 15.953866,69.215926 H 9.8320953 c -1.730066,0 -3.060885,1.33082 -3.060885,3.060885 0,1.730066 1.330819,3.060885 3.060885,3.060885 0,0 0,0 0,0 h 6.1217707 c 1.730065,0 3.060885,-1.330819 3.060885,-3.060885 0,-1.730065 -1.33082,-3.060885 -3.060885,-3.060885 z"
   id="path43"
   style="stroke-width:1.33082" />&#10;<path
   class="st1"
   d="m 221.69856,53.512255 h -7.85183 c -2.12931,0 -3.99246,1.730066 -3.85938,3.992459 0,2.129311 1.73007,3.859377 3.85938,3.859377 h 7.85183 c 2.12932,0 3.99246,-1.730066 3.99246,-3.859377 0,-2.262393 -1.86314,-3.992459 -3.99246,-3.992459 z"
   id="path44"
   style="stroke-width:1.33082" />&#10;<path
   class="st1"
   d="m 221.69856,34.614617 h -7.85183 c -2.12931,0 -3.99246,1.730066 -3.85938,3.992459 0,2.129311 1.73007,3.859377 3.85938,3.859377 h 7.85183 c 2.12932,0 3.99246,-1.730066 3.99246,-3.859377 0,-2.129311 -1.86314,-3.992459 -3.99246,-3.992459 z"
   id="path45"
   style="stroke-width:1.33082" />&#10;<g
   id="CIRCLE"
   transform="matrix(-1.3308196,0,0,-1.3308196,234.7406,95.433071)">&#10;	<path
   class="st3"
   d="m 166.7,51.6 c 1,0 1.8,0.8 1.8,1.8 0,1 -0.8,1.8 -1.8,1.8 -1,0 -1.8,-0.8 -1.8,-1.8 0,0 0,0 0,0 0,-1 0.8,-1.8 1.8,-1.8 z m 0,2.9 c 0.6,0 1.1,-0.5 1.1,-1.1 0,-0.6 -0.5,-1.1 -1.1,-1.1 -0.6,0 -1.1,0.5 -1.1,1.1 0,0.6 0.5,1.1 1.1,1.1 z"
   id="path46" />&#10;</g>&#10;<g
   id="CIRCLE-2"
   transform="matrix(-1.3308196,0,0,-1.3308196,234.7406,95.433071)">&#10;	<path
   class="st3"
   d="m 166.7,44.4 c 1,0 1.8,0.8 1.8,1.8 0,1 -0.8,1.8 -1.8,1.8 -1,0 -1.8,-0.8 -1.8,-1.8 0,0 0,0 0,0 0,-1 0.8,-1.8 1.8,-1.8 z m 0,2.9 c 0.6,0 1.1,-0.5 1.1,-1.1 0,-0.6 -0.5,-1.1 -1.1,-1.1 -0.6,0 -1.1,0.5 -1.1,1.1 v 0 c 0,0.6 0.5,1.1 1.1,1.1 z"
   id="path47" />&#10;</g>&#10;<g
   id="CIRCLE-3"
   transform="matrix(-1.3308196,0,0,-1.3308196,234.7406,95.433071)">&#10;	<path
   class="st3"
   d="m 166.7,37.2 c 1,0 1.8,0.8 1.8,1.8 0,1 -0.8,1.8 -1.8,1.8 -1,0 -1.8,-0.8 -1.8,-1.8 0,0 0,0 0,0 0,-1 0.8,-1.8 1.8,-1.8 z m 0,2.9 c 0.6,0 1.1,-0.5 1.1,-1.1 0,-0.6 -0.5,-1.1 -1.1,-1.1 -0.6,0 -1.1,0.5 -1.1,1.1 0,0.6 0.5,1.1 1.1,1.1 z"
   id="path48" />&#10;</g>&#10;<g
   id="CIRCLE-4"
   transform="matrix(-1.3308196,0,0,-1.3308196,234.7406,95.433071)">&#10;	<path
   class="st3"
   d="m 166.7,30 c 1,0 1.8,0.8 1.8,1.8 0,1 -0.8,1.8 -1.8,1.8 -1,0 -1.8,-0.8 -1.8,-1.8 0,0 0,0 0,0 0,-1 0.8,-1.8 1.8,-1.8 z m 0,2.9 c 0.6,0 1.1,-0.5 1.1,-1.1 0,-0.6 -0.5,-1.1 -1.1,-1.1 -0.6,0 -1.1,0.5 -1.1,1.1 0,0.6 0.5,1.1 1.1,1.1 z"
   id="path49" />&#10;</g>&#10;<g
   id="CIRCLE-5"
   transform="matrix(-1.3308196,0,0,-1.3308196,234.7406,95.433071)">&#10;	<path
   class="st3"
   d="m 166.7,22.8 c 1,0 1.8,0.8 1.8,1.8 0,1 -0.8,1.8 -1.8,1.8 -1,0 -1.8,-0.8 -1.8,-1.8 0,0 0,0 0,0 0,-1 0.8,-1.8 1.8,-1.8 z m 0,2.9 c 0.6,0 1.1,-0.5 1.1,-1.1 0,-0.6 -0.5,-1.1 -1.1,-1.1 -0.6,0 -1.1,0.5 -1.1,1.1 v 0 c 0,0.6 0.5,1.1 1.1,1.1 z"
   id="path50" />&#10;</g>&#10;<g
   id="CIRCLE-6"
   transform="matrix(-1.3308196,0,0,-1.3308196,234.7406,95.433071)">&#10;	<path
   class="st3"
   d="m 166.7,15.6 c 1,0 1.8,0.8 1.8,1.8 0,1 -0.8,1.8 -1.8,1.8 -1,0 -1.8,-0.8 -1.8,-1.8 0,0 0,0 0,0 0,-1 0.8,-1.8 1.8,-1.8 z m 0,2.9 c 0.6,0 1.1,-0.5 1.1,-1.1 0,-0.6 -0.5,-1.1 -1.1,-1.1 -0.6,0 -1.1,0.5 -1.1,1.1 0,0.6 0.5,1.1 1.1,1.1 z"
   id="path51" />&#10;</g>&#10;<g
   id="CIRCLE-7"
   transform="matrix(-1.3308196,0,0,-1.3308196,234.7406,95.433071)">&#10;	<path
   class="st3"
   d="m 12.8,26.4 c 1.2,0 2.2,1 2.2,2.2 0,1.2 -1,2.2 -2.2,2.2 -1.2,0 -2.2,-1 -2.2,-2.2 -0.1,-1.2 0.9,-2.2 2.2,-2.2 z m 0,3.7 c 0.8,0 1.5,-0.7 1.5,-1.5 0,-0.8 -0.7,-1.5 -1.5,-1.5 -0.8,0 -1.5,0.7 -1.5,1.5 0,0 0,0 0,0 -0.1,0.8 0.6,1.5 1.5,1.5 z"
   id="path52" />&#10;</g>&#10;<g
   id="CIRCLE-8"
   transform="matrix(-1.3308196,0,0,-1.3308196,234.7406,95.433071)">&#10;	<path
   class="st3"
   d="m 12.8,40.5 c 1.2,0 2.2,1 2.2,2.2 0,1.2 -1,2.2 -2.2,2.2 -1.2,0 -2.2,-1 -2.2,-2.2 0,0 0,0 0,0 -0.1,-1.2 0.9,-2.2 2.2,-2.2 z m 0,3.7 c 0.8,0 1.5,-0.7 1.5,-1.5 0,-0.8 -0.7,-1.5 -1.5,-1.5 -0.8,0 -1.5,0.7 -1.5,1.5 0,0 0,0 0,0 -0.1,0.8 0.6,1.5 1.5,1.5 z"
   id="path53" />&#10;</g>&#10;<g
   id="CIRCLE-9"
   transform="matrix(-1.3308196,0,0,-1.3308196,234.7406,95.433071)">&#10;	<path
   class="st3"
   d="m 114.2,38 c 0.4,0 0.8,0.4 0.8,0.8 0,0.4 -0.4,0.8 -0.8,0.8 -0.4,0 -0.8,-0.4 -0.8,-0.8 0,0 0,0 0,0 0.1,-0.4 0.4,-0.8 0.8,-0.8 z"
   id="path54" />&#10;</g>&#10;<g
   id="CIRCLE-10"
   transform="matrix(-1.3308196,0,0,-1.3308196,234.7406,95.433071)">&#10;	<path
   class="st3"
   d="m 17.9,48.3 c 0.4,0 0.8,0.4 0.8,0.8 0,0.4 -0.4,0.8 -0.8,0.8 -0.4,0 -0.8,-0.4 -0.8,-0.8 0,-0.5 0.3,-0.8 0.8,-0.8 z"
   id="path55" />&#10;</g>&#10;<g
   id="CIRCLE-11"
   transform="matrix(-1.3308196,0,0,-1.3308196,234.7406,95.433071)">&#10;	<path
   class="st3"
   d="m 74.8,44.9 c 0.4,0 0.8,0.4 0.8,0.8 0,0.4 -0.4,0.8 -0.8,0.8 -0.4,0 -0.8,-0.4 -0.8,-0.8 0,0 0,0 0,0 0,-0.5 0.4,-0.8 0.8,-0.8 z"
   id="path56" />&#10;</g>&#10;<g
   id="CIRCLE-12"
   transform="matrix(-1.3308196,0,0,-1.3308196,234.7406,95.433071)">&#10;	<path
   class="st3"
   d="m 74.8,42.6 c 0.4,0 0.8,0.4 0.8,0.8 0,0.4 -0.4,0.8 -0.8,0.8 -0.4,0 -0.8,-0.4 -0.8,-0.8 0,-0.5 0.4,-0.8 0.8,-0.8 z"
   id="path57" />&#10;</g>&#10;<g
   id="CIRCLE-13"
   transform="matrix(-1.3308196,0,0,-1.3308196,234.7406,95.433071)">&#10;	<circle
   class="st3"
   cx="84.5"
   cy="40.799999"
   r="0.80000001"
   id="circle57" />&#10;</g>&#10;<g
   id="CIRCLE-14"
   transform="matrix(-1.3308196,0,0,-1.3308196,234.7406,95.433071)">&#10;	<path
   class="st3"
   d="m 80.5,41.7 c 0.4,0 0.8,0.4 0.8,0.8 0,0.4 -0.4,0.8 -0.8,0.8 -0.4,0 -0.8,-0.4 -0.8,-0.8 v 0 c 0,-0.4 0.4,-0.8 0.8,-0.8 z"
   id="path58" />&#10;</g>&#10;<g
   id="CIRCLE-15"
   transform="matrix(-1.3308196,0,0,-1.3308196,234.7406,95.433071)">&#10;	<path
   class="st3"
   d="m 78.2,40 c 0.4,0 0.8,0.4 0.8,0.8 0,0.4 -0.4,0.8 -0.8,0.8 -0.4,0 -0.8,-0.4 -0.8,-0.8 0,0 0,0 0,0 0.1,-0.4 0.4,-0.8 0.8,-0.8 z"
   id="path59" />&#10;</g>&#10;<g
   id="CIRCLE-16"
   transform="matrix(-1.3308196,0,0,-1.3308196,234.7406,95.433071)">&#10;	<path
   class="st3"
   d="m 82.5,44 c 0.4,0 0.8,0.4 0.8,0.8 0,0.4 -0.4,0.8 -0.8,0.8 -0.4,0 -0.8,-0.4 -0.8,-0.8 0,0 0,0 0,0 0,-0.4 0.4,-0.8 0.8,-0.8 z"
   id="path60" />&#10;</g>&#10;<g
   id="CIRCLE-17"
   transform="matrix(-1.3308196,0,0,-1.3308196,234.7406,95.433071)">&#10;	<path
   class="st3"
   d="m 117.6,33.5 c 0.4,0 0.8,0.4 0.8,0.8 0,0.4 -0.4,0.8 -0.8,0.8 -0.4,0 -0.8,-0.4 -0.8,-0.8 0.1,-0.4 0.4,-0.8 0.8,-0.8 z"
   id="path61" />&#10;</g>&#10;<g
   id="CIRCLE-18"
   transform="matrix(-1.3308196,0,0,-1.3308196,234.7406,95.433071)">&#10;	<path
   class="st3"
   d="m 123.4,44.8 c 0.4,0 0.8,0.4 0.8,0.8 0,0.4 -0.4,0.8 -0.8,0.8 -0.4,0 -0.8,-0.4 -0.8,-0.8 0,0 0,0 0,0 0,-0.5 0.3,-0.8 0.8,-0.8 z"
   id="path62" />&#10;</g>&#10;<path
   class="st2"
   d="m 165.13873,68.949762 v -2.794721 c 0,-0.798492 -0.66541,-1.330819 -1.33082,-1.330819 h -0.66541 v 5.45636 h 0.66541 c 0.66541,0 1.33082,-0.532328 1.33082,-1.33082"
   id="path63"
   style="stroke-width:1.33082" />&#10;<path
   class="st2"
   d="m 149.56814,66.288123 v 2.794721 c 0,0.798492 0.66541,1.33082 1.33082,1.33082 h 0.66541 v -5.589442 h -0.66541 c -0.79849,0 -1.33082,0.665409 -1.33082,1.463901"
   id="path64"
   style="stroke-width:1.33082" />&#10;<path
   class="st4"
   d="m 150.89896,69.881336 v -4.524787 c 0,-0.399246 0.26617,-0.665409 0.66541,-0.665409 v 0 h 11.31197 c 0.39925,0 0.66541,0.266163 0.66541,0.665409 0,0 0,0 0,0 v 4.524787 c 0,0.399246 -0.26616,0.66541 -0.66541,0.66541 v 0 h -11.31197 c -0.26616,0 -0.66541,-0.266164 -0.66541,-0.66541 z"
   id="path65"
   style="stroke-width:1.33082" />&#10;<path
   class="st5"
   d="m 150.89896,69.881336 v -4.524787 c 0,-0.399246 0.26617,-0.665409 0.66541,-0.665409 v 0 h 11.31197 c 0.39925,0 0.66541,0.266163 0.66541,0.665409 0,0 0,0 0,0 v 4.524787 c 0,0.399246 -0.26616,0.66541 -0.66541,0.66541 v 0 h -11.31197 c -0.26616,0 -0.66541,-0.266164 -0.66541,-0.66541 z"
   id="path66"
   style="stroke-width:1.33082" />&#10;<path
   class="st4"
   d="m 150.89896,69.881336 v -4.524787 c 0,-0.399246 0.26617,-0.665409 0.66541,-0.665409 v 0 h 11.31197 c 0.39925,0 0.66541,0.266163 0.66541,0.665409 0,0 0,0 0,0 v 4.524787 c 0,0.399246 -0.26616,0.66541 -0.66541,0.66541 v 0 h -11.31197 c -0.26616,0 -0.66541,-0.266164 -0.66541,-0.66541 z"
   id="path67"
   style="stroke-width:1.33082" />&#10;<path
   class="st5"
   d="m 150.89896,69.881336 v -4.524787 c 0,-0.399246 0.26617,-0.665409 0.66541,-0.665409 v 0 h 11.31197 c 0.39925,0 0.66541,0.266163 0.66541,0.665409 0,0 0,0 0,0 v 4.524787 c 0,0.399246 -0.26616,0.66541 -0.66541,0.66541 v 0 h -11.31197 c -0.26616,0 -0.66541,-0.266164 -0.66541,-0.66541 z"
   id="path68"
   style="stroke-width:1.33082" />&#10;<path
   class="st4"
   d="m 150.89896,69.881336 v -4.524787 c 0,-0.399246 0.26617,-0.665409 0.66541,-0.665409 v 0 h 11.31197 c 0.39925,0 0.66541,0.266163 0.66541,0.665409 0,0 0,0 0,0 v 4.524787 c 0,0.399246 -0.26616,0.66541 -0.66541,0.66541 v 0 h -11.31197 c -0.26616,0 -0.66541,-0.266164 -0.66541,-0.66541 z"
   id="path69"
   style="stroke-width:1.33082" />&#10;<path
   class="st2"
   d="m 181.6409,40.337142 c -0.39925,0 -0.66541,0.399245 -0.66541,0.931573 v 5.190197 c 0,0.532327 0.26616,0.931573 0.66541,0.931573 h 0.26616 c 0.39925,0 0.79849,-0.399246 0.79849,-0.931573 v -5.190197 c 0,-0.532328 -0.26616,-0.931573 -0.79849,-0.931573 z"
   id="path70"
   style="stroke-width:1.33082" />&#10;<path
   class="st2"
   d="m 186.43185,40.337142 c -0.39925,0 -0.66541,0.399245 -0.66541,0.931573 v 5.190197 c 0,0.532327 0.26616,0.931573 0.66541,0.931573 h 0.26616 c 0.39925,0 0.66541,-0.399246 0.66541,-0.931573 v -5.190197 c 0,-0.532328 -0.26616,-0.931573 -0.66541,-0.931573 z"
   id="path71"
   style="stroke-width:1.33082" />&#10;<path
   class="st2"
   d="m 191.2228,40.337142 c -0.39925,0 -0.7985,0.399245 -0.7985,0.931573 v 5.190197 c 0,0.532327 0.26617,0.931573 0.7985,0.931573 h 0.26616 c 0.39925,-0.133082 0.79849,-0.532328 0.79849,-0.931573 v -5.190197 c 0,-0.532328 -0.39924,-0.931573 -0.79849,-0.931573 z"
   id="path72"
   style="stroke-width:1.33082" />&#10;<path
   class="st2"
   d="m 197.0784,41.268715 c 0,-0.532328 -0.26616,-0.931573 -0.66541,-0.931573 h -0.26616 c -0.39925,0 -0.66541,0.399245 -0.66541,0.931573 v 5.190197 c 0,0.532327 0.26616,0.931573 0.66541,0.931573 h 0.26616 c 0.39925,0 0.66541,-0.399246 0.66541,-0.931573 z"
   id="path73"
   style="stroke-width:1.33082" />&#10;<path
   class="st2"
   d="m 181.6409,54.709993 c -0.39925,0 -0.66541,0.399246 -0.66541,0.931574 v 5.190196 c 0,0.532328 0.26616,0.931574 0.66541,0.931574 h 0.26616 c 0.39925,0 0.79849,-0.399246 0.79849,-0.931574 v -5.190196 c 0,-0.532328 -0.26616,-0.931574 -0.79849,-0.931574 z"
   id="path74"
   style="stroke-width:1.33082" />&#10;<path
   class="st2"
   d="m 186.43185,54.709993 c -0.39925,0 -0.66541,0.399246 -0.66541,0.931574 v 5.190196 c 0,0.532328 0.26616,0.931574 0.66541,0.931574 h 0.26616 c 0.39925,0 0.66541,-0.399246 0.66541,-0.931574 v -5.190196 c 0,-0.532328 -0.26616,-0.931574 -0.66541,-0.931574 z"
   id="path75"
   style="stroke-width:1.33082" />&#10;<path
   class="st2"
   d="m 191.2228,54.709993 c -0.39925,0 -0.7985,0.399246 -0.7985,0.931574 v 5.190196 c 0,0.532328 0.26617,0.931574 0.7985,0.931574 h 0.26616 c 0.39925,-0.133082 0.79849,-0.532328 0.79849,-0.931574 v -5.190196 c 0,-0.532328 -0.26616,-0.931574 -0.79849,-0.931574 z"
   id="path76"
   style="stroke-width:1.33082" />&#10;<path
   class="st2"
   d="m 197.0784,55.641567 c 0,-0.532328 -0.26616,-0.931574 -0.66541,-0.931574 h -0.26616 c -0.39925,0 -0.66541,0.399246 -0.66541,0.931574 v 5.190196 c 0,0.532328 0.26616,0.931574 0.66541,0.931574 h 0.26616 c 0.39925,0 0.66541,-0.399246 0.66541,-0.931574 z"
   id="path77"
   style="stroke-width:1.33082" />&#10;<path
   class="st4"
   d="m 181.37473,58.702452 c -0.79849,0.133082 -1.59698,-0.532328 -1.73006,-1.33082 v -12.24354 c 0.13308,-0.798492 0.93157,-1.463902 1.73006,-1.33082 h 15.43751 c 0.79849,-0.133082 1.59698,0.532328 1.73006,1.33082 v 12.24354 c -0.13308,0.798492 -0.93157,1.463902 -1.73006,1.33082 z"
   id="path78"
   style="stroke-width:1.33082" />&#10;<path
   class="st5"
   d="m 181.37473,58.702452 c -0.79849,0.133082 -1.59698,-0.532328 -1.73006,-1.33082 v -12.24354 c 0.13308,-0.798492 0.93157,-1.463902 1.73006,-1.33082 h 15.43751 c 0.79849,-0.133082 1.59698,0.532328 1.73006,1.33082 v 12.24354 c -0.13308,0.798492 -0.93157,1.463902 -1.73006,1.33082 z"
   id="path79"
   style="stroke-width:1.33082" />&#10;<path
   class="st4"
   d="m 181.37473,58.702452 c -0.79849,0.133082 -1.59698,-0.532328 -1.73006,-1.33082 v -12.24354 c 0.13308,-0.798492 0.93157,-1.463902 1.73006,-1.33082 h 15.43751 c 0.79849,-0.133082 1.59698,0.532328 1.73006,1.33082 v 12.24354 c -0.13308,0.798492 -0.93157,1.463902 -1.73006,1.33082 z"
   id="path80"
   style="stroke-width:1.33082" />&#10;<path
   class="st5"
   d="m 181.37473,58.702452 c -0.79849,0.133082 -1.59698,-0.532328 -1.73006,-1.33082 v -12.24354 c 0.13308,-0.798492 0.93157,-1.463902 1.73006,-1.33082 h 15.43751 c 0.79849,-0.133082 1.59698,0.532328 1.73006,1.33082 v 12.24354 c -0.13308,0.798492 -0.93157,1.463902 -1.73006,1.33082 z"
   id="path81"
   style="stroke-width:1.33082" />&#10;<path
   class="st4"
   d="m 181.37473,58.702452 c -0.79849,0.133082 -1.59698,-0.532328 -1.73006,-1.33082 v -12.24354 c 0.13308,-0.798492 0.93157,-1.463902 1.73006,-1.33082 h 15.43751 c 0.79849,-0.133082 1.59698,0.532328 1.73006,1.33082 v 12.24354 c -0.13308,0.798492 -0.93157,1.463902 -1.73006,1.33082 z"
   id="path82"
   style="stroke-width:1.33082" />&#10;<path
   class="st6"
   d="m 113.50293,31.819896 c -0.26616,0 -0.53233,0.133082 -0.53233,0.399246 v 0.133082 c 0,0.266164 0.26617,0.399246 0.53233,0.399246 h 3.06089 c 0.26616,0 0.53232,-0.133082 0.53232,-0.399246 v -0.133082 c 0,-0.266164 -0.26616,-0.399246 -0.53232,-0.399246 z"
   id="path83"
   style="stroke-width:1.33082" />&#10;<path
   class="st6"
   d="m 113.50293,34.348454 c -0.26616,0 -0.53233,0.133082 -0.53233,0.399245 v 0.133082 c 0,0.266164 0.26617,0.399246 0.53233,0.399246 h 3.06089 c 0.26616,0 0.53232,-0.133082 0.53232,-0.399246 v -0.133082 c 0,-0.266163 -0.26616,-0.399245 -0.53232,-0.399245 z"
   id="path84"
   style="stroke-width:1.33082" />&#10;<path
   class="st6"
   d="m 113.50293,36.743929 c -0.26616,0 -0.53233,0.133082 -0.53233,0.399246 v 0.133082 c 0,0.266163 0.26617,0.399245 0.53233,0.399245 h 3.06089 c 0.26616,0 0.53232,-0.133082 0.53232,-0.399245 v -0.133082 c 0,-0.266164 -0.26616,-0.399246 -0.53232,-0.399246 z"
   id="path85"
   style="stroke-width:1.33082" />&#10;<path
   class="st6"
   d="m 113.50293,39.139404 c -0.26616,0 -0.53233,0.133082 -0.53233,0.399246 v 0.133082 c 0,0.266164 0.26617,0.399246 0.53233,0.399246 h 3.06089 c 0.26616,0 0.53232,-0.133082 0.53232,-0.399246 V 39.53865 c 0,-0.266164 -0.26616,-0.399246 -0.53232,-0.399246 z"
   id="path86"
   style="stroke-width:1.33082" />&#10;<path
   class="st6"
   d="m 113.50293,41.534879 c -0.26616,0 -0.53233,0.133082 -0.53233,0.399246 v 0.266164 c 0,0.266164 0.26617,0.399246 0.53233,0.399246 h 3.06089 c 0.26616,0 0.53232,-0.133082 0.53232,-0.399246 v -0.133082 c 0,-0.266164 -0.26616,-0.399246 -0.53232,-0.399246 h -3.06089 z"
   id="path87"
   style="stroke-width:1.33082" />&#10;<path
   class="st6"
   d="m 113.50293,44.063436 c -0.26616,0 -0.53233,0.133082 -0.53233,0.399246 v 0.133082 c 0,0.266164 0.26617,0.399246 0.53233,0.399246 h 3.06089 c 0.26616,0 0.53232,-0.133082 0.53232,-0.399246 v -0.133082 c 0,-0.266164 -0.26616,-0.399246 -0.53232,-0.399246 z"
   id="path88"
   style="stroke-width:1.33082" />&#10;<path
   class="st6"
   d="m 113.50293,46.458912 c -0.26616,0 -0.53233,0.133082 -0.53233,0.399245 v 0.133082 c 0,0.266164 0.26617,0.399246 0.53233,0.399246 h 3.06089 c 0.26616,0 0.53232,-0.133082 0.53232,-0.399246 v -0.133082 c 0,-0.266163 -0.26616,-0.399245 -0.53232,-0.399245 z"
   id="path89"
   style="stroke-width:1.33082" />&#10;<path
   class="st6"
   d="m 113.50293,48.854387 c -0.26616,0 -0.53233,0.133082 -0.53233,0.399246 v 0.133082 c 0,0.266164 0.26617,0.399245 0.53233,0.399245 h 3.06089 c 0.26616,0 0.53232,-0.133081 0.53232,-0.399245 v -0.133082 c 0,-0.266164 -0.26616,-0.399246 -0.53232,-0.399246 z"
   id="path90"
   style="stroke-width:1.33082" />&#10;<path
   class="st6"
   d="m 113.50293,51.382944 c -0.26616,0 -0.53233,0.133082 -0.53233,0.399246 v 0.133082 c 0,0.266164 0.26617,0.399246 0.53233,0.399246 h 3.06089 c 0.26616,0 0.53232,-0.133082 0.53232,-0.399246 V 51.78219 c 0,-0.266164 -0.26616,-0.399246 -0.53232,-0.399246 z"
   id="path91"
   style="stroke-width:1.33082" />&#10;<path
   class="st6"
   d="m 113.50293,53.778419 c -0.26616,0 -0.53233,0.133082 -0.53233,0.399246 v 0.133082 c 0,0.266164 0.26617,0.399246 0.53233,0.399246 h 3.06089 c 0.26616,0 0.53232,-0.133082 0.53232,-0.399246 v -0.133082 c 0,-0.266164 -0.26616,-0.399246 -0.53232,-0.399246 z"
   id="path92"
   style="stroke-width:1.33082" />&#10;<path
   class="st6"
   d="m 113.50293,56.173894 c -0.26616,0 -0.53233,0.133082 -0.53233,0.399246 v 0.266164 c 0,0.266164 0.26617,0.399246 0.53233,0.399246 h 3.06089 c 0.26616,0 0.53232,-0.133082 0.53232,-0.399246 v -0.133082 c 0,-0.266164 -0.26616,-0.399246 -0.53232,-0.399246 h -3.06089 z"
   id="path93"
   style="stroke-width:1.33082" />&#10;<path
   class="st6"
   d="m 113.50293,58.702452 c -0.26616,0 -0.53233,0.133082 -0.53233,0.399245 v 0.133082 c 0,0.266164 0.26617,0.399246 0.53233,0.399246 h 3.06089 c 0.26616,0 0.53232,-0.133082 0.53232,-0.399246 v -0.133082 c 0,-0.266163 -0.26616,-0.399245 -0.53232,-0.399245 z"
   id="path94"
   style="stroke-width:1.33082" />&#10;<path
   class="st6"
   d="m 113.50293,61.097927 c -0.26616,0 -0.53233,0.133082 -0.53233,0.399246 v 0.133082 c 0,0.266163 0.26617,0.399245 0.53233,0.399245 h 3.06089 c 0.26616,0 0.53232,-0.133082 0.53232,-0.399245 v -0.133082 c 0,-0.266164 -0.26616,-0.399246 -0.53232,-0.399246 z"
   id="path95"
   style="stroke-width:1.33082" />&#10;<path
   class="st6"
   d="m 113.50293,63.493402 c -0.26616,0 -0.53233,0.133082 -0.53233,0.399246 v 0.133082 c 0,0.266164 0.26617,0.399246 0.53233,0.399246 h 3.06089 c 0.26616,0 0.53232,-0.133082 0.53232,-0.399246 v -0.133082 c 0,-0.266164 -0.26616,-0.399246 -0.53232,-0.399246 z"
   id="path96"
   style="stroke-width:1.33082" />&#10;<path
   class="st6"
   d="m 137.19152,31.819896 c -0.26616,0 -0.53233,0.133082 -0.53233,0.399246 v 0.133082 c 0,0.266164 0.26617,0.399246 0.53233,0.399246 h 3.06089 c 0.26616,0 0.53232,-0.133082 0.53232,-0.399246 v -0.133082 c 0,-0.266164 -0.26616,-0.399246 -0.53232,-0.399246 z"
   id="path97"
   style="stroke-width:1.33082" />&#10;<path
   class="st6"
   d="m 137.19152,34.348454 c -0.26616,0 -0.53233,0.133082 -0.53233,0.399245 v 0.133082 c 0,0.266164 0.26617,0.399246 0.53233,0.399246 h 3.06089 c 0.26616,0 0.53232,-0.133082 0.53232,-0.399246 v -0.133082 c 0,-0.266163 -0.26616,-0.399245 -0.53232,-0.399245 z"
   id="path98"
   style="stroke-width:1.33082" />&#10;<path
   class="st6"
   d="m 137.19152,36.743929 c -0.26616,0 -0.53233,0.133082 -0.53233,0.399246 v 0.133082 c 0,0.266163 0.26617,0.399245 0.53233,0.399245 h 3.06089 c 0.26616,0 0.53232,-0.133082 0.53232,-0.399245 v -0.133082 c 0,-0.266164 -0.26616,-0.399246 -0.53232,-0.399246 z"
   id="path99"
   style="stroke-width:1.33082" />&#10;<path
   class="st6"
   d="m 137.19152,39.139404 c -0.26616,0 -0.53233,0.133082 -0.53233,0.399246 v 0.133082 c 0,0.266164 0.26617,0.399246 0.53233,0.399246 h 3.06089 c 0.26616,0 0.53232,-0.133082 0.53232,-0.399246 V 39.53865 c 0,-0.266164 -0.26616,-0.399246 -0.53232,-0.399246 z"
   id="path100"
   style="stroke-width:1.33082" />&#10;<path
   class="st6"
   d="m 137.19152,41.534879 c -0.26616,0 -0.53233,0.133082 -0.53233,0.399246 v 0.266164 c 0,0.266164 0.26617,0.399246 0.53233,0.399246 h 3.06089 c 0.26616,0 0.53232,-0.133082 0.53232,-0.399246 v -0.133082 c 0,-0.266164 -0.26616,-0.399246 -0.53232,-0.399246 h -3.06089 z"
   id="path101"
   style="stroke-width:1.33082" />&#10;<path
   class="st6"
   d="m 137.19152,44.063436 c -0.26616,0 -0.53233,0.133082 -0.53233,0.399246 v 0.133082 c 0,0.266164 0.26617,0.399246 0.53233,0.399246 h 3.06089 c 0.26616,0 0.53232,-0.133082 0.53232,-0.399246 v -0.133082 c 0,-0.266164 -0.26616,-0.399246 -0.53232,-0.399246 z"
   id="path102"
   style="stroke-width:1.33082" />&#10;<path
   class="st6"
   d="m 137.19152,46.458912 c -0.26616,0 -0.53233,0.133082 -0.53233,0.399245 v 0.133082 c 0,0.266164 0.26617,0.399246 0.53233,0.399246 h 3.06089 c 0.26616,0 0.53232,-0.133082 0.53232,-0.399246 v -0.133082 c 0,-0.266163 -0.26616,-0.399245 -0.53232,-0.399245 z"
   id="path103"
   style="stroke-width:1.33082" />&#10;<path
   class="st6"
   d="m 137.19152,48.854387 c -0.26616,0 -0.53233,0.133082 -0.53233,0.399246 v 0.133082 c 0,0.266164 0.26617,0.399245 0.53233,0.399245 h 3.06089 c 0.26616,0 0.53232,-0.133081 0.53232,-0.399245 v -0.133082 c 0,-0.266164 -0.26616,-0.399246 -0.53232,-0.399246 z"
   id="path104"
   style="stroke-width:1.33082" />&#10;<path
   class="st6"
   d="m 137.19152,51.382944 c -0.26616,0 -0.53233,0.133082 -0.53233,0.399246 v 0.133082 c 0,0.266164 0.26617,0.399246 0.53233,0.399246 h 3.06089 c 0.26616,0 0.53232,-0.133082 0.53232,-0.399246 V 51.78219 c 0,-0.266164 -0.26616,-0.399246 -0.53232,-0.399246 z"
   id="path105"
   style="stroke-width:1.33082" />&#10;<path
   class="st6"
   d="m 137.19152,53.778419 c -0.26616,0 -0.53233,0.133082 -0.53233,0.399246 v 0.133082 c 0,0.266164 0.26617,0.399246 0.53233,0.399246 h 3.06089 c 0.26616,0 0.53232,-0.133082 0.53232,-0.399246 v -0.133082 c 0,-0.266164 -0.26616,-0.399246 -0.53232,-0.399246 z"
   id="path106"
   style="stroke-width:1.33082" />&#10;<path
   class="st6"
   d="m 137.19152,56.173894 c -0.26616,0 -0.53233,0.133082 -0.53233,0.399246 v 0.266164 c 0,0.266164 0.26617,0.399246 0.53233,0.399246 h 3.06089 c 0.26616,0 0.53232,-0.133082 0.53232,-0.399246 v -0.133082 c 0,-0.266164 -0.26616,-0.399246 -0.53232,-0.399246 h -3.06089 z"
   id="path107"
   style="stroke-width:1.33082" />&#10;<path
   class="st6"
   d="m 137.19152,58.702452 c -0.26616,0 -0.53233,0.133082 -0.53233,0.399245 v 0.133082 c 0,0.266164 0.26617,0.399246 0.53233,0.399246 h 3.06089 c 0.26616,0 0.53232,-0.133082 0.53232,-0.399246 v -0.133082 c 0,-0.266163 -0.26616,-0.399245 -0.53232,-0.399245 z"
   id="path108"
   style="stroke-width:1.33082" />&#10;<path
   class="st6"
   d="m 137.19152,61.097927 c -0.26616,0 -0.53233,0.133082 -0.53233,0.399246 v 0.133082 c 0,0.266163 0.26617,0.399245 0.53233,0.399245 h 3.06089 c 0.26616,0 0.53232,-0.133082 0.53232,-0.399245 v -0.133082 c 0,-0.266164 -0.26616,-0.399246 -0.53232,-0.399246 z"
   id="path109"
   style="stroke-width:1.33082" />&#10;<path
   class="st6"
   d="m 137.19152,63.493402 c -0.26616,0 -0.53233,0.133082 -0.53233,0.399246 v 0.133082 c 0,0.266164 0.26617,0.399246 0.53233,0.399246 h 3.06089 c 0.26616,0 0.53232,-0.133082 0.53232,-0.399246 v -0.133082 c 0,-0.266164 -0.26616,-0.399246 -0.53232,-0.399246 z"
   id="path110"
   style="stroke-width:1.33082" />&#10;<rect
   x="-137.4577"
   y="-65.622711"
   class="st4"
   width="21.293114"
   height="34.335144"
   id="rect110"
   transform="scale(-1)"
   style="stroke-width:1.33082" />&#10;<rect
   x="-137.4577"
   y="-65.622711"
   class="st5"
   width="21.293114"
   height="34.335144"
   id="rect111"
   transform="scale(-1)"
   style="stroke-width:1.33082" />&#10;<rect
   x="-137.4577"
   y="-65.622711"
   class="st4"
   width="21.293114"
   height="34.335144"
   id="rect112"
   transform="scale(-1)"
   style="stroke-width:1.33082" />&#10;<path
   class="st4"
   d="m 174.18831,45.394256 c -0.13309,5.057114 -4.25863,9.049573 -9.31574,8.916491 h -4.52479 c -5.05711,0.133082 -9.18265,-3.859377 -9.31573,-8.916491 v -4.924032 c 0.13308,-5.057115 4.25862,-9.049573 9.31573,-8.916492 h 4.52479 c 5.05711,-0.133081 9.18265,3.859377 9.31574,8.916492 z"
   id="path112"
   style="stroke-width:1.33082" />&#10;<path
   class="st5"
   d="m 174.18831,45.394256 c -0.13309,5.057114 -4.25863,9.049573 -9.31574,8.916491 h -4.52479 c -5.05711,0.133082 -9.18265,-3.859377 -9.31573,-8.916491 v -4.924032 c 0.13308,-5.057115 4.25862,-9.049573 9.31573,-8.916492 h 4.52479 c 5.05711,-0.133081 9.18265,3.859377 9.31574,8.916492 z"
   id="path113"
   style="stroke-width:1.33082" />&#10;<path
   class="st4"
   d="m 174.18831,45.394256 c -0.13309,5.057114 -4.25863,9.049573 -9.31574,8.916491 h -4.52479 c -5.05711,0.133082 -9.18265,-3.859377 -9.31573,-8.916491 v -4.924032 c 0.13308,-5.057115 4.25862,-9.049573 9.31573,-8.916492 h 4.52479 c 5.05711,-0.133081 9.18265,3.859377 9.31574,8.916492 z"
   id="path114"
   style="stroke-width:1.33082" />&#10;<g
   id="LWPOLYLINE"
   transform="matrix(-1.3308196,0,0,-1.3308196,234.7406,95.433071)">&#10;	<path
   class="st7"
   d="m 173.3,15.1 v 41.3 c 0,0.5 -0.4,0.9 -0.9,0.9 0,0 0,0 0,0 h -11.8 c -0.5,0 -0.9,-0.4 -0.9,-0.9 v 0 -41.3 c 0,-0.5 0.4,-0.9 0.9,-0.9 h 11.8 c 0.5,0 0.9,0.4 0.9,0.9 z"
   id="path115" />&#10;</g>&#10;<g
   id="LWPOLYLINE-2"
   class="st8"
   transform="matrix(-1.3308196,0,0,-1.3308196,234.7406,95.433071)">&#10;	<path
   class="st9"
   d="m 173.3,15.1 v 41.3 c 0,0.5 -0.4,0.9 -0.9,0.9 h -11.8 c -0.5,0 -0.9,-0.4 -0.9,-0.9 V 15.1 c 0,-0.5 0.4,-0.9 0.9,-0.9 h 11.8 c 0.5,0 0.9,0.4 0.9,0.9 z"
   id="path116" />&#10;</g>&#10;<path
   class="st0"
   d="m 5.9727183,19.310193 h -0.66541 c -0.66541,0 -1.197737,0.532327 -1.197737,1.197737 v 54.829766 c 0,0.66541 0.532327,1.197738 1.197737,1.197738 h 0.66541 z"
   id="path117"
   style="stroke-width:1.33082" />&#10;<path
   class="st10"
   d="m 5.9727183,19.310193 h -0.66541 c -0.66541,0 -1.197737,0.532327 -1.197737,1.197737 v 54.829766 c 0,0.66541 0.532327,1.197738 1.197737,1.197738 h 0.66541 z"
   id="path118"
   style="stroke-width:1.33082" />&#10;<rect
   x="-17.151598"
   y="-76.535423"
   class="st11"
   width="7.9849172"
   height="57.225243"
   id="rect118"
   transform="scale(-1)"
   style="stroke-width:1.33082" />&#10;<rect
   x="-17.151598"
   y="-76.535423"
   class="st12"
   width="7.9849172"
   height="57.225243"
   id="rect119"
   transform="scale(-1)"
   style="stroke-width:1.33082" />&#10;<g
   id="INSERT"
   transform="matrix(-1.3308196,0,0,-1.3308196,234.7406,95.433071)">&#10;	<g
   id="CIRCLE-19">&#10;		<path
   class="st6"
   d="m 164,53.3 c 0,1.3 1.1,2.4 2.4,2.4 1.3,0 2.4,-1.1 2.4,-2.4 0,-1.3 -1.1,-2.4 -2.4,-2.4 0,0 0,0 0,0 -1.3,0 -2.4,1.1 -2.4,2.4 z"
   id="path119" />&#10;	</g>&#10;</g>&#10;<line
   class="st13"
   x1="11.42906"
   y1="27.295107"
   x2="14.889211"
   y2="21.70566"
   id="line119" />&#10;<g
   id="INSERT-2"
   transform="matrix(-1.3308196,0,0,-1.3308196,234.7406,95.433071)">&#10;	<g
   id="CIRCLE-20">&#10;		<path
   class="st6"
   d="m 164.8,44.5 c -0.9,0.9 -0.9,2.5 0,3.4 0.9,0.9 2.5,0.9 3.4,0 0.9,-0.9 0.9,-2.5 0,-3.4 0,0 0,0 0,0 -1,-1 -2.5,-1 -3.4,0 z"
   id="path120" />&#10;	</g>&#10;</g>&#10;<line
   class="st13"
   x1="10.098239"
   y1="34.747696"
   x2="16.3531"
   y2="33.283794"
   id="line120" />&#10;<g
   id="INSERT-3"
   transform="matrix(-1.3308196,0,0,-1.3308196,234.7406,95.433071)">&#10;	<g
   id="CIRCLE-21">&#10;		<path
   class="st6"
   d="m 165.4,36.9 c -1.2,0.6 -1.7,2.1 -1,3.3 0.6,1.2 2.1,1.7 3.3,1 1.2,-0.6 1.7,-2.1 1,-3.3 0,0 0,0 0,0 -0.7,-1.2 -2.2,-1.6 -3.3,-1 z"
   id="path121" />&#10;	</g>&#10;</g>&#10;<line
   class="st13"
   x1="9.9651804"
   y1="43.264942"
   x2="16.3531"
   y2="43.664181"
   id="line121" />&#10;<g
   id="INSERT-4"
   transform="matrix(-1.3308196,0,0,-1.3308196,234.7406,95.433071)">&#10;	<g
   id="CIRCLE-22">&#10;		<path
   class="st6"
   d="m 166.5,34.3 c 1.3,0 2.4,-1.1 2.4,-2.4 0,-1.3 -1.1,-2.4 -2.4,-2.4 -1.3,0 -2.4,1.1 -2.4,2.4 0,0 0,0 0,0 -0.1,1.4 1,2.5 2.4,2.4 z"
   id="path122" />&#10;	</g>&#10;</g>&#10;<line
   class="st13"
   x1="15.95387"
   y1="54.709988"
   x2="10.4975"
   y2="51.249859"
   id="line122" />&#10;<g
   id="INSERT-5"
   transform="matrix(-1.3308196,0,0,-1.3308196,234.7406,95.433071)">&#10;	<g
   id="CIRCLE-23">&#10;		<path
   class="st6"
   d="m 164,24.8 c 0,1.3 1.1,2.4 2.4,2.4 1.3,0 2.4,-1.1 2.4,-2.4 0,-1.3 -1.1,-2.4 -2.4,-2.4 0,0 0,0 0,0 -1.3,0 -2.4,1.1 -2.4,2.4 z"
   id="path123" />&#10;	</g>&#10;</g>&#10;<line
   class="st13"
   x1="11.42906"
   y1="65.223457"
   x2="14.889211"
   y2="59.634029"
   id="line123" />&#10;<g
   id="INSERT-6"
   transform="matrix(-1.3308196,0,0,-1.3308196,234.7406,95.433071)">&#10;	<g
   id="CIRCLE-24">&#10;		<path
   class="st6"
   d="m 164.2,18.8 c 0.6,1.2 2.1,1.6 3.3,1 1.2,-0.6 1.6,-2.1 1,-3.3 -0.6,-1.2 -2.1,-1.6 -3.3,-1 0,0 0,0 0,0 -1.2,0.7 -1.7,2.2 -1,3.3 z"
   id="path124" />&#10;	</g>&#10;</g>&#10;<line
   class="st13"
   x1="13.15914"
   y1="75.204605"
   x2="13.55839"
   y2="68.683586"
   id="line124" />&#10;<g
   id="LWPOLYLINE-3"
   transform="matrix(-1.3308196,0,0,-1.3308196,234.7406,95.433071)">&#10;	<path
   class="st7"
   d="m 0.1,23.2 c 0,-0.9 0.8,-1.7 1.7,-1.7 H 24 c 0.9,0 1.7,0.8 1.7,1.7 V 48.1 C 25.7,49 25,49.8 24,49.8 H 1.7 C 0.8,49.8 0,49 0,48.1 Z"
   id="path125" />&#10;</g>&#10;<g
   id="LWPOLYLINE-4"
   class="st8"
   transform="matrix(-1.3308196,0,0,-1.3308196,234.7406,95.433071)">&#10;	<path
   class="st9"
   d="m 25.6,23.2 v 24.9 c 0,0.9 -0.7,1.7 -1.7,1.7 H 1.7 C 0.8,49.8 0,49.1 0,48.1 V 23.2 C 0,22.3 0.7,21.5 1.7,21.5 H 24 c 0.9,0 1.6,0.8 1.6,1.7 z"
   id="path126" />&#10;</g>&#10;<path
   class="st0"
   d="m 203.99866,29.158257 h -1.19773 c -1.19774,0 -2.2624,1.064656 -2.2624,2.262394 v 33.137407 c 0,1.197737 0.93158,2.262393 2.2624,2.262393 h 1.19773 z"
   id="path127"
   style="stroke-width:1.33082" />&#10;<path
   class="st10"
   d="m 203.99866,29.158257 h -1.19773 c -1.19774,0 -2.2624,1.064656 -2.2624,2.262394 v 33.137407 c 0,1.197737 0.93158,2.262393 2.2624,2.262393 v 0 h 1.19773 z"
   id="path128"
   style="stroke-width:1.33082" />&#10;<rect
   x="-225.15871"
   y="-66.820442"
   class="st11"
   width="14.905179"
   height="37.662193"
   id="rect128"
   transform="scale(-1)"
   style="stroke-width:1.33082" />&#10;<rect
   x="-225.15871"
   y="-66.820442"
   class="st12"
   width="14.905179"
   height="37.662193"
   id="rect129"
   transform="scale(-1)"
   style="stroke-width:1.33082" />&#10;<g
   id="INSERT-7"
   transform="matrix(-1.3308196,0,0,-1.3308196,234.7406,95.433071)">&#10;	<g
   id="CIRCLE-25">&#10;		<path
   class="st6"
   d="m 8.3,42.4 c 0,2.5 2,4.6 4.6,4.6 2.5,0 4.6,-2 4.6,-4.6 0,-2.5 -2,-4.6 -4.6,-4.6 0,0 0,0 0,0 -2.6,0 -4.6,2.1 -4.6,4.6 z"
   id="path129" />&#10;	</g>&#10;</g>&#10;<line
   class="st13"
   x1="214.37909"
   y1="44.19651"
   x2="220.90009"
   y2="33.816124"
   id="line129" />&#10;<g
   id="INSERT-8"
   transform="matrix(-1.3308196,0,0,-1.3308196,234.7406,95.433071)">&#10;	<g
   id="CIRCLE-26">&#10;		<path
   class="st6"
   d="m 9.6,25.8 c -1.8,1.8 -1.8,4.7 0,6.5 1.8,1.8 4.7,1.8 6.5,0 1.8,-1.8 1.8,-4.7 0,-6.5 0,0 0,0 0,0 -1.8,-1.8 -4.7,-1.8 -6.5,0 z"
   id="path130" />&#10;	</g>&#10;</g>&#10;<line
   class="st13"
   x1="216.24222"
   y1="50.983692"
   x2="219.03696"
   y2="62.827988"
   id="line130" />&#10;<rect
   x="-84.491074"
   y="-65.489616"
   class="st4"
   width="25.418653"
   height="34.468227"
   id="rect130"
   transform="scale(-1)"
   style="stroke-width:1.33082" />&#10;<rect
   x="-84.491074"
   y="-65.489616"
   class="st5"
   width="25.418653"
   height="34.468227"
   id="rect131"
   transform="scale(-1)"
   style="stroke-width:1.33082" />&#10;<rect
   x="-84.491074"
   y="-65.489616"
   class="st4"
   width="25.418653"
   height="34.468227"
   id="rect132"
   transform="scale(-1)"
   style="stroke-width:1.33082" />&#10;<rect
   x="-79.034706"
   y="-41.534874"
   class="st14"
   width="14.372851"
   height="5.4563599"
   id="rect133"
   transform="scale(-1)"
   style="stroke-width:1.33082" />&#10;<rect
   x="-79.034706"
   y="-41.534874"
   class="st14"
   width="14.372851"
   height="5.4563599"
   id="rect134"
   transform="scale(-1)"
   style="stroke-width:1.33082" />&#10;<rect
   x="-79.034706"
   y="-41.534874"
   class="st15"
   width="14.372851"
   height="5.4563599"
   id="rect135"
   transform="scale(-1)"
   style="stroke-width:1.33082" />&#10;<rect
   x="-79.034706"
   y="-41.534874"
   class="st15"
   width="14.372851"
   height="5.4563599"
   id="rect136"
   transform="scale(-1)"
   style="stroke-width:1.33082" />&#10;<rect
   x="-79.034706"
   y="-41.534874"
   class="st14"
   width="6.1217699"
   height="5.4563599"
   id="rect137"
   transform="scale(-1)"
   style="stroke-width:1.33082" />&#10;<rect
   x="-79.034706"
   y="-50.983692"
   class="st14"
   width="14.372851"
   height="5.4563599"
   id="rect138"
   transform="scale(-1)"
   style="stroke-width:1.33082" />&#10;<rect
   x="-79.034706"
   y="-50.983692"
   class="st14"
   width="14.372851"
   height="5.4563599"
   id="rect139"
   transform="scale(-1)"
   style="stroke-width:1.33082" />&#10;<rect
   x="-79.034706"
   y="-50.983692"
   class="st15"
   width="14.372851"
   height="5.4563599"
   id="rect140"
   transform="scale(-1)"
   style="stroke-width:1.33082" />&#10;<rect
   x="-79.034706"
   y="-50.983692"
   class="st15"
   width="14.372851"
   height="5.4563599"
   id="rect141"
   transform="scale(-1)"
   style="stroke-width:1.33082" />&#10;<rect
   x="-79.034706"
   y="-50.983692"
   class="st14"
   width="6.2548518"
   height="5.4563599"
   id="rect142"
   transform="scale(-1)"
   style="stroke-width:1.33082" />&#10;<rect
   x="-79.034706"
   y="-60.432518"
   class="st14"
   width="14.372851"
   height="5.4563599"
   id="rect143"
   transform="scale(-1)"
   style="stroke-width:1.33082" />&#10;<rect
   x="-79.034706"
   y="-60.432518"
   class="st14"
   width="14.372851"
   height="5.4563599"
   id="rect144"
   transform="scale(-1)"
   style="stroke-width:1.33082" />&#10;<rect
   x="-79.034706"
   y="-60.432518"
   class="st15"
   width="14.372851"
   height="5.4563599"
   id="rect145"
   transform="scale(-1)"
   style="stroke-width:1.33082" />&#10;<rect
   x="-79.034706"
   y="-60.432518"
   class="st15"
   width="14.372851"
   height="5.4563599"
   id="rect146"
   transform="scale(-1)"
   style="stroke-width:1.33082" />&#10;<rect
   x="-79.034706"
   y="-60.432518"
   class="st14"
   width="6.3879342"
   height="5.4563599"
   id="rect147"
   transform="scale(-1)"
   style="stroke-width:1.33082" />&#10;<g
   id="pin"
   transform="matrix(-1.3308196,0,0,-1.3308196,234.7406,95.433071)">&#10;	<path
   class="st4"
   d="m 115,68.1 v -7.2 h -7.2 v 7.2 z"
   id="path147" />&#10;	<rect
   x="100.6"
   y="60.900002"
   class="st4"
   width="7.1999998"
   height="7.1999998"
   id="rect148" />&#10;	<path
   class="st4"
   d="m 100.6,68.1 v -7.2 h -7.2 v 7.2 z"
   id="path148" />&#10;	<path
   class="st4"
   d="m 93.4,68.1 v -7.2 h -7.2 v 7.2 z"
   id="path149" />&#10;	<path
   class="st4"
   d="M 86.2,68.1 V 60.9 H 79 v 7.2 z"
   id="path150" />&#10;	<path
   class="st4"
   d="m 115,68.1 v -7.2 h -7.2 v 7.2 z"
   id="path151" />&#10;	<path
   class="st4"
   d="m 71.8,68.1 v -7.2 h -7.2 v 7.2 z"
   id="path152" />&#10;	<path
   class="st4"
   d="m 79,68.1 v -7.2 h -7.2 v 7.2 z"
   id="path153" />&#10;	<path
   class="st4"
   d="m 64.6,68.1 v -7.2 h -7.2 v 7.2 z"
   id="path154" />&#10;	<path
   class="st4"
   d="M 50.2,68.1 V 60.9 H 43 v 7.2 z"
   id="path155" />&#10;	<path
   class="st4"
   d="m 57.4,68.1 v -7.2 h -7.2 v 7.2 z"
   id="path156" />&#10;	<rect
   x="100.6"
   y="60.900002"
   class="st5"
   width="7.1999998"
   height="7.1999998"
   id="rect156" />&#10;	<path
   class="st5"
   d="m 100.6,68.1 v -7.2 h -7.2 v 7.2 z"
   id="path157" />&#10;	<path
   class="st5"
   d="m 93.4,68.1 v -7.2 h -7.2 v 7.2 z"
   id="path158" />&#10;	<path
   class="st5"
   d="M 86.2,68.1 V 60.9 H 79 v 7.2 z"
   id="path159" />&#10;	<path
   class="st5"
   d="m 115,68.1 v -7.2 h -7.2 v 7.2 z"
   id="path160" />&#10;	<path
   class="st5"
   d="m 71.8,68.1 v -7.2 h -7.2 v 7.2 z"
   id="path161" />&#10;	<path
   class="st5"
   d="m 79,68.1 v -7.2 h -7.2 v 7.2 z"
   id="path162" />&#10;	<path
   class="st5"
   d="m 64.6,68.1 v -7.2 h -7.2 v 7.2 z"
   id="path163" />&#10;	<path
   class="st5"
   d="M 50.2,68.1 V 60.9 H 43 v 7.2 z"
   id="path164" />&#10;	<path
   class="st5"
   d="m 57.4,68.1 v -7.2 h -7.2 v 7.2 z"
   id="path165" />&#10;	<rect
   x="100.6"
   y="60.900002"
   class="st4"
   width="7.1999998"
   height="7.1999998"
   id="rect165" />&#10;	<path
   class="st4"
   d="m 100.6,68.1 v -7.2 h -7.2 v 7.2 z"
   id="path166" />&#10;	<path
   class="st4"
   d="m 93.4,68.1 v -7.2 h -7.2 v 7.2 z"
   id="path167" />&#10;	<path
   class="st4"
   d="M 86.2,68.1 V 60.9 H 79 v 7.2 z"
   id="path168" />&#10;	<path
   class="st4"
   d="m 115,68.1 v -7.2 h -7.2 v 7.2 z"
   id="path169" />&#10;	<path
   class="st4"
   d="m 71.8,68.1 v -7.2 h -7.2 v 7.2 z"
   id="path170" />&#10;	<path
   class="st4"
   d="m 79,68.1 v -7.2 h -7.2 v 7.2 z"
   id="path171" />&#10;	<path
   class="st4"
   d="m 64.6,68.1 v -7.2 h -7.2 v 7.2 z"
   id="path172" />&#10;	<path
   class="st4"
   d="M 50.2,68.1 V 60.9 H 43 v 7.2 z"
   id="path173" />&#10;	<path
   class="st4"
   d="m 57.4,68.1 v -7.2 h -7.2 v 7.2 z"
   id="path174" />&#10;	<polygon
   class="st16"
   points="95.2,66.3 98.8,66.3 98.8,62.7 95.2,62.7 "
   id="polygon174" />&#10;	<polygon
   class="st16"
   points="102.4,66.3 106,66.3 106,62.7 102.4,62.7 "
   id="polygon175" />&#10;	<polygon
   class="st16"
   points="109.6,66.3 113.2,66.3 113.2,62.7 109.6,62.7 "
   id="polygon176" />&#10;	<polygon
   class="st16"
   points="66.4,66.3 70,66.3 70,62.7 66.4,62.7 "
   id="polygon177" />&#10;	<polygon
   class="st16"
   points="48.4,66.3 48.4,62.7 44.8,62.7 44.8,66.3 "
   id="polygon178" />&#10;	<polygon
   class="st16"
   points="62.8,66.3 62.8,62.7 59.2,62.7 59.2,66.3 "
   id="polygon179" />&#10;	<polygon
   class="st16"
   points="77.2,66.3 77.2,62.7 73.6,62.7 73.6,66.3 "
   id="polygon180" />&#10;	<polygon
   class="st16"
   points="84.4,66.3 84.4,62.7 80.8,62.7 80.8,66.3 "
   id="polygon181" />&#10;	<polygon
   class="st16"
   points="91.6,66.3 91.6,62.7 88,62.7 88,66.3 "
   id="polygon182" />&#10;	<polygon
   class="st16"
   points="55.6,66.3 55.6,62.7 52,62.7 52,66.3 "
   id="polygon183" />&#10;	<rect
   x="28.6"
   y="60.900002"
   class="st4"
   width="7.1999998"
   height="7.1999998"
   id="rect183" />&#10;	<path
   class="st4"
   d="m 28.6,68.1 v -7.2 h -7.2 v 7.2 z"
   id="path183" />&#10;	<path
   class="st4"
   d="m 21.4,68.1 v -7.2 h -7.2 v 7.2 z"
   id="path184" />&#10;	<path
   class="st4"
   d="m 43,68.1 v -7.2 h -7.2 v 7.2 z"
   id="path185" />&#10;	<rect
   x="28.6"
   y="60.900002"
   class="st5"
   width="7.1999998"
   height="7.1999998"
   id="rect185" />&#10;	<path
   class="st5"
   d="m 28.6,68.1 v -7.2 h -7.2 v 7.2 z"
   id="path186" />&#10;	<path
   class="st5"
   d="m 21.4,68.1 v -7.2 h -7.2 v 7.2 z"
   id="path187" />&#10;	<path
   class="st5"
   d="m 43,68.1 v -7.2 h -7.2 v 7.2 z"
   id="path188" />&#10;	<rect
   x="28.6"
   y="60.900002"
   class="st4"
   width="7.1999998"
   height="7.1999998"
   id="rect188" />&#10;	<path
   class="st4"
   d="m 28.6,68.1 v -7.2 h -7.2 v 7.2 z"
   id="path189" />&#10;	<path
   class="st4"
   d="m 21.4,68.1 v -7.2 h -7.2 v 7.2 z"
   id="path190" />&#10;	<path
   class="st4"
   d="m 43,68.1 v -7.2 h -7.2 v 7.2 z"
   id="path191" />&#10;	<polygon
   class="st16"
   points="23.2,66.3 26.8,66.3 26.8,62.7 23.2,62.7 "
   id="polygon191" />&#10;	<polygon
   class="st16"
   points="30.4,66.3 34,66.3 34,62.7 30.4,62.7 "
   id="polygon192" />&#10;	<polygon
   class="st16"
   points="37.6,66.3 41.2,66.3 41.2,62.7 37.6,62.7 "
   id="polygon193" />&#10;	<polygon
   class="st16"
   points="19.6,66.3 19.6,62.7 16,62.7 16,66.3 "
   id="polygon194" />&#10;</g>&#10;<g
   id="Disegno_4"
   transform="matrix(-1.3308196,0,0,-1.3308196,234.7406,95.433071)">&#10;	<rect
   x="2"
   y="18"
   class="st2"
   width="2.8"
   height="2.8"
   id="rect194" />&#10;	<rect
   x="2"
   y="12.9"
   class="st2"
   width="2.8"
   height="2.8"
   id="rect195" />&#10;	<rect
   x="2"
   y="15.6"
   class="st4"
   width="2.8"
   height="2.3"
   id="rect196" />&#10;	<rect
   x="2"
   y="15.6"
   class="st5"
   width="2.8"
   height="2.3"
   id="rect197" />&#10;	<rect
   x="2"
   y="15.6"
   class="st4"
   width="2.8"
   height="2.3"
   id="rect198" />&#10;	<polygon
   class="st16"
   points="4.8,18 2,18 2,18.8 3.4,20.2 4.8,18.8 "
   id="polygon198" />&#10;	<polygon
   class="st16"
   points="2,15.6 4.8,15.6 4.8,14.7 3.4,13.4 2,14.7 "
   id="polygon199" />&#10;</g>&#10;<g
   id="Disegno_4-2"
   transform="matrix(-1.3308196,0,0,-1.3308196,234.7406,95.433071)">&#10;	<rect
   x="50.799999"
   y="54.200001"
   class="st2"
   width="2.8"
   height="2.8"
   id="rect199" />&#10;	<rect
   x="45.700001"
   y="54.200001"
   class="st2"
   width="2.8"
   height="2.8"
   id="rect200" />&#10;	<rect
   x="48.400002"
   y="54.200001"
   class="st4"
   width="2.3"
   height="2.8"
   id="rect201" />&#10;	<rect
   x="48.400002"
   y="54.200001"
   class="st5"
   width="2.3"
   height="2.8"
   id="rect202" />&#10;	<rect
   x="48.400002"
   y="54.200001"
   class="st4"
   width="2.3"
   height="2.8"
   id="rect203" />&#10;	<polygon
   class="st16"
   points="50.8,54.2 50.8,57 51.6,57 53,55.6 51.6,54.2 "
   id="polygon203" />&#10;	<polygon
   class="st16"
   points="48.4,57 48.4,54.2 47.5,54.2 46.2,55.6 47.5,57 "
   id="polygon204" />&#10;</g>&#10;<g
   id="Artwork_3"
   transform="matrix(-1.3308196,0,0,-1.3308196,234.7406,95.433071)">&#10;	<path
   class="st2"
   d="m 144.9,37.4 v 3.4 c 0,0 0,0.1 -0.1,0.1 v 0 h -3.4 c 0,0 -0.1,0 -0.1,-0.1 v -3.4 c 0,0 0,-0.1 0.1,-0.1 l 3.5,0.1 c 0,-0.1 0,0 0,0 z"
   id="path204" />&#10;	<path
   class="st2"
   d="m 141,37.4 v 3.4 c 0,0 0,0.1 -0.1,0.1 h -3.4 c 0,0 -0.1,0 -0.1,-0.1 v -3.4 c 0,0 0,-0.1 0.1,-0.1 l 3.5,0.1 c 0,-0.1 0,0 0,0 z"
   id="path205" />&#10;	<path
   class="st6"
   d="m 139.7,40.6 v 0 h 1.4 0.1 1.4 v 0 c 0.8,0 1.4,-0.7 1.4,-1.5 0,-0.8 -0.6,-1.4 -1.4,-1.4 v 0 h -1.4 -0.1 -1.4 c -0.8,0 -1.5,0.7 -1.5,1.5 0,0.7 0.7,1.4 1.5,1.4 z"
   id="path206" />&#10;	<rect
   x="140.10001"
   y="37.599998"
   class="st0"
   width="2.2"
   height="3"
   id="rect206" />&#10;	<rect
   x="140.10001"
   y="37.599998"
   class="st5"
   width="2.2"
   height="3"
   id="rect207" />&#10;	<rect
   x="140.10001"
   y="37.599998"
   class="st4"
   width="2.2"
   height="3"
   id="rect208" />&#10;</g>&#10;<g
   id="Artwork_3-2"
   transform="matrix(-1.3308196,0,0,-1.3308196,234.7406,95.433071)">&#10;	<path
   class="st2"
   d="m 144.9,30.1 v 3.4 c 0,0 0,0.1 -0.1,0.1 h -3.4 c 0,0 -0.1,0 -0.1,-0.1 v -3.4 c 0,0 0,-0.1 0.1,-0.1 z"
   id="path208" />&#10;	<path
   class="st2"
   d="m 141,30.1 v 3.4 c 0,0 0,0.1 -0.1,0.1 h -3.4 c 0,0 -0.1,0 -0.1,-0.1 v -3.4 c 0,0 0,-0.1 0.1,-0.1 z"
   id="path209" />&#10;	<path
   class="st6"
   d="m 139.7,33.3 v 0 h 1.4 0.1 1.4 v 0 c 0.8,0 1.4,-0.7 1.4,-1.5 0,-0.8 -0.6,-1.4 -1.4,-1.4 v 0 h -1.4 -0.1 -1.4 c -0.8,0 -1.5,0.7 -1.5,1.5 0,0.7 0.7,1.4 1.5,1.4 z"
   id="path210" />&#10;	<rect
   x="140.10001"
   y="30.4"
   class="st0"
   width="2.2"
   height="3"
   id="rect210" />&#10;	<rect
   x="140.10001"
   y="30.4"
   class="st5"
   width="2.2"
   height="3"
   id="rect211" />&#10;	<rect
   x="140.10001"
   y="30.4"
   class="st4"
   width="2.2"
   height="3"
   id="rect212" />&#10;</g>&#10;<g
   id="Artwork_3-3"
   transform="matrix(-1.3308196,0,0,-1.3308196,234.7406,95.433071)">&#10;	<path
   class="st2"
   d="m 142.9,12.7 v 3.4 c 0,0 0,0.1 -0.1,0.1 v 0 h -3.4 c 0,0 -0.1,0 -0.1,-0.1 v -3.4 c 0,0 0,-0.1 0.1,-0.1 l 3.5,0.1 c 0,-0.1 0,0 0,0 z"
   id="path212" />&#10;	<path
   class="st2"
   d="M 142.9,16.6 V 20 c 0,0 0,0.1 -0.1,0.1 v 0 h -3.4 c 0,0 -0.1,0 -0.1,-0.1 v -3.4 c 0,0 0,-0.1 0.1,-0.1 l 3.5,0.1 c 0,-0.1 0,-0.1 0,0 z"
   id="path213" />&#10;	<path
   class="st6"
   d="m 142.6,17.8 v 0 -1.4 -0.1 -1.4 0 c 0,-0.8 -0.7,-1.4 -1.5,-1.4 -0.8,0 -1.4,0.6 -1.4,1.4 v 0 1.4 0.1 1.4 c 0,0.8 0.7,1.5 1.5,1.5 0.8,0 1.4,-0.7 1.4,-1.5 z"
   id="path214" />&#10;	<rect
   x="139.7"
   y="15.3"
   class="st0"
   width="3"
   height="2.2"
   id="rect214" />&#10;	<rect
   x="139.7"
   y="15.3"
   class="st5"
   width="3"
   height="2.2"
   id="rect215" />&#10;	<rect
   x="139.7"
   y="15.3"
   class="st4"
   width="3"
   height="2.2"
   id="rect216" />&#10;</g>&#10;<g
   id="Artwork_3-4"
   transform="matrix(-1.3308196,0,0,-1.3308196,234.7406,95.433071)">&#10;	<path
   class="st2"
   d="M 126.5,14.6 V 18 c 0,0 0,0.1 -0.1,0.1 H 123 c 0,0 -0.1,0 -0.1,-0.1 v -3.4 c 0,0 0,-0.1 0.1,-0.1 l 3.5,0.1 c -0.1,0 0,0 0,0 z"
   id="path216" />&#10;	<path
   class="st2"
   d="M 122.6,14.6 V 18 c 0,0 0,0.1 -0.1,0.1 h -3.4 c 0,0 -0.1,0 -0.1,-0.1 v -3.4 c 0,0 0,-0.1 0.1,-0.1 z"
   id="path217" />&#10;	<path
   class="st6"
   d="m 121.3,17.8 v 0 h 1.4 0.1 1.4 v 0 c 0.8,0 1.4,-0.7 1.4,-1.5 0,-0.8 -0.6,-1.4 -1.4,-1.4 v 0 h -1.4 -0.1 -1.4 c -0.8,0 -1.5,0.7 -1.5,1.5 0,0.8 0.7,1.4 1.5,1.4 z"
   id="path218" />&#10;	<rect
   x="121.6"
   y="14.9"
   class="st0"
   width="2.2"
   height="3"
   id="rect218" />&#10;	<rect
   x="121.6"
   y="14.9"
   class="st5"
   width="2.2"
   height="3"
   id="rect219" />&#10;	<rect
   x="121.6"
   y="14.9"
   class="st4"
   width="2.2"
   height="3"
   id="rect220" />&#10;</g>&#10;<g
   id="Artwork_3-5"
   transform="matrix(-1.3308196,0,0,-1.3308196,234.7406,95.433071)">&#10;	<path
   class="st2"
   d="M 95.8,30.8 V 33 c 0,0 0,0 0,0 v 0 h -2.3 c 0,0 0,0 0,0 v 0 -2.2 c 0,0 0,0 0,0 v 0 h 2.3 c 0,-0.1 0,-0.1 0,0 z"
   id="path220" />&#10;	<path
   class="st2"
   d="m 95.8,33.3 v 2.2 c 0,0 0,0 0,0 v 0 h -2.3 c 0,0 0,0 0,0 v 0 -2.2 c 0,0 0,0 0,0 v 0 h 2.3 c 0,-0.1 0,0 0,0 z"
   id="path221" />&#10;	<path
   class="st6"
   d="m 95.6,34.1 v 0 -0.9 -0.1 -0.9 0 c 0,-0.5 -0.5,-0.9 -1,-0.9 -0.5,0 -0.9,0.4 -0.9,0.9 v 0 0.9 0.1 0.9 c 0,0.5 0.4,1 1,1 0.5,0 0.9,-0.5 0.9,-1 z"
   id="path222" />&#10;	<rect
   x="93.699997"
   y="32.400002"
   class="st0"
   width="1.9"
   height="1.4"
   id="rect222" />&#10;	<rect
   x="93.699997"
   y="32.400002"
   class="st5"
   width="1.9"
   height="1.4"
   id="rect223" />&#10;	<rect
   x="93.699997"
   y="32.400002"
   class="st4"
   width="1.9"
   height="1.4"
   id="rect224" />&#10;</g>&#10;<g
   id="Artwork_3-6"
   transform="matrix(-1.3308196,0,0,-1.3308196,234.7406,95.433071)">&#10;	<path
   class="st2"
   d="M 95.8,21.8 V 24 c 0,0 0,0 0,0 v 0 h -2.3 c 0,0 0,0 0,0 v 0 -2.2 c 0,0 0,0 0,0 v 0 h 2.3 c 0,-0.1 0,0 0,0 z"
   id="path224" />&#10;	<path
   class="st2"
   d="m 95.8,24.3 v 2.2 c 0,0 0,0 0,0 v 0 h -2.3 c 0,0 0,0 0,0 v 0 -2.2 c 0,0 0,0 0,0 v 0 z"
   id="path225" />&#10;	<path
   class="st6"
   d="m 95.6,25.1 v 0 -0.9 -0.1 -0.9 0 c 0,-0.5 -0.5,-0.9 -1,-0.9 -0.5,0 -0.9,0.4 -0.9,0.9 v 0 0.9 0.1 0.9 c 0,0.5 0.4,1 1,1 0.5,0 0.9,-0.5 0.9,-1 z"
   id="path226" />&#10;	<rect
   x="93.699997"
   y="23.5"
   class="st0"
   width="1.9"
   height="1.4"
   id="rect226" />&#10;	<rect
   x="93.699997"
   y="23.5"
   class="st5"
   width="1.9"
   height="1.4"
   id="rect227" />&#10;	<rect
   x="93.699997"
   y="23.5"
   class="st4"
   width="1.9"
   height="1.4"
   id="rect228" />&#10;</g>&#10;<g
   id="Artwork_3-7"
   transform="matrix(-1.3308196,0,0,-1.3308196,234.7406,95.433071)">&#10;	<path
   class="st2"
   d="M 68.6,30.8 V 33 c 0,0 0,0 0,0 v 0 h -2.3 c 0,0 0,0 0,0 v 0 -2.2 c 0,0 0,0 0,0 v 0 h 2.3 c 0,-0.1 0,-0.1 0,0 z"
   id="path228" />&#10;	<path
   class="st2"
   d="m 68.6,33.3 v 2.2 c 0,0 0,0 0,0 v 0 h -2.3 c 0,0 0,0 0,0 v 0 -2.2 c 0,0 0,0 0,0 v 0 h 2.3 c 0,-0.1 0,0 0,0 z"
   id="path229" />&#10;	<path
   class="st6"
   d="m 68.4,34.1 v 0 -0.9 -0.1 -0.9 0 c 0,-0.5 -0.5,-0.9 -1,-0.9 -0.5,0 -0.9,0.4 -0.9,0.9 v 0 0.9 0.1 0.9 c 0,0.5 0.4,1 1,1 0.5,-0.1 0.9,-0.5 0.9,-1 z"
   id="path230" />&#10;	<rect
   x="66.5"
   y="32.400002"
   class="st0"
   width="1.9"
   height="1.4"
   id="rect230" />&#10;	<rect
   x="66.5"
   y="32.400002"
   class="st5"
   width="1.9"
   height="1.4"
   id="rect231" />&#10;	<rect
   x="66.5"
   y="32.400002"
   class="st4"
   width="1.9"
   height="1.4"
   id="rect232" />&#10;</g>&#10;<g
   id="Artwork_3-8"
   transform="matrix(-1.3308196,0,0,-1.3308196,234.7406,95.433071)">&#10;	<path
   class="st2"
   d="m 42.6,17 v 2.3 c 0,0 0,0 0,0 v 0 h -2.2 c 0,0 0,0 0,0 V 17 c 0,0 0,0 0,0 h 2.2 c -0.1,0 0,0 0,0 z"
   id="path232" />&#10;	<path
   class="st2"
   d="m 45.1,17 v 2.3 c 0,0 0,0 0,0 v 0 h -2.2 c 0,0 0,0 0,0 v 0 -2.3 c 0,0 0,0 0,0 z"
   id="path233" />&#10;	<path
   class="st6"
   d="m 43.6,17.2 v 0 h -0.9 -0.1 -0.9 v 0 c -0.5,0 -0.9,0.5 -0.9,1 0,0.5 0.4,0.9 0.9,0.9 v 0 h 0.9 0.1 0.9 c 0.5,0 1,-0.4 1,-1 0,-0.5 -0.5,-0.9 -1,-0.9 z"
   id="path234" />&#10;	<rect
   x="42"
   y="17.200001"
   class="st0"
   width="1.4"
   height="1.9"
   id="rect234" />&#10;	<rect
   x="42"
   y="17.200001"
   class="st5"
   width="1.4"
   height="1.9"
   id="rect235" />&#10;	<rect
   x="42"
   y="17.200001"
   class="st4"
   width="1.4"
   height="1.9"
   id="rect236" />&#10;</g>&#10;<g
   id="Artwork_3-9"
   transform="matrix(-1.3308196,0,0,-1.3308196,234.7406,95.433071)">&#10;	<path
   class="st2"
   d="m 42.6,13.3 v 2.3 c 0,0 0,0 0,0 v 0 h -2.2 c 0,0 0,0 0,0 v -2.3 c 0,0 0,0 0,0 h 2.2 c -0.1,0 0,0 0,0 z"
   id="path236" />&#10;	<path
   class="st2"
   d="m 45.1,13.3 v 2.3 c 0,0 0,0 0,0 v 0 h -2.2 c 0,0 0,0 0,0 v -2.3 c 0,0 0,0 0,0 z"
   id="path237" />&#10;	<path
   class="st6"
   d="m 43.6,13.5 v 0 h -0.9 -0.1 -0.9 v 0 c -0.5,0 -0.9,0.5 -0.9,1 0,0.5 0.4,0.9 0.9,0.9 v 0 h 0.9 0.1 0.9 c 0.5,0 1,-0.4 1,-1 0,-0.5 -0.5,-0.9 -1,-0.9 z"
   id="path238" />&#10;	<rect
   x="42"
   y="13.5"
   class="st0"
   width="1.4"
   height="1.9"
   id="rect238" />&#10;	<rect
   x="42"
   y="13.5"
   class="st5"
   width="1.4"
   height="1.9"
   id="rect239" />&#10;	<rect
   x="42"
   y="13.5"
   class="st4"
   width="1.4"
   height="1.9"
   id="rect240" />&#10;</g>&#10;<g
   id="Artwork_3-10"
   transform="matrix(-1.3308196,0,0,-1.3308196,234.7406,95.433071)">&#10;	<path
   class="st2"
   d="m 42,47.9 v 2.2 c 0,0 0,0 0,0 v 0 h -2.3 c 0,0 0,0 0,0 v 0 -2.2 c 0,0 0,0 0,0 H 42 c 0,-0.1 0,0 0,0 z"
   id="path240" />&#10;	<path
   class="st2"
   d="m 42,50.4 v 2.2 c 0,0 0,0 0,0 v 0 h -2.3 c 0,0 0,0 0,0 v -2.2 c 0,0 0,0 0,0 z"
   id="path241" />&#10;	<path
   class="st6"
   d="m 41.8,51.2 v 0 -0.9 -0.1 -0.9 0 c 0,-0.5 -0.5,-0.9 -1,-0.9 -0.5,0 -0.9,0.4 -0.9,0.9 v 0 0.9 0.1 0.9 c 0,0.5 0.4,1 1,1 0.5,0 0.9,-0.5 0.9,-1 z"
   id="path242" />&#10;	<rect
   x="39.799999"
   y="49.599998"
   class="st0"
   width="1.9"
   height="1.4"
   id="rect242" />&#10;	<rect
   x="39.799999"
   y="49.599998"
   class="st5"
   width="1.9"
   height="1.4"
   id="rect243" />&#10;	<rect
   x="39.799999"
   y="49.599998"
   class="st4"
   width="1.9"
   height="1.4"
   id="rect244" />&#10;</g>&#10;<g
   id="Artwork_3-11"
   transform="matrix(-1.3308196,0,0,-1.3308196,234.7406,95.433071)">&#10;	<path
   class="st2"
   d="m 38.6,47.9 v 2.2 c 0,0 0,0 0,0 v 0 h -2.3 c 0,0 0,0 0,0 v 0 -2.2 c 0,0 0,0 0,0 h 2.3 c 0,-0.1 0,0 0,0 z"
   id="path244" />&#10;	<path
   class="st2"
   d="m 38.6,50.4 v 2.2 c 0,0 0,0 0,0 v 0 h -2.3 c 0,0 0,0 0,0 v -2.2 c 0,0 0,0 0,0 z"
   id="path245" />&#10;	<path
   class="st6"
   d="m 38.4,51.2 v 0 -0.9 -0.1 -0.9 0 c 0,-0.5 -0.5,-1 -1,-0.9 -0.5,0 -0.9,0.4 -0.9,0.9 v 0 0.9 0.1 0.9 c 0,0.5 0.4,1 1,1 0.5,0 0.9,-0.5 0.9,-1 z"
   id="path246" />&#10;	<rect
   x="36.400002"
   y="49.599998"
   class="st0"
   width="1.9"
   height="1.4"
   id="rect246" />&#10;	<rect
   x="36.400002"
   y="49.599998"
   class="st5"
   width="1.9"
   height="1.4"
   id="rect247" />&#10;	<rect
   x="36.400002"
   y="49.599998"
   class="st4"
   width="1.9"
   height="1.4"
   id="rect248" />&#10;</g>&#10;<g
   id="Artwork_3-12"
   transform="matrix(-1.3308196,0,0,-1.3308196,234.7406,95.433071)">&#10;	<path
   class="st2"
   d="M 38.6,53.8 V 56 c 0,0 0,0 0,0 v 0 h -2.3 c 0,0 0,0 0,0 v 0 -2.2 c 0,0 0,0 0,0 h 2.3 c 0,-0.1 0,-0.1 0,0 z"
   id="path248" />&#10;	<path
   class="st2"
   d="m 38.6,56.3 v 2.2 c 0,0 0,0 0,0 v 0 h -2.3 c 0,0 0,0 0,0 v -2.2 c 0,0 0,0 0,0 z"
   id="path249" />&#10;	<path
   class="st6"
   d="m 38.4,57.1 v 0 -0.9 -0.1 -0.9 0 c 0,-0.5 -0.5,-1 -1,-0.9 -0.5,0 -0.9,0.4 -0.9,0.9 v 0 0.9 0.1 0.9 c 0,0.5 0.5,1 1,1 0.5,-0.1 0.9,-0.5 0.9,-1 z"
   id="path250" />&#10;	<rect
   x="36.400002"
   y="55.400002"
   class="st0"
   width="1.9"
   height="1.4"
   id="rect250" />&#10;	<rect
   x="36.400002"
   y="55.400002"
   class="st5"
   width="1.9"
   height="1.4"
   id="rect251" />&#10;	<rect
   x="36.400002"
   y="55.400002"
   class="st4"
   width="1.9"
   height="1.4"
   id="rect252" />&#10;</g>&#10;<g
   id="Artwork_3-13"
   transform="matrix(-1.3308196,0,0,-1.3308196,234.7406,95.433071)">&#10;	<path
   class="st2"
   d="m 33.8,45.1 v 2.2 c 0,0 0,0 0,0 v 0 h -2.3 c 0,0 0,0 0,0 v 0 -2.2 c 0,0 0,0 0,0 h 2.3 c -0.1,0 0,0 0,0 z"
   id="path252" />&#10;	<path
   class="st2"
   d="m 33.8,47.6 v 2.2 c 0,0 0,0 0,0 v 0 h -2.3 c 0,0 0,0 0,0 v -2.2 c 0,0 0,0 0,0 h 2.3 c -0.1,0 0,0 0,0 z"
   id="path253" />&#10;	<path
   class="st6"
   d="m 33.6,48.4 v 0 -0.9 -0.1 -0.9 0 c 0,-0.5 -0.5,-0.9 -1,-0.9 -0.5,0 -0.9,0.4 -0.9,0.9 v 0 0.9 0.1 0.9 c 0,0.5 0.5,1 1,0.9 0.4,0.1 0.9,-0.3 0.9,-0.9 z"
   id="path254" />&#10;	<rect
   x="31.6"
   y="46.799999"
   class="st0"
   width="1.9"
   height="1.4"
   id="rect254" />&#10;	<rect
   x="31.6"
   y="46.799999"
   class="st5"
   width="1.9"
   height="1.4"
   id="rect255" />&#10;	<rect
   x="31.6"
   y="46.799999"
   class="st4"
   width="1.9"
   height="1.4"
   id="rect256" />&#10;</g>&#10;<g
   id="Artwork_3-14"
   transform="matrix(-1.3308196,0,0,-1.3308196,234.7406,95.433071)">&#10;	<path
   class="st2"
   d="m 30.6,45.1 v 2.2 c 0,0 0,0 0,0 v 0 h -2.3 c 0,0 0,0 0,0 v 0 -2.2 c 0,0 0,0 0,0 z"
   id="path256" />&#10;	<path
   class="st2"
   d="m 30.6,47.6 v 2.2 c 0,0 0,0 0,0 v 0 h -2.3 c 0,0 0,0 0,0 v -2.2 c 0,0 0,0 0,0 z"
   id="path257" />&#10;	<path
   class="st6"
   d="m 30.4,48.4 v 0 -0.9 -0.1 -0.9 0 c 0,-0.5 -0.5,-0.9 -1,-0.9 -0.5,0 -0.9,0.4 -0.9,0.9 v 0 0.9 0.1 0.9 c 0,0.5 0.4,1 1,1 0.5,0 0.9,-0.4 0.9,-1 z"
   id="path258" />&#10;	<rect
   x="28.5"
   y="46.799999"
   class="st0"
   width="1.9"
   height="1.4"
   id="rect258" />&#10;	<rect
   x="28.5"
   y="46.799999"
   class="st5"
   width="1.9"
   height="1.4"
   id="rect259" />&#10;	<rect
   x="28.5"
   y="46.799999"
   class="st4"
   width="1.9"
   height="1.4"
   id="rect260" />&#10;</g>&#10;<g
   id="Disegno_31"
   transform="matrix(-1.3308196,0,0,-1.3308196,234.7406,95.433071)">&#10;	<path
   class="st2"
   d="m 20.2,59.2 c 0,0 0.1,0 0,0 l 0.1,-3.5 c 0,0 0,-0.1 -0.1,-0.1 h -4.7 c 0,0 -0.1,0 -0.1,0.1 v 3.5 c 0,0 0,0.1 0.1,0.1 h 4.7 z"
   id="path260" />&#10;</g>&#10;<g
   id="Disegno_31-2"
   transform="matrix(-1.3308196,0,0,-1.3308196,234.7406,95.433071)">&#10;	<path
   class="st2"
   d="m 20.2,54.9 c 0,0 0.1,0 0,0 l 0.1,-3.5 c 0,0 0,-0.1 -0.1,-0.1 h -4.7 c 0,0 -0.1,0 -0.1,0.1 v 3.5 c 0,0 0,0.1 0.1,0.1 z"
   id="path261" />&#10;</g>&#10;<g
   id="Disegno_31-3"
   transform="matrix(-1.3308196,0,0,-1.3308196,234.7406,95.433071)">&#10;	<path
   class="st2"
   d="m 27.6,59.2 c 0,0 0,0 0,0 l 0.1,-3.5 c 0,0 0,-0.1 -0.1,-0.1 h -4.7 c 0,0 -0.1,0 -0.1,0.1 v 3.5 c 0,0 0,0.1 0.1,0.1 h 4.7 z"
   id="path262" />&#10;</g>&#10;<g
   id="Disegno_31-4"
   transform="matrix(-1.3308196,0,0,-1.3308196,234.7406,95.433071)">&#10;	<path
   class="st2"
   d="m 27.6,54.9 c 0,0 0,0 0,0 l 0.1,-3.5 c 0,0 0,-0.1 -0.1,-0.1 h -4.7 c 0,0 -0.1,0 -0.1,0.1 v 3.5 c 0,0 0,0.1 0.1,0.1 z"
   id="path263" />&#10;</g>&#10;<g
   id="Disegno_31-5"
   transform="matrix(-1.3308196,0,0,-1.3308196,234.7406,95.433071)">&#10;	<path
   class="st2"
   d="m 20.2,19.8 c 0,0 0.1,0 0,0 l 0.1,-3.5 c 0,0 0,-0.1 -0.1,-0.1 h -4.7 c 0,0 -0.1,0 -0.1,0.1 v 3.5 c 0,0 0,0.1 0.1,0.1 h 4.7 z"
   id="path264" />&#10;</g>&#10;<g
   id="Disegno_31-6"
   transform="matrix(-1.3308196,0,0,-1.3308196,234.7406,95.433071)">&#10;	<path
   class="st2"
   d="m 20.2,15.5 c 0,0 0.1,0 0,0 L 20.3,12 c 0,0 0,-0.1 -0.1,-0.1 h -4.7 c 0,0 -0.1,0 -0.1,0.1 v 3.5 c 0,0 0,0.1 0.1,0.1 h 4.7 z"
   id="path265" />&#10;</g>&#10;<g
   id="Disegno_31-7"
   transform="matrix(-1.3308196,0,0,-1.3308196,234.7406,95.433071)">&#10;	<path
   class="st2"
   d="m 27.6,19.8 c 0,0 0,0 0,0 l 0.1,-3.5 c 0,0 0,-0.1 -0.1,-0.1 h -4.7 c 0,0 -0.1,0 -0.1,0.1 v 3.5 c 0,0 0,0.1 0.1,0.1 h 4.7 z"
   id="path266" />&#10;</g>&#10;<g
   id="Disegno_31-8"
   transform="matrix(-1.3308196,0,0,-1.3308196,234.7406,95.433071)">&#10;	<path
   class="st2"
   d="m 27.6,15.5 c 0,0 0,0 0,0 L 27.7,12 c 0,0 0,-0.1 -0.1,-0.1 h -4.7 c 0,0 -0.1,0 -0.1,0.1 v 3.5 c 0,0 0,0.1 0.1,0.1 h 4.7 z"
   id="path267" />&#10;</g>&#10;<g
   id="pin-2"
   transform="matrix(-1.3308196,0,0,-1.3308196,234.7406,95.433071)">&#10;	<path
   class="st4"
   d="M 115,10.2 V 3 h -7.2 v 7.2 z"
   id="path268" />&#10;	<rect
   x="100.6"
   y="3"
   class="st4"
   width="7.1999998"
   height="7.1999998"
   id="rect268" />&#10;	<path
   class="st4"
   d="M 100.6,10.2 V 3 h -7.2 v 7.2 z"
   id="path269" />&#10;	<path
   class="st4"
   d="M 93.4,10.2 V 3 h -7.2 v 7.2 z"
   id="path270" />&#10;	<path
   class="st4"
   d="M 86.2,10.2 V 3 H 79 v 7.2 z"
   id="path271" />&#10;	<path
   class="st4"
   d="M 115,10.2 V 3 h -7.2 v 7.2 z"
   id="path272" />&#10;	<path
   class="st4"
   d="M 71.8,10.2 V 3 h -7.2 v 7.2 z"
   id="path273" />&#10;	<path
   class="st4"
   d="M 79,10.2 V 3 h -7.2 v 7.2 z"
   id="path274" />&#10;	<path
   class="st4"
   d="M 64.6,10.2 V 3 h -7.2 v 7.2 z"
   id="path275" />&#10;	<path
   class="st4"
   d="M 50.2,10.2 V 3 H 43 v 7.2 z"
   id="path276" />&#10;	<path
   class="st4"
   d="M 57.4,10.2 V 3 h -7.2 v 7.2 z"
   id="path277" />&#10;	<rect
   x="100.6"
   y="3"
   class="st5"
   width="7.1999998"
   height="7.1999998"
   id="rect277" />&#10;	<path
   class="st5"
   d="M 100.6,10.2 V 3 h -7.2 v 7.2 z"
   id="path278" />&#10;	<path
   class="st5"
   d="M 93.4,10.2 V 3 h -7.2 v 7.2 z"
   id="path279" />&#10;	<path
   class="st5"
   d="M 86.2,10.2 V 3 H 79 v 7.2 z"
   id="path280" />&#10;	<path
   class="st5"
   d="M 115,10.2 V 3 h -7.2 v 7.2 z"
   id="path281" />&#10;	<path
   class="st5"
   d="M 71.8,10.2 V 3 h -7.2 v 7.2 z"
   id="path282" />&#10;	<path
   class="st5"
   d="M 79,10.2 V 3 h -7.2 v 7.2 z"
   id="path283" />&#10;	<path
   class="st5"
   d="M 64.6,10.2 V 3 h -7.2 v 7.2 z"
   id="path284" />&#10;	<path
   class="st5"
   d="M 50.2,10.2 V 3 H 43 v 7.2 z"
   id="path285" />&#10;	<path
   class="st5"
   d="M 57.4,10.2 V 3 h -7.2 v 7.2 z"
   id="path286" />&#10;	<rect
   x="100.6"
   y="3"
   class="st4"
   width="7.1999998"
   height="7.1999998"
   id="rect286" />&#10;	<path
   class="st4"
   d="M 100.6,10.2 V 3 h -7.2 v 7.2 z"
   id="path287" />&#10;	<path
   class="st4"
   d="M 93.4,10.2 V 3 h -7.2 v 7.2 z"
   id="path288" />&#10;	<path
   class="st4"
   d="M 86.2,10.2 V 3 H 79 v 7.2 z"
   id="path289" />&#10;	<path
   class="st4"
   d="M 115,10.2 V 3 h -7.2 v 7.2 z"
   id="path290" />&#10;	<path
   class="st4"
   d="M 71.8,10.2 V 3 h -7.2 v 7.2 z"
   id="path291" />&#10;	<path
   class="st4"
   d="M 79,10.2 V 3 h -7.2 v 7.2 z"
   id="path292" />&#10;	<path
   class="st4"
   d="M 64.6,10.2 V 3 h -7.2 v 7.2 z"
   id="path293" />&#10;	<path
   class="st4"
   d="M 50.2,10.2 V 3 H 43 v 7.2 z"
   id="path294" />&#10;	<path
   class="st4"
   d="M 57.4,10.2 V 3 h -7.2 v 7.2 z"
   id="path295" />&#10;	<polygon
   class="st16"
   points="95.2,8.4 98.8,8.4 98.8,4.8 95.2,4.8 "
   id="polygon295" />&#10;	<polygon
   class="st16"
   points="102.4,8.4 106,8.4 106,4.8 102.4,4.8 "
   id="polygon296" />&#10;	<polygon
   class="st16"
   points="109.6,8.4 113.2,8.4 113.2,4.8 109.6,4.8 "
   id="polygon297" />&#10;	<polygon
   class="st16"
   points="66.4,8.4 70,8.4 70,4.8 66.4,4.8 "
   id="polygon298" />&#10;	<polygon
   class="st16"
   points="48.4,8.4 48.4,4.8 44.8,4.8 44.8,8.4 "
   id="polygon299" />&#10;	<polygon
   class="st16"
   points="62.8,8.4 62.8,4.8 59.2,4.8 59.2,8.4 "
   id="polygon300" />&#10;	<polygon
   class="st16"
   points="77.2,8.4 77.2,4.8 73.6,4.8 73.6,8.4 "
   id="polygon301" />&#10;	<polygon
   class="st16"
   points="84.4,8.4 84.4,4.8 80.8,4.8 80.8,8.4 "
   id="polygon302" />&#10;	<polygon
   class="st16"
   points="91.6,8.4 91.6,4.8 88,4.8 88,8.4 "
   id="polygon303" />&#10;	<polygon
   class="st16"
   points="55.6,8.4 55.6,4.8 52,4.8 52,8.4 "
   id="polygon304" />&#10;	<rect
   x="28.6"
   y="3"
   class="st4"
   width="7.1999998"
   height="7.1999998"
   id="rect304" />&#10;	<path
   class="st4"
   d="M 28.6,10.2 V 3 h -7.2 v 7.2 z"
   id="path304" />&#10;	<path
   class="st4"
   d="M 21.4,10.2 V 3 h -7.2 v 7.2 z"
   id="path305" />&#10;	<path
   class="st4"
   d="M 43,10.2 V 3 h -7.2 v 7.2 z"
   id="path306" />&#10;	<rect
   x="28.6"
   y="3"
   class="st5"
   width="7.1999998"
   height="7.1999998"
   id="rect306" />&#10;	<path
   class="st5"
   d="M 28.6,10.2 V 3 h -7.2 v 7.2 z"
   id="path307" />&#10;	<path
   class="st5"
   d="M 21.4,10.2 V 3 h -7.2 v 7.2 z"
   id="path308" />&#10;	<path
   class="st5"
   d="M 43,10.2 V 3 h -7.2 v 7.2 z"
   id="path309" />&#10;	<rect
   x="28.6"
   y="3"
   class="st4"
   width="7.1999998"
   height="7.1999998"
   id="rect309" />&#10;	<path
   class="st4"
   d="M 28.6,10.2 V 3 h -7.2 v 7.2 z"
   id="path310" />&#10;	<path
   class="st4"
   d="M 21.4,10.2 V 3 h -7.2 v 7.2 z"
   id="path311" />&#10;	<path
   class="st4"
   d="M 43,10.2 V 3 h -7.2 v 7.2 z"
   id="path312" />&#10;	<polygon
   class="st16"
   points="23.2,8.4 26.8,8.4 26.8,4.8 23.2,4.8 "
   id="polygon312" />&#10;	<polygon
   class="st16"
   points="30.4,8.4 34,8.4 34,4.8 30.4,4.8 "
   id="polygon313" />&#10;	<polygon
   class="st16"
   points="37.6,8.4 41.2,8.4 41.2,4.8 37.6,4.8 "
   id="polygon314" />&#10;	<polygon
   class="st16"
   points="19.6,8.4 19.6,4.8 16,4.8 16,8.4 "
   id="polygon315" />&#10;</g>&#10;</svg>
