<?xml version="1.0" encoding="UTF-8" standalone="no"?>
<!-- Generator: Adobe Illustrator 25.0.1, SVG Export Plug-In . SVG Version: 6.00 Build 0)  -->

<svg
   version="1.1"
   id="Layer_1"
   x="0px"
   y="0px"
   viewBox="0 0 259.19171 95.996928"
   xml:space="preserve"
   sodipodi:docname="MKR_GSM_1400_breadboard.svg"
   inkscape:version="1.3 (0e150ed6c4, 2023-07-21)"
   width="2.7in"
   height="1in"
   xmlns:inkscape="http://www.inkscape.org/namespaces/inkscape"
   xmlns:sodipodi="http://sodipodi.sourceforge.net/DTD/sodipodi-0.dtd"
   xmlns:xlink="http://www.w3.org/1999/xlink"
   xmlns="http://www.w3.org/2000/svg"
   xmlns:svg="http://www.w3.org/2000/svg"><defs
   id="defs512" /><sodipodi:namedview
   id="namedview512"
   pagecolor="#ffffff"
   bordercolor="#000000"
   borderopacity="0.25"
   inkscape:showpageshadow="2"
   inkscape:pageopacity="0.0"
   inkscape:pagecheckerboard="0"
   inkscape:deskcolor="#d1d1d1"
   inkscape:zoom="4.935656"
   inkscape:cx="129.97259"
   inkscape:cy="46.295771"
   inkscape:window-width="1920"
   inkscape:window-height="1017"
   inkscape:window-x="-8"
   inkscape:window-y="-8"
   inkscape:window-maximized="1"
   inkscape:current-layer="Layer_1"
   inkscape:document-units="mm"
   showgrid="true"><inkscape:grid
     id="grid1"
     units="mm"
     originx="0"
     originy="0"
     spacingx="9.5999999"
     spacingy="9.5999998"
     empcolor="#0099e5"
     empopacity="0.30196078"
     color="#0099e5"
     opacity="0.14901961"
     empspacing="10"
     dotted="false"
     gridanglex="30"
     gridanglez="30"
     visible="true" /></sodipodi:namedview>&#10;<style
   type="text/css"
   id="style1">&#10;	.st0{fill:#017481;}&#10;	.st1{fill:none;stroke:#000000;stroke-width:7.330000e-03;stroke-linecap:round;stroke-linejoin:round;}&#10;	.st2{fill:none;stroke:#AFD3D8;stroke-width:0.3712;stroke-linecap:round;stroke-linejoin:round;}&#10;	.st3{fill:#80B9C0;}&#10;	.st4{fill:#8B8F90;}&#10;	.st5{fill:#8A7867;}&#10;	.st6{fill:#9DA0A1;}&#10;	.st7{fill:#8F7F6E;}&#10;	.st8{fill:#929596;}&#10;	.st9{clip-path:url(#SVGID_2_);}&#10;	.st10{fill:#E5540F;}&#10;	.st11{fill:#C2C5C6;}&#10;	.st12{fill:#FFFFFF;}&#10;	.st13{opacity:0.1;}&#10;	.st14{clip-path:url(#SVGID_4_);}&#10;	.st15{clip-path:url(#SVGID_6_);}&#10;	.st16{clip-path:url(#SVGID_8_);}&#10;	.st17{fill:#B8B9BA;}&#10;	.st18{fill:#181E22;}&#10;	.st19{fill:#1A9F85;}&#10;	.st20{fill:#EAA800;}&#10;	.st21{fill:#ADB0B1;}&#10;	.st22{fill:#A19284;}&#10;</style>&#10;<path
   class="st0"
   d="M 250.35882,1.1420007 H 11.582221 c -4.6610054,0 -8.5229799,3.8619703 -8.5229799,8.5229685 V 87.037547 c 0,4.660999 3.8619745,8.52297 8.5229799,8.52297 0,0 0,0 0,0 H 250.35882 c 4.52783,-0.133171 8.12347,-3.995144 7.99028,-8.52297 0,0 0,0 0,0 V 9.6649692 c 0.13319,-4.5278269 -3.46245,-8.3897973 -7.99028,-8.5229685 0,0 0,0 0,0 M 11.582221,91.565373 c -2.5302604,0 -4.5278329,-1.997569 -4.5278329,-4.527826 0,-2.530257 1.9975725,-4.527827 4.5278329,-4.527827 2.53026,0 4.527833,1.99757 4.527833,4.527827 0,0 0,0 0,0 0.133172,2.530257 -1.997573,4.527826 -4.527833,4.527826 0,0 0,0 0,0 m 0,-77.372576 c -2.5302604,0 -4.5278329,-1.997572 -4.5278329,-4.5278278 0,-2.5302562 1.9975725,-4.5278269 4.5278329,-4.5278269 2.53026,0 4.527833,1.9975707 4.527833,4.5278269 0,0 0,0 0,0 0.133172,2.5302558 -1.997573,4.5278278 -4.527833,4.5278278 M 226.78745,91.565373 c -2.53026,0 -4.52782,-1.997569 -4.52782,-4.527826 0,-2.530257 1.99756,-4.527827 4.52782,-4.527827 2.53026,0 4.52784,1.99757 4.52784,4.527827 0,0 0,0 0,0 0,2.530257 -1.99758,4.527826 -4.52784,4.527826 v 0 m 0,-77.372576 c -2.53026,0 -4.52782,-1.997572 -4.52782,-4.5278278 0,-2.5302562 1.99756,-4.5278269 4.52782,-4.5278269 2.53026,0 4.52784,1.9975707 4.52784,4.5278269 0,0 0,0 0,0 0,2.5302558 -1.99758,4.5278278 -4.52784,4.5278278"
   id="path1"
   style="stroke-width:1.33171" />&#10;<polyline
   class="st1"
   points="185.3,0 185.3,0 185.3,0 "
   id="polyline1"
   transform="matrix(-1.3317155,0,0,-1.3317137,258.3491,95.560507)" />&#10;<path
   class="st1"
   d="m 250.35882,95.560517 c 0,0 0,0 0,0 0,0 0,0 0,0"
   id="path2" />&#10;<path
   class="st1"
   d="m 3.1924125,9.6649692 c 0,0 0,0 0,0 0,0 0,0 0,0"
   id="path3" />&#10;<path
   class="st1"
   d="m 3.1924125,87.037547 v 0 c 0,0 0,0 0,0 0,0 0,0 0,0"
   id="path4" />&#10;<path
   class="st1"
   d="m 250.35882,1.1420007 c 0,0 0,0 0,0 0,0 0,0 0,0 0,0 0,0 0,0"
   id="path5" />&#10;<polyline
   class="st1"
   points="185.3,70.9 185.3,70.9 185.3,70.9 "
   id="polyline5"
   transform="matrix(-1.3317155,0,0,-1.3317137,258.3491,95.560507)" />&#10;<path
   class="st1"
   d="m 3.1924125,87.037547 c 0,0 0,0 0,0 0,0 0,0 0,0"
   id="path6" />&#10;<path
   class="st1"
   d="m 11.582221,95.560517 c 0,0 0.133172,0 0,0 v 0"
   id="path7" />&#10;<path
   class="st1"
   d="m 11.582221,1.1420007 v 0 c 0.133172,0 0,0 0,0 0,0 0,0 0,0"
   id="path8" />&#10;<path
   class="st1"
   d="m 3.1924125,9.6649692 v 0 c 0,0 0,0 0,0"
   id="path9" />&#10;<polyline
   class="st1"
   points="6,0 6,0 6,0 "
   id="polyline9"
   transform="matrix(-1.3317155,0,0,-1.3317137,258.3491,95.560507)" />&#10;<path
   class="st1"
   d="m 258.3491,87.037547 c 0,0 0,0 0,0 0,0 0,0 0,0 0,0 0,0 0,0"
   id="path10" />&#10;<polyline
   class="st1"
   points="0,64.5 0,64.5 0,64.5 "
   id="polyline10"
   transform="matrix(-1.3317155,0,0,-1.3317137,258.3491,95.560507)" />&#10;<polyline
   class="st1"
   points="6,70.9 6,70.9 6,70.9 "
   id="polyline11"
   transform="matrix(-1.3317155,0,0,-1.3317137,258.3491,95.560507)" />&#10;<polyline
   class="st1"
   points="0,64.5 0,64.5 0,64.5 "
   id="polyline12"
   transform="matrix(-1.3317155,0,0,-1.3317137,258.3491,95.560507)" />&#10;<polyline
   class="st1"
   points="0,6.4 0,6.4 0,6.4 "
   id="polyline13"
   transform="matrix(-1.3317155,0,0,-1.3317137,258.3491,95.560507)" />&#10;<path
   class="st2"
   d="m 229.98357,74.78578 c 0,-0.266343 -0.13317,-0.399514 -0.39951,-0.399514 -0.26635,0 -0.39952,0.133171 -0.39952,0.399514 0,0.266342 0.13317,0.399514 0.39952,0.399514 0,0 0,0 0,0 0.26634,0 0.39951,-0.133172 0.39951,-0.399514 z"
   id="path13" />&#10;<path
   class="st2"
   d="m 256.48471,19.919166 c 0,-0.266343 -0.13316,-0.399514 -0.39951,-0.399514 -0.26635,0 -0.39952,0.133171 -0.39952,0.399514 0,0.266344 0.13317,0.399515 0.39952,0.399515 0,0 0,0 0,0 0.13316,-0.133171 0.39951,-0.266343 0.39951,-0.399515 z"
   id="path14" />&#10;<path
   class="st2"
   d="m 251.69055,19.919166 c 0,-0.266343 -0.13319,-0.399514 -0.39952,-0.399514 -0.26636,0 -0.39951,0.133171 -0.39951,0.399514 0,0.266344 0.13315,0.399515 0.39951,0.399515 0,0 0,0 0,0 0.13316,-0.133171 0.39952,-0.266343 0.39952,-0.399515 z"
   id="path15" />&#10;<path
   class="st2"
   d="m 246.89636,19.919166 c 0,-0.266343 -0.13317,-0.399514 -0.39951,-0.399514 -0.26634,0 -0.39951,0.133171 -0.39951,0.399514 0,0.266344 0.13317,0.399515 0.39951,0.399515 0,0 0,0 0,0 0.13317,-0.133171 0.39951,-0.266343 0.39951,-0.399515 z"
   id="path16" />&#10;<path
   class="st2"
   d="m 237.308,19.919166 c 0,-0.266343 -0.13315,-0.399514 -0.39951,-0.399514 -0.26634,0 -0.39952,0.133171 -0.39952,0.399514 0,0.266344 0.13318,0.399515 0.39952,0.399515 0,0 0,0 0,0 0.13316,-0.133171 0.39951,-0.266343 0.39951,-0.399515 z"
   id="path17" />&#10;<path
   class="st2"
   d="m 242.10218,19.919166 c 0,-0.266343 -0.13317,-0.399514 -0.39952,-0.399514 -0.26632,0 -0.39951,0.133171 -0.39951,0.399514 0,0.266344 0.13319,0.399515 0.39951,0.399515 0,0 0,0 0,0 0.13319,-0.133171 0.39952,-0.266343 0.39952,-0.399515 z"
   id="path18" />&#10;<path
   class="st2"
   d="m 232.51385,19.919166 c 0,-0.266343 -0.13319,-0.399514 -0.39953,-0.399514 -0.26635,0 -0.39951,0.133171 -0.39951,0.399514 0,0.266344 0.13316,0.399515 0.39951,0.399515 0,0 0,0 0,0 0.13317,-0.133171 0.39953,-0.266343 0.39953,-0.399515 z"
   id="path19" />&#10;<path
   class="st2"
   d="m 232.51385,24.713336 c 0,-0.266341 -0.13319,-0.399513 -0.39953,-0.399513 -0.26635,0 -0.39951,0.133172 -0.39951,0.399513 0,0.266342 0.13316,0.399514 0.39951,0.399514 0,0 0,0 0,0 0.13317,-0.133172 0.39953,-0.266343 0.39953,-0.399514 z"
   id="path20" />&#10;<path
   class="st2"
   d="m 232.51385,29.507505 c 0,-0.266342 -0.13319,-0.399514 -0.39953,-0.399514 -0.26635,0 -0.39951,0.133172 -0.39951,0.399514 0,0.266345 0.13316,0.399516 0.39951,0.399516 0,0 0,0 0,0 0.13317,-0.133171 0.39953,-0.266344 0.39953,-0.399516 z"
   id="path21" />&#10;<path
   class="st2"
   d="m 232.51385,34.301676 c 0,-0.266343 -0.13319,-0.399515 -0.39953,-0.399515 -0.26635,0 -0.39951,0.133172 -0.39951,0.399515 0,0.266343 0.13316,0.399514 0.39951,0.399514 v 0 c 0.13317,-0.133171 0.39953,-0.266343 0.39953,-0.399514 z"
   id="path22" />&#10;<path
   class="st2"
   d="m 237.308,29.507505 c 0,-0.266342 -0.13315,-0.399514 -0.39951,-0.399514 -0.26634,0 -0.39952,0.133172 -0.39952,0.399514 0,0.266345 0.13318,0.399516 0.39952,0.399516 0,0 0,0 0,0 0.13316,-0.133171 0.39951,-0.266344 0.39951,-0.399516 z"
   id="path23" />&#10;<path
   class="st2"
   d="m 237.308,24.713336 c 0,-0.266341 -0.13315,-0.399513 -0.39951,-0.399513 -0.26634,0 -0.39952,0.133172 -0.39952,0.399513 0,0.266342 0.13318,0.399514 0.39952,0.399514 0,0 0,0 0,0 0.13316,-0.133172 0.39951,-0.266343 0.39951,-0.399514 z"
   id="path24" />&#10;<path
   class="st2"
   d="m 242.10218,24.713336 c 0,-0.266341 -0.13317,-0.399513 -0.39952,-0.399513 -0.26632,0 -0.39951,0.133172 -0.39951,0.399513 0,0.266342 0.13319,0.399514 0.39951,0.399514 0,0 0,0 0,0 0.13319,-0.133172 0.39952,-0.266343 0.39952,-0.399514 z"
   id="path25" />&#10;<path
   class="st2"
   d="m 246.89636,24.713336 c 0,-0.266341 -0.13317,-0.399513 -0.39951,-0.399513 -0.26634,0 -0.39951,0.133172 -0.39951,0.399513 0,0.266342 0.13317,0.399514 0.39951,0.399514 0,0 0,0 0,0 0.13317,-0.133172 0.39951,-0.266343 0.39951,-0.399514 z"
   id="path26" />&#10;<path
   class="st2"
   d="m 251.69055,24.713336 c 0,-0.266341 -0.13319,-0.399513 -0.39952,-0.399513 -0.26636,0 -0.39951,0.133172 -0.39951,0.399513 0,0.266342 0.13315,0.399514 0.39951,0.399514 0,0 0,0 0,0 0.13316,-0.133172 0.39952,-0.266343 0.39952,-0.399514 z"
   id="path27" />&#10;<path
   class="st2"
   d="m 256.48471,24.713336 c 0,-0.266341 -0.13316,-0.399513 -0.39951,-0.399513 -0.26635,0 -0.39952,0.133172 -0.39952,0.399513 0,0.133171 0.13317,0.266342 0.39952,0.266342 0,0 0,0 0,0 0.13316,0 0.39951,-0.133171 0.39951,-0.266342 z"
   id="path28" />&#10;<path
   class="st2"
   d="m 256.48471,29.507505 c 0,-0.266342 -0.13316,-0.399514 -0.39951,-0.399514 -0.26635,0 -0.39952,0.133172 -0.39952,0.266343 0,0.266343 0.13317,0.399516 0.39952,0.399516 0,0 0,0 0,0 0.13316,0 0.39951,-0.133173 0.39951,-0.266345 z"
   id="path29" />&#10;<path
   class="st2"
   d="m 251.69055,29.507505 c 0,-0.266342 -0.13319,-0.399514 -0.39952,-0.399514 -0.26636,0 -0.39951,0.133172 -0.39951,0.399514 0,0.266345 0.13315,0.399516 0.39951,0.399516 0,0 0,0 0,0 0.13316,-0.133171 0.39952,-0.266344 0.39952,-0.399516 z"
   id="path30" />&#10;<path
   class="st2"
   d="m 256.48471,34.301676 c 0,-0.266343 -0.13316,-0.399515 -0.39951,-0.399515 -0.26635,0 -0.39952,0.133172 -0.39952,0.399515 0,0.266343 0.13317,0.399514 0.39952,0.399514 v 0 c 0.13316,-0.133171 0.39951,-0.266343 0.39951,-0.399514 z"
   id="path31" />&#10;<path
   class="st2"
   d="m 256.48471,39.095845 c 0,-0.266342 -0.13316,-0.399514 -0.39951,-0.399514 -0.26635,0 -0.39952,0.133172 -0.39952,0.399514 0,0.266343 0.13317,0.399514 0.39952,0.399514 0.13316,-0.133171 0.39951,-0.266343 0.39951,-0.399514 z"
   id="path32" />&#10;<path
   class="st2"
   d="m 256.48471,43.890016 c 0,-0.266344 -0.13316,-0.399516 -0.39951,-0.399516 -0.26635,0 -0.39952,0.133172 -0.39952,0.399516 0,0.266342 0.13317,0.399513 0.39952,0.399513 0,0 0,0 0,0 0.13316,-0.133171 0.39951,-0.266343 0.39951,-0.399513 z"
   id="path33" />&#10;<path
   class="st2"
   d="m 256.48471,48.684184 c 0,-0.266341 -0.13316,-0.399513 -0.39951,-0.399513 -0.26635,0 -0.39952,0.133172 -0.39952,0.399513 0,0.133171 0.13317,0.266342 0.39952,0.266342 0,0 0,0 0,0 0.13316,0 0.39951,-0.133171 0.39951,-0.266342 z"
   id="path34" />&#10;<path
   class="st2"
   d="m 256.48471,53.47836 c 0,-0.266345 -0.13316,-0.399515 -0.39951,-0.399515 -0.26635,0 -0.39952,0.13317 -0.39952,0.266342 0,0.266344 0.13317,0.399516 0.39952,0.399516 0,0 0,0 0,0 0.13316,0 0.39951,-0.133172 0.39951,-0.266343 z"
   id="path35" />&#10;<path
   class="st2"
   d="m 251.69055,53.47836 c 0,-0.266345 -0.13319,-0.399515 -0.39952,-0.399515 -0.26636,0 -0.39951,0.13317 -0.39951,0.399515 0,0.266343 0.13315,0.399514 0.39951,0.399514 0,0 0,0 0,0 0.13316,-0.133171 0.39952,-0.266343 0.39952,-0.399514 z"
   id="path36" />&#10;<path
   class="st2"
   d="m 246.89636,53.47836 c 0,-0.266345 -0.13317,-0.399515 -0.39951,-0.399515 -0.26634,0 -0.39951,0.13317 -0.39951,0.399515 0,0.266343 0.13317,0.399514 0.39951,0.399514 0,0 0,0 0,0 0.13317,-0.133171 0.39951,-0.266343 0.39951,-0.399514 z"
   id="path37" />&#10;<path
   class="st2"
   d="m 237.308,53.47836 c 0,-0.266345 -0.13315,-0.399515 -0.39951,-0.399515 -0.26634,0 -0.39952,0.13317 -0.39952,0.399515 0,0.266343 0.13318,0.399514 0.39952,0.399514 0,0 0,0 0,0 0.13316,-0.133171 0.39951,-0.266343 0.39951,-0.399514 z"
   id="path38" />&#10;<path
   class="st2"
   d="m 242.10218,53.47836 c 0,-0.266345 -0.13317,-0.399515 -0.39952,-0.399515 -0.26632,0 -0.39951,0.13317 -0.39951,0.399515 0,0.266343 0.13319,0.399514 0.39951,0.399514 0,0 0,0 0,0 0.13319,-0.133171 0.39952,-0.266343 0.39952,-0.399514 z"
   id="path39" />&#10;<path
   class="st2"
   d="m 237.308,58.272529 c 0,-0.266342 -0.13315,-0.399514 -0.39951,-0.399514 -0.26634,0 -0.39952,0.133172 -0.39952,0.399514 0,0.266342 0.13318,0.399513 0.39952,0.399513 0,0 0,0 0,0 0.13316,-0.133171 0.39951,-0.266342 0.39951,-0.399513 z"
   id="path40" />&#10;<ellipse
   class="st2"
   cx="-241.70267"
   cy="-58.272518"
   id="circle40"
   transform="scale(-1)"
   rx="0.39951468"
   ry="0.39951411" />&#10;<ellipse
   class="st2"
   cx="-246.49683"
   cy="-58.272518"
   id="circle41"
   transform="scale(-1)"
   rx="0.39951468"
   ry="0.39951411" />&#10;<ellipse
   class="st2"
   cx="-251.291"
   cy="-58.272518"
   id="circle42"
   transform="scale(-1)"
   rx="0.39951468"
   ry="0.39951411" />&#10;<path
   class="st2"
   d="m 256.48471,58.272529 c 0,-0.266342 -0.13316,-0.399514 -0.39951,-0.399514 -0.26635,0 -0.39952,0.133172 -0.39952,0.399514 0,0.266342 0.13317,0.399513 0.39952,0.399513 v 0 c 0.13316,-0.133171 0.39951,-0.266342 0.39951,-0.399513 z"
   id="path42" />&#10;<path
   class="st2"
   d="m 251.69055,48.684184 c 0,-0.266341 -0.13319,-0.399513 -0.39952,-0.399513 -0.26636,0 -0.39951,0.133172 -0.39951,0.399513 0,0.266342 0.13315,0.399514 0.39951,0.399514 0,0 0,0 0,0 0.13316,-0.133172 0.39952,-0.266343 0.39952,-0.399514 z"
   id="path43" />&#10;<path
   class="st2"
   d="m 246.89636,48.684184 c 0,-0.266341 -0.13317,-0.399513 -0.39951,-0.399513 -0.26634,0 -0.39951,0.133172 -0.39951,0.399513 0,0.266342 0.13317,0.399514 0.39951,0.399514 0,0 0,0 0,0 0.13317,-0.133172 0.39951,-0.266343 0.39951,-0.399514 z"
   id="path44" />&#10;<path
   class="st2"
   d="m 251.69055,43.890016 c 0,-0.266344 -0.13319,-0.399516 -0.39952,-0.399516 -0.26636,0 -0.39951,0.133172 -0.39951,0.399516 0,0.266342 0.13315,0.399513 0.39951,0.399513 0,0 0,0 0,0 0.13316,-0.133171 0.39952,-0.266343 0.39952,-0.399513 z"
   id="path45" />&#10;<path
   class="st2"
   d="m 237.308,43.890016 c 0,-0.266344 -0.13315,-0.399516 -0.39951,-0.399516 -0.26634,0 -0.39952,0.133172 -0.39952,0.399516 0,0.266342 0.13318,0.399513 0.39952,0.399513 0,0 0,0 0,0 0.13316,-0.133171 0.39951,-0.266343 0.39951,-0.399513 z"
   id="path46" />&#10;<path
   class="st2"
   d="m 77.502139,42.691473 c 0,-0.266344 -0.133172,-0.399515 -0.399515,-0.399515 -0.266342,0 -0.399514,0.133171 -0.399514,0.399515 0,0.266342 0.133172,0.399514 0.399514,0.399514 0.266343,0 0.399515,-0.133172 0.399515,-0.399514 z"
   id="path47" />&#10;<path
   class="st3"
   d="m 18.107627,30.706048 v -6.125883 c 0,0 0,0 0,0 v 0 h 4.26149 c 0,0 0,0 0,0 v 0 6.125883 c 0,0 0,0 0,0 v 0 h -4.26149 c 0.133172,0.133172 0,0.133172 0,0 z"
   id="path48"
   style="stroke-width:1.33171" />&#10;<path
   class="st3"
   d="m 25.698406,30.706048 v -6.125883 c 0,0 0,0 0,0 v 0 h 4.261491 c 0,0 0,0 0,0 v 0 6.125883 c 0,0 0,0 0,0 v 0 h -4.261491 c 0,0.133172 0,0.133172 0,0 z"
   id="path49"
   style="stroke-width:1.33171" />&#10;<path
   class="st3"
   d="m 54.197115,38.696331 v 4.128313 c 0,0 0,0 0,0 h 4.661005 c 0,0 0,0 0,0 v -4.128313 c 0,0 0,0 0,0 0,0 0,0 0,0 h -4.661005 c 0,0 0,0 0,0"
   id="path50"
   style="stroke-width:1.33171" />&#10;<path
   class="st3"
   d="m 54.197115,54.943245 v -4.128318 c 0,0 0,0 0,0 h 4.661005 c 0,0 0,0 0,0 v 0 4.128318 c 0,0 0,0 0,0 v 0 z"
   id="path51"
   style="stroke-width:1.33171" />&#10;<path
   class="st3"
   d="m 53.531258,14.725483 v 4.660998 c 0,0 0,0 0,0 h 4.128318 c 0,0 0,0 0,0 0,0 0,0 0,0 v -4.660998 c 0,0 0,0 0,0 0,0 0,0 0,0 h -4.128318 c 0,-0.133171 0,-0.133171 0,0"
   id="path52"
   style="stroke-width:1.33171" />&#10;<path
   class="st3"
   d="m 65.649869,14.725483 v 4.660998 c 0,0 0,0 0,0 h 4.12832 c 0,0 0,0 0,0 v -4.660998 c 0,0 0,0 0,0 h -4.12832 c 0,-0.133171 0,-0.133171 0,0"
   id="path53"
   style="stroke-width:1.33171" />&#10;<path
   class="st3"
   d="M 46.739507,60.802784 V 56.5413 c 0,0 0,0 0,0 v 0 h 4.394663 c 0,0 0,0 0,0 v 0 4.261484 c 0,0 0,0 0,0 v 0 h -4.394663 c 0,0.133173 0,0.133173 0,0 z"
   id="path54"
   style="stroke-width:1.33171" />&#10;<path
   class="st3"
   d="m 46.739507,54.810074 v -4.261489 c 0,0 0,0 0,0 h 4.394663 c 0,0 0,0 0,0 v 0 4.261489 c 0,0 0,0 0,0 v 0 z"
   id="path55"
   style="stroke-width:1.33171" />&#10;<path
   class="st3"
   d="m 90.020266,82.776063 v 0 c 0,0 0,0 0,0 0,0 0,0 0,0 v 0 0 c 0,0.133171 0,0.133171 0,0 0,0 0,0 0,0 0,0 0,0 0,0"
   id="path56"
   style="stroke-width:1.33171" />&#10;<path
   class="st3"
   d="m 83.361688,82.776063 c 0,0 0,0 0,0 0,0 0,0.133171 0,0 0,0.133171 0,0.133171 0,0 v 0 0 c 0,0 0,0 0,0"
   id="path57"
   style="stroke-width:1.33171" />&#10;<path
   class="st4"
   d="m 117.0541,68.92624 v -4.79417 c 0,0 0,-0.133173 0.13315,-0.133173 v 0 h 7.85714 c 0,0 0.13317,0 0.13317,0.133173 v 0 4.79417 c 0,0 0,0.133171 -0.13317,0.133171 v 0 z"
   id="path58"
   style="stroke-width:1.33171" />&#10;<path
   class="st4"
   d="m 117.0541,78.381407 v -4.79417 c 0,0 0,-0.133171 0.13315,-0.133171 v 0 h 7.85714 c 0,0 0.13317,0 0.13317,0.133171 v 0 4.79417 c 0,0 0,0.133171 -0.13317,0.133171 v 0 z"
   id="path59"
   style="stroke-width:1.33171" />&#10;<polygon
   class="st3"
   points="101.3,15.4 103.1,13.3 103.1,15.4 "
   id="polygon59"
   transform="matrix(-1.3317155,0,0,-1.3317137,258.3491,95.560507)" />&#10;<rect
   x="-123.84579"
   y="-77.71553"
   class="st5"
   width="5.5932045"
   height="12.384939"
   id="rect59"
   transform="scale(-1)"
   style="stroke-width:1.33171" />&#10;<path
   class="st4"
   d="m 123.31317,66.129639 c 0.13316,0 0.39949,0.266344 0.39949,0.532688 v 9.854681 c 0,0.266342 -0.13317,0.532686 -0.39949,0.532686 h -4.52785 c -0.13316,0 -0.39951,-0.266344 -0.39951,-0.532686 v -9.854681 c 0,-0.266344 0.13315,-0.532688 0.39951,-0.532688 z"
   id="path60"
   style="stroke-width:1.33171" />&#10;<rect
   x="-123.84579"
   y="-65.996468"
   class="st6"
   width="5.5932045"
   height="0.53268546"
   id="rect60"
   transform="scale(-1)"
   style="stroke-width:1.33171" />&#10;<rect
   x="-123.84579"
   y="-77.71553"
   class="st6"
   width="5.5932045"
   height="0.53268546"
   id="rect61"
   transform="scale(-1)"
   style="stroke-width:1.33171" />&#10;<rect
   x="-25.964743"
   y="-30.040188"
   class="st7"
   width="3.7288039"
   height="4.6609979"
   id="rect62"
   transform="scale(-1)"
   style="stroke-width:1.33171" />&#10;<rect
   x="-27.829142"
   y="-30.040188"
   class="st8"
   width="1.9975734"
   height="4.6609979"
   id="rect63"
   transform="scale(-1)"
   style="stroke-width:1.33171" />&#10;<rect
   x="-22.36912"
   y="-30.040188"
   class="st8"
   width="1.9975734"
   height="4.6609979"
   id="rect64"
   transform="scale(-1)"
   style="stroke-width:1.33171" />&#10;<g
   id="g69"
   transform="matrix(-1.3317155,0,0,-1.3317137,258.3491,95.560507)">&#10;	<defs
   id="defs64">&#10;		<rect
   id="SVGID_1_"
   x="156"
   y="27.700001"
   width="2.3"
   height="4.5999999" />&#10;	</defs>&#10;	<clipPath
   id="SVGID_2_">&#10;		<use
   xlink:href="#SVGID_1_"
   style="overflow:visible"
   id="use64" />&#10;	</clipPath>&#10;	<g
   class="st9"
   clip-path="url(#SVGID_2_)"
   id="g68">&#10;		<path
   class="st4"
   d="m 156,28.8 v 2.3 0 c 0,0.6 0.5,1.1 1.2,1.1 0.6,0 1.1,-0.5 1.1,-1.1 v 0 -2.3 c 0,-0.6 -0.5,-1.1 -1.1,-1.1 -0.6,0 -1.2,0.5 -1.2,1.1"
   id="path64" />&#10;		<rect
   x="156"
   y="29.200001"
   width="2.3"
   height="1.7"
   id="rect65" />&#10;		<rect
   x="156"
   y="29.200001"
   class="st0"
   width="2.3"
   height="1.7"
   id="rect66" />&#10;		<rect
   x="156"
   y="29.200001"
   class="st10"
   width="2.3"
   height="1.7"
   id="rect67" />&#10;		<rect
   x="156"
   y="29.200001"
   width="2.3"
   height="1.7"
   id="rect68" />&#10;	</g>&#10;</g>&#10;<rect
   x="-78.167984"
   y="-44.156349"
   class="st4"
   width="2.6634309"
   height="3.1961129"
   id="rect69"
   transform="scale(-1)"
   style="stroke-width:1.33171" />&#10;<rect
   x="-78.167984"
   y="-55.742271"
   class="st4"
   width="2.6634309"
   height="3.0629413"
   id="rect70"
   transform="scale(-1)"
   style="stroke-width:1.33171" />&#10;<rect
   x="-67.381111"
   y="-44.156349"
   class="st4"
   width="2.6634309"
   height="3.1961129"
   id="rect71"
   transform="scale(-1)"
   style="stroke-width:1.33171" />&#10;<rect
   x="-67.381111"
   y="-55.742271"
   class="st4"
   width="2.6634309"
   height="3.0629413"
   id="rect72"
   transform="scale(-1)"
   style="stroke-width:1.33171" />&#10;<rect
   x="-76.703117"
   y="-56.9408"
   class="st11"
   width="10.653724"
   height="17.045935"
   id="rect73"
   transform="scale(-1)"
   style="stroke-width:1.33171" />&#10;<polygon
   class="st0"
   points="142.9,35.6 142.9,35.9 142.8,36.1 142.7,36.4 142.6,36.7 142.4,36.9 142.2,37.1 142,37.3 141.8,37.5 141.6,37.6 141.3,37.8 141.1,37.8 140.8,37.9 140.5,37.9 140.2,37.9 139.9,37.9 139.7,37.8 139.4,37.8 139.1,37.6 138.9,37.5 138.7,37.3 138.5,37.1 138.3,36.9 138.1,36.7 138,36.4 137.9,36.1 137.8,35.9 137.8,35.6 137.8,35.3 137.8,35 137.9,34.7 138,34.5 138.1,34.2 138.2,34 138.4,33.8 138.6,33.5 138.8,33.4 139,33.2 139.3,33.1 139.5,33 139.8,32.9 140.1,32.8 140.4,32.8 140.6,32.8 140.9,32.9 141.2,33 141.5,33.1 141.7,33.2 141.9,33.4 142.1,33.5 142.3,33.8 142.5,34 142.7,34.2 142.8,34.5 142.8,34.7 142.9,35 142.9,35.3 "
   id="polygon73"
   transform="matrix(-1.3317155,0,0,-1.3317137,258.3491,95.560507)" />&#10;<path
   class="st4"
   d="m 55.262488,54.810074 h 2.796603 c 0.799029,0 1.331715,-0.665858 1.331715,-1.331714 v -0.665857 h -5.460033 v 0.665857 c -0.133172,0.665856 0.532686,1.331714 1.331715,1.331714"
   id="path73"
   style="stroke-width:1.33171" />&#10;<path
   class="st4"
   d="m 57.925919,39.229016 h -2.796602 c -0.799031,0 -1.331716,0.665858 -1.331716,1.331714 v 0.665857 h 5.460033 V 40.56073 c 0,-0.799028 -0.532684,-1.331714 -1.331715,-1.331714"
   id="path74"
   style="stroke-width:1.33171" />&#10;<path
   class="st0"
   d="m 53.66443,41.359758 c 0,-0.399513 0.266343,-0.665856 0.665856,-0.665856 h 4.527834 c 0.399514,0 0.665858,0.266343 0.665858,0.665856 v 11.319574 c 0,0.399513 -0.266344,0.665855 -0.665858,0.665855 h -4.527834 c -0.399513,0 -0.665856,-0.266342 -0.665856,-0.665855 z"
   id="path75"
   style="stroke-width:1.33171" />&#10;<path
   class="st10"
   d="m 53.66443,41.359758 c 0,-0.399513 0.266343,-0.665856 0.665856,-0.665856 h 4.527834 c 0.399514,0 0.665858,0.266343 0.665858,0.665856 v 11.319574 c 0,0.399513 -0.266344,0.665855 -0.665858,0.665855 h -4.527834 c -0.399513,0 -0.665856,-0.266342 -0.665856,-0.665855 z"
   id="path76"
   style="stroke-width:1.33171" />&#10;<path
   d="m 53.66443,41.359758 c 0,-0.399513 0.266343,-0.665856 0.665856,-0.665856 h 4.527834 c 0.399514,0 0.665858,0.266343 0.665858,0.665856 v 11.319574 c 0,0.399513 -0.266344,0.665855 -0.665858,0.665855 h -4.527834 c -0.399513,0 -0.665856,-0.266342 -0.665856,-0.665855 z"
   id="path77"
   style="stroke-width:1.33171" />&#10;<path
   class="st4"
   d="m 69.511845,18.454281 v -2.796599 c 0,-0.799027 -0.665857,-1.331715 -1.331715,-1.331715 h -0.665858 v 5.460027 h 0.665858 c 0.665858,0 1.331715,-0.665855 1.331715,-1.331713"
   id="path78"
   style="stroke-width:1.33171" />&#10;<path
   class="st4"
   d="m 53.930773,15.657682 v 2.796599 c 0,0.799029 0.665858,1.331713 1.331715,1.331713 h 0.665858 v -5.460027 h -0.665858 c -0.799029,0 -1.331715,0.532688 -1.331715,1.331715"
   id="path79"
   style="stroke-width:1.33171" />&#10;<path
   class="st0"
   d="m 55.395659,19.25331 v -4.527827 c 0,-0.399516 0.266344,-0.665857 0.665859,-0.665857 h 11.319583 c 0.399514,0 0.665856,0.266341 0.665856,0.665857 v 4.527827 c 0,0.399513 -0.266342,0.665856 -0.665856,0.665856 H 56.061518 c -0.399515,0 -0.665859,-0.266343 -0.665859,-0.665856 z"
   id="path80"
   style="stroke-width:1.33171" />&#10;<path
   class="st10"
   d="m 55.395659,19.25331 v -4.527827 c 0,-0.399516 0.266344,-0.665857 0.665859,-0.665857 h 11.319583 c 0.399514,0 0.665856,0.266341 0.665856,0.665857 v 4.527827 c 0,0.399513 -0.266342,0.665856 -0.665856,0.665856 H 56.061518 c -0.399515,0 -0.665859,-0.266343 -0.665859,-0.665856 z"
   id="path81"
   style="stroke-width:1.33171" />&#10;<path
   d="m 55.395659,19.25331 v -4.527827 c 0,-0.399516 0.266344,-0.665857 0.665859,-0.665857 h 11.319583 c 0.399514,0 0.665856,0.266341 0.665856,0.665857 v 4.527827 c 0,0.399513 -0.266342,0.665856 -0.665856,0.665856 H 56.061518 c -0.399515,0 -0.665859,-0.266343 -0.665859,-0.665856 z"
   id="path82"
   style="stroke-width:1.33171" />&#10;<path
   class="st0"
   d="m 26.763779,15.924026 c 0,-0.266344 0.266343,-0.532688 0.532685,-0.532688 0.266346,0 0.532688,0.266344 0.532688,0.532688 0,0.266342 -0.266342,0.532684 -0.532688,0.532684 0,0 0,0 0,0 -0.266342,0 -0.532685,-0.266342 -0.532685,-0.532684"
   id="path83"
   style="stroke-width:1.33171" />&#10;<g
   id="Disegno_28"
   transform="matrix(-1.3317155,0,0,-1.3317137,258.3491,95.560507)">&#10;	<polygon
   class="st4"
   points="158.6,56.9 159.5,56.9 159.5,54.9 "
   id="polygon83" />&#10;	<polygon
   class="st4"
   points="161.5,56.9 162.3,56.9 162.3,54.9 "
   id="polygon84" />&#10;	<polygon
   class="st4"
   points="164.3,56.9 165.2,56.9 165.2,54.9 "
   id="polygon85" />&#10;	<polygon
   class="st4"
   points="167.1,56.9 168,56.9 168,54.9 "
   id="polygon86" />&#10;	<polygon
   class="st4"
   points="170,56.9 170.8,56.9 170.8,54.9 "
   id="polygon87" />&#10;	<polygon
   class="st4"
   points="158.6,56.9 159.5,54.9 158.6,54.9 "
   id="polygon88" />&#10;	<polygon
   class="st4"
   points="161.5,56.9 162.3,54.9 161.5,54.9 "
   id="polygon89" />&#10;	<polygon
   class="st4"
   points="164.3,56.9 165.2,54.9 164.3,54.9 "
   id="polygon90" />&#10;	<polygon
   class="st4"
   points="167.1,56.9 168,54.9 167.1,54.9 "
   id="polygon91" />&#10;	<polygon
   class="st4"
   points="170,56.9 170.8,54.9 170,54.9 "
   id="polygon92" />&#10;	<rect
   x="154.8"
   y="56.900002"
   class="st12"
   width="19.799999"
   height="12"
   id="rect92" />&#10;	<g
   class="st13"
   id="g95">&#10;		<g
   id="g94">&#10;			<defs
   id="defs92">&#10;				<rect
   id="SVGID_3_"
   x="154.8"
   y="56.799999"
   width="19.799999"
   height="1.9" />&#10;			</defs>&#10;			<clipPath
   id="SVGID_4_">&#10;				<use
   xlink:href="#SVGID_3_"
   style="overflow:visible"
   id="use92" />&#10;			</clipPath>&#10;			<g
   class="st14"
   clip-path="url(#SVGID_4_)"
   id="g93">&#10;				<rect
   x="154.8"
   y="56.799999"
   class="st0"
   width="19.799999"
   height="1.9"
   id="rect93" />&#10;			</g>&#10;		</g>&#10;	</g>&#10;	<g
   class="st13"
   id="g98">&#10;		<g
   id="g97">&#10;			<defs
   id="defs95">&#10;				<rect
   id="SVGID_5_"
   x="154.8"
   y="60.799999"
   width="19.799999"
   height="1.9" />&#10;			</defs>&#10;			<clipPath
   id="SVGID_6_">&#10;				<use
   xlink:href="#SVGID_5_"
   style="overflow:visible"
   id="use95" />&#10;			</clipPath>&#10;			<g
   class="st15"
   clip-path="url(#SVGID_6_)"
   id="g96">&#10;				<rect
   x="154.8"
   y="60.799999"
   class="st0"
   width="19.799999"
   height="1.9"
   id="rect95" />&#10;			</g>&#10;		</g>&#10;	</g>&#10;	<g
   class="st13"
   id="g101">&#10;		<g
   id="g100">&#10;			<defs
   id="defs98">&#10;				<rect
   id="SVGID_7_"
   x="154.8"
   y="64.900002"
   width="19.799999"
   height="1.9" />&#10;			</defs>&#10;			<clipPath
   id="SVGID_8_">&#10;				<use
   xlink:href="#SVGID_7_"
   style="overflow:visible"
   id="use98" />&#10;			</clipPath>&#10;			<g
   class="st16"
   clip-path="url(#SVGID_8_)"
   id="g99">&#10;				<rect
   x="154.8"
   y="64.900002"
   class="st0"
   width="19.799999"
   height="1.9"
   id="rect98" />&#10;			</g>&#10;		</g>&#10;	</g>&#10;</g>&#10;<g
   id="Disegno_27"
   transform="matrix(-1.3317155,0,0,-1.3317137,258.3491,95.560507)">&#10;	<rect
   x="136.8"
   y="1.9"
   class="st12"
   width="22.4"
   height="17"
   id="rect101" />&#10;	<g
   class="st13"
   id="g102">&#10;		<rect
   x="136.8"
   y="16.799999"
   class="st0"
   width="22.4"
   height="2.2"
   id="rect102" />&#10;	</g>&#10;	<g
   class="st13"
   id="g103">&#10;		<rect
   x="136.8"
   y="12.4"
   class="st0"
   width="22.4"
   height="2.2"
   id="rect103" />&#10;	</g>&#10;	<g
   class="st13"
   id="g104">&#10;		<rect
   x="136.8"
   y="8"
   class="st0"
   width="22.4"
   height="2.2"
   id="rect104" />&#10;	</g>&#10;	<g
   class="st13"
   id="g105">&#10;		<rect
   x="136.8"
   y="3.5999999"
   class="st0"
   width="22.4"
   height="2.2"
   id="rect105" />&#10;	</g>&#10;	<g
   id="LWPOLYLINE">&#10;		<polyline
   class="st4"
   points="151.6,18.9 151.6,26.2 150.1,26.2 150.1,18.9   "
   id="polyline105" />&#10;	</g>&#10;	<g
   id="LWPOLYLINE-2">&#10;		<polyline
   class="st4"
   points="145.9,18.9 145.9,26.2 144.5,26.2 144.5,18.9   "
   id="polyline106" />&#10;	</g>&#10;</g>&#10;<g
   id="USB"
   transform="matrix(-1.3317155,0,0,-1.3317137,258.3491,95.560507)">&#10;	<path
   class="st11"
   d="m 181.2,38.7 v 1 c 0,0.1 -0.1,0.2 -0.2,0.2 v 0 h -3.7 c -0.1,0 -0.2,-0.1 -0.2,-0.2 v -1 c 0,-0.1 0.1,-0.2 0.2,-0.2 0,0 0,0 0,0 h 3.7 c 0.2,0 0.2,0.1 0.2,0.2 z"
   id="path106" />&#10;	<path
   class="st11"
   d="m 181.2,36.8 v 1 c 0,0.1 -0.1,0.2 -0.2,0.2 v 0 h -3.7 c -0.1,0 -0.2,-0.1 -0.2,-0.2 v -1 c 0,-0.1 0.1,-0.2 0.2,-0.2 h 3.7 c 0.2,0 0.2,0.1 0.2,0.2 z"
   id="path107" />&#10;	<path
   class="st11"
   d="m 181.2,34.9 v 1 c 0,0.1 -0.1,0.2 -0.2,0.2 v 0 h -3.7 c -0.1,0 -0.2,-0.1 -0.2,-0.2 v 0 -1 c 0,-0.1 0.1,-0.2 0.2,-0.2 0,0 0,0 0,0 h 3.7 c 0.2,0 0.2,0.1 0.2,0.2 z"
   id="path108" />&#10;	<path
   class="st11"
   d="m 181.2,33 v 1 c 0,0.1 -0.1,0.2 -0.2,0.2 v 0 h -3.7 c -0.1,0 -0.2,-0.1 -0.2,-0.2 v 0 -1 c 0,-0.1 0.1,-0.2 0.2,-0.2 0,0 0,0 0,0 h 3.7 c 0.2,0 0.2,0.1 0.2,0.2 z"
   id="path109" />&#10;	<path
   class="st11"
   d="m 181.2,31 v 1 c 0,0.1 -0.1,0.2 -0.2,0.2 v 0 h -3.7 c -0.1,0 -0.2,-0.1 -0.2,-0.2 v 0 -1 c 0,-0.1 0.1,-0.2 0.2,-0.2 0,0 0,0 0,0 h 3.7 c 0.2,0.1 0.2,0.2 0.2,0.2 z"
   id="path110" />&#10;	<rect
   x="179.3"
   y="24.9"
   class="st6"
   width="16.4"
   height="21.4"
   id="rect110" />&#10;	<polygon
   class="st4"
   points="181,24.9 179.3,24.9 179.3,46.2 181,46.2 "
   id="polygon110" />&#10;	<polygon
   class="st4"
   points="184.2,24.9 182.6,24.9 182.6,46.2 184.2,46.2 "
   id="polygon111" />&#10;	<polygon
   class="st4"
   points="187.5,24.9 185.9,24.9 185.9,46.2 187.5,46.2 "
   id="polygon112" />&#10;	<polygon
   class="st4"
   points="190.8,24.9 189.1,24.9 189.1,46.2 190.8,46.2 "
   id="polygon113" />&#10;	<polygon
   class="st4"
   points="194.1,24.9 192.4,24.9 192.4,46.2 194.1,46.2 "
   id="polygon114" />&#10;</g>&#10;<rect
   x="-230.38309"
   y="-78.647736"
   class="st5"
   width="97.614754"
   height="60.326637"
   id="rect114"
   transform="scale(-1)"
   style="stroke-width:1.33171" />&#10;<rect
   x="-229.45085"
   y="-77.71553"
   class="st17"
   width="95.617188"
   height="58.462238"
   id="rect115"
   transform="scale(-1)"
   style="stroke-width:1.33171" />&#10;<g
   id="Disegno_33"
   transform="matrix(-1.3317155,0,0,-1.3317137,258.3491,95.560507)">&#10;	<polyline
   class="st0"
   points="107.4,45.4 107.4,25.5 107.4,25.5 126,25.5 126,25.5 127.3,26.8 127.3,26.8 127.3,45.4 127.3,45.4    107.4,45.4 107.4,45.4  "
   id="polyline115" />&#10;	<polyline
   class="st10"
   points="107.4,45.4 107.4,25.5 107.4,25.5 126,25.5 126,25.5 127.3,26.8 127.3,26.8 127.3,45.4 127.3,45.4    107.4,45.4 107.4,45.4  "
   id="polyline116" />&#10;	<polyline
   points="107.4,45.4 107.4,25.5 107.4,25.5 126,25.5 126,25.5 127.3,26.8 127.3,26.8 127.3,45.4 127.3,45.4 107.4,45.4    107.4,45.4  "
   id="polyline117" />&#10;	<rect
   x="124.7"
   y="44.799999"
   class="st4"
   width="1.2"
   height="1.2"
   id="rect117" />&#10;	<rect
   x="123.3"
   y="44.799999"
   class="st4"
   width="1.2"
   height="1.2"
   id="rect118" />&#10;	<rect
   x="121.8"
   y="44.799999"
   class="st4"
   width="1.2"
   height="1.2"
   id="rect119" />&#10;	<rect
   x="120.4"
   y="44.799999"
   class="st4"
   width="1.2"
   height="1.2"
   id="rect120" />&#10;	<rect
   x="118.9"
   y="44.799999"
   class="st4"
   width="1.2"
   height="1.2"
   id="rect121" />&#10;	<rect
   x="117.5"
   y="44.799999"
   class="st4"
   width="1.2"
   height="1.2"
   id="rect122" />&#10;	<rect
   x="116"
   y="44.799999"
   class="st4"
   width="1.2"
   height="1.2"
   id="rect123" />&#10;	<rect
   x="114.6"
   y="44.799999"
   class="st4"
   width="1.2"
   height="1.2"
   id="rect124" />&#10;	<rect
   x="113.2"
   y="44.799999"
   class="st4"
   width="1.2"
   height="1.2"
   id="rect125" />&#10;	<rect
   x="111.7"
   y="44.799999"
   class="st4"
   width="1.2"
   height="1.2"
   id="rect126" />&#10;	<rect
   x="110.3"
   y="44.799999"
   class="st4"
   width="1.2"
   height="1.2"
   id="rect127" />&#10;	<rect
   x="108.8"
   y="44.799999"
   class="st4"
   width="1.2"
   height="1.2"
   id="rect128" />&#10;	<rect
   x="124.7"
   y="24.9"
   class="st4"
   width="1.2"
   height="1.2"
   id="rect129" />&#10;	<rect
   x="123.3"
   y="24.9"
   class="st4"
   width="1.2"
   height="1.2"
   id="rect130" />&#10;	<rect
   x="121.8"
   y="24.9"
   class="st4"
   width="1.2"
   height="1.2"
   id="rect131" />&#10;	<rect
   x="120.4"
   y="24.9"
   class="st4"
   width="1.2"
   height="1.2"
   id="rect132" />&#10;	<rect
   x="118.9"
   y="24.9"
   class="st4"
   width="1.2"
   height="1.2"
   id="rect133" />&#10;	<rect
   x="117.5"
   y="24.9"
   class="st4"
   width="1.2"
   height="1.2"
   id="rect134" />&#10;	<rect
   x="116"
   y="24.9"
   class="st4"
   width="1.2"
   height="1.2"
   id="rect135" />&#10;	<rect
   x="114.6"
   y="24.9"
   class="st4"
   width="1.2"
   height="1.2"
   id="rect136" />&#10;	<rect
   x="113.2"
   y="24.9"
   class="st4"
   width="1.2"
   height="1.2"
   id="rect137" />&#10;	<rect
   x="111.7"
   y="24.9"
   class="st4"
   width="1.2"
   height="1.2"
   id="rect138" />&#10;	<rect
   x="110.3"
   y="24.9"
   class="st4"
   width="1.2"
   height="1.2"
   id="rect139" />&#10;	<rect
   x="108.8"
   y="24.9"
   class="st4"
   width="1.2"
   height="1.2"
   id="rect140" />&#10;	<rect
   x="126.7"
   y="27.6"
   class="st4"
   width="1.2"
   height="1.2"
   id="rect141" />&#10;	<rect
   x="126.7"
   y="29.1"
   class="st4"
   width="1.2"
   height="1.2"
   id="rect142" />&#10;	<rect
   x="126.7"
   y="30.5"
   class="st4"
   width="1.2"
   height="1.2"
   id="rect143" />&#10;	<rect
   x="126.7"
   y="31.9"
   class="st4"
   width="1.2"
   height="1.2"
   id="rect144" />&#10;	<rect
   x="126.7"
   y="33.400002"
   class="st4"
   width="1.2"
   height="1.2"
   id="rect145" />&#10;	<rect
   x="126.7"
   y="34.799999"
   class="st4"
   width="1.2"
   height="1.2"
   id="rect146" />&#10;	<rect
   x="126.7"
   y="36.299999"
   class="st4"
   width="1.2"
   height="1.2"
   id="rect147" />&#10;	<rect
   x="126.7"
   y="37.700001"
   class="st4"
   width="1.2"
   height="1.2"
   id="rect148" />&#10;	<rect
   x="126.7"
   y="39.200001"
   class="st4"
   width="1.2"
   height="1.2"
   id="rect149" />&#10;	<rect
   x="126.7"
   y="40.599998"
   class="st4"
   width="1.2"
   height="1.2"
   id="rect150" />&#10;	<rect
   x="126.7"
   y="42.099998"
   class="st4"
   width="1.2"
   height="1.2"
   id="rect151" />&#10;	<rect
   x="106.8"
   y="27.6"
   class="st4"
   width="1.2"
   height="1.2"
   id="rect152" />&#10;	<rect
   x="106.8"
   y="29.1"
   class="st4"
   width="1.2"
   height="1.2"
   id="rect153" />&#10;	<rect
   x="106.8"
   y="30.5"
   class="st4"
   width="1.2"
   height="1.2"
   id="rect154" />&#10;	<rect
   x="106.8"
   y="31.9"
   class="st4"
   width="1.2"
   height="1.2"
   id="rect155" />&#10;	<rect
   x="106.8"
   y="33.400002"
   class="st4"
   width="1.2"
   height="1.2"
   id="rect156" />&#10;	<rect
   x="106.8"
   y="34.799999"
   class="st4"
   width="1.2"
   height="1.2"
   id="rect157" />&#10;	<rect
   x="106.8"
   y="36.299999"
   class="st4"
   width="1.2"
   height="1.2"
   id="rect158" />&#10;	<rect
   x="106.8"
   y="37.700001"
   class="st4"
   width="1.2"
   height="1.2"
   id="rect159" />&#10;	<rect
   x="106.8"
   y="39.200001"
   class="st4"
   width="1.2"
   height="1.2"
   id="rect160" />&#10;	<rect
   x="106.8"
   y="40.599998"
   class="st4"
   width="1.2"
   height="1.2"
   id="rect161" />&#10;	<rect
   x="106.8"
   y="42.099998"
   class="st4"
   width="1.2"
   height="1.2"
   id="rect162" />&#10;</g>&#10;<g
   id="Disegno_32"
   transform="matrix(-1.3317155,0,0,-1.3317137,258.3491,95.560507)">&#10;	<path
   class="st18"
   d="m 145.7,55.7 c -1.6,0 -2.8,-1.3 -2.8,-2.8 0,0 0,0 0,0 v -6.4 c 0,-1.6 1.3,-2.8 2.8,-2.8 0,0 0,0 0,0 h 7.3 c 1.6,0 2.8,1.3 2.8,2.8 v 6.4 c 0,1.6 -1.3,2.8 -2.8,2.8 0,0 0,0 0,0 z"
   id="path162" />&#10;	<path
   class="st18"
   d="m 145.7,55.7 c -1.6,0 -2.8,-1.3 -2.8,-2.8 0,0 0,0 0,0 v -6.4 c 0,-1.6 1.3,-2.8 2.8,-2.8 0,0 0,0 0,0 h 7.3 c 1.6,0 2.8,1.3 2.8,2.8 v 6.4 c 0,1.6 -1.3,2.8 -2.8,2.8 0,0 0,0 0,0 z"
   id="path163" />&#10;	<path
   class="st0"
   d="m 145.7,55.7 c -1.6,0 -2.8,-1.3 -2.8,-2.8 0,0 0,0 0,0 v -6.4 c 0,-1.6 1.3,-2.8 2.8,-2.8 0,0 0,0 0,0 h 7.3 c 1.6,0 2.8,1.3 2.8,2.8 v 6.4 c 0,1.6 -1.3,2.8 -2.8,2.8 0,0 0,0 0,0 z"
   id="path164" />&#10;	<path
   class="st0"
   d="m 145.7,55.7 c -1.6,0 -2.8,-1.3 -2.8,-2.8 0,0 0,0 0,0 v -6.4 c 0,-1.6 1.3,-2.8 2.8,-2.8 0,0 0,0 0,0 h 7.3 c 1.6,0 2.8,1.3 2.8,2.8 v 6.4 c 0,1.6 -1.3,2.8 -2.8,2.8 0,0 0,0 0,0 z"
   id="path165" />&#10;	<path
   class="st10"
   d="m 145.7,55.7 c -1.6,0 -2.8,-1.3 -2.8,-2.8 0,0 0,0 0,0 v -6.4 c 0,-1.6 1.3,-2.8 2.8,-2.8 0,0 0,0 0,0 h 7.3 c 1.6,0 2.8,1.3 2.8,2.8 v 6.4 c 0,1.6 -1.3,2.8 -2.8,2.8 0,0 0,0 0,0 z"
   id="path166" />&#10;	<path
   class="st10"
   d="m 145.7,55.7 c -1.6,0 -2.8,-1.3 -2.8,-2.8 0,0 0,0 0,0 v -6.4 c 0,-1.6 1.3,-2.8 2.8,-2.8 0,0 0,0 0,0 h 7.3 c 1.6,0 2.8,1.3 2.8,2.8 v 6.4 c 0,1.6 -1.3,2.8 -2.8,2.8 0,0 0,0 0,0 z"
   id="path167" />&#10;	<path
   d="m 145.7,55.7 c -1.6,0 -2.8,-1.3 -2.8,-2.8 0,0 0,0 0,0 v -6.4 c 0,-1.6 1.3,-2.8 2.8,-2.8 0,0 0,0 0,0 h 7.3 c 1.6,0 2.8,1.3 2.8,2.8 v 6.4 c 0,1.6 -1.3,2.8 -2.8,2.8 0,0 0,0 0,0 z"
   id="path168" />&#10;	<path
   d="m 145.7,55.7 c -1.6,0 -2.8,-1.3 -2.8,-2.8 0,0 0,0 0,0 v -6.4 c 0,-1.6 1.3,-2.8 2.8,-2.8 0,0 0,0 0,0 h 7.3 c 1.6,0 2.8,1.3 2.8,2.8 v 6.4 c 0,1.6 -1.3,2.8 -2.8,2.8 0,0 0,0 0,0 z"
   id="path169" />&#10;</g>&#10;<g
   id="LED"
   transform="matrix(-1.3317155,0,0,-1.3317137,258.3491,95.560507)">&#10;	<rect
   x="181.89999"
   y="52.099998"
   class="st4"
   width="7.5999999"
   height="3"
   id="rect169" />&#10;	<path
   class="st19"
   d="m 188,53.6 c 0,1.3 -1,2.3 -2.3,2.3 -1.3,0 -2.3,-1 -2.3,-2.3 0,-1.3 1,-2.3 2.3,-2.3 0,0 0,0 0,0 1.3,0 2.3,1 2.3,2.3 z"
   id="path170" />&#10;</g>&#10;<g
   id="LED-2"
   transform="matrix(-1.3317155,0,0,-1.3317137,258.3491,95.560507)">&#10;	<rect
   x="136.89999"
   y="61.599998"
   class="st4"
   width="3"
   height="7.5999999"
   id="rect170" />&#10;	<path
   class="st20"
   d="m 138.4,63 c 1.3,0 2.3,1 2.3,2.3 0,1.3 -1,2.3 -2.3,2.3 -1.3,0 -2.3,-1 -2.3,-2.3 -0.1,-1.2 1,-2.3 2.3,-2.3 z"
   id="path171" />&#10;</g>&#10;<g
   id="LED-3"
   transform="matrix(-1.3317155,0,0,-1.3317137,258.3491,95.560507)">&#10;	<rect
   x="181.89999"
   y="15.7"
   class="st4"
   width="7.5999999"
   height="3"
   id="rect171" />&#10;	<path
   class="st10"
   d="m 188,17.2 c 0,1.3 -1,2.3 -2.3,2.3 -1.3,0 -2.3,-1 -2.3,-2.3 0,-1.3 1,-2.3 2.3,-2.3 0,0 0,0 0,0 1.3,-0.1 2.3,1 2.3,2.3 z"
   id="path172" />&#10;</g>&#10;<g
   id="Disegno_11"
   transform="matrix(-1.3317155,0,0,-1.3317137,258.3491,95.560507)">&#10;	<polyline
   class="st0"
   points="163.3,19.4 163.3,7.7 163.3,7.7 175,7.7 175,19.4 175,19.4 163.3,19.4 163.3,19.4  "
   id="polyline172" />&#10;	<polyline
   class="st10"
   points="163.3,19.4 163.3,7.7 163.3,7.7 175,7.7 175,19.4 175,19.4 163.3,19.4 163.3,19.4  "
   id="polyline173" />&#10;	<polyline
   points="163.3,19.4 163.3,7.7 163.3,7.7 175,7.7 175,19.4 175,19.4 163.3,19.4 163.3,19.4  "
   id="polyline174" />&#10;	<rect
   x="172.89999"
   y="6.9000001"
   class="st4"
   width="0.80000001"
   height="1.6"
   id="rect174" />&#10;	<rect
   x="171.7"
   y="6.9000001"
   class="st4"
   width="0.80000001"
   height="1.6"
   id="rect175" />&#10;	<rect
   x="170.5"
   y="6.9000001"
   class="st4"
   width="0.80000001"
   height="1.6"
   id="rect176" />&#10;	<rect
   x="169.39999"
   y="6.9000001"
   class="st4"
   width="0.80000001"
   height="1.6"
   id="rect177" />&#10;	<rect
   x="168.2"
   y="6.9000001"
   class="st4"
   width="0.80000001"
   height="1.6"
   id="rect178" />&#10;	<rect
   x="167"
   y="6.9000001"
   class="st4"
   width="0.80000001"
   height="1.6"
   id="rect179" />&#10;	<rect
   x="165.89999"
   y="6.9000001"
   class="st4"
   width="0.80000001"
   height="1.6"
   id="rect180" />&#10;	<rect
   x="164.7"
   y="6.9000001"
   class="st4"
   width="0.80000001"
   height="1.6"
   id="rect181" />&#10;	<rect
   x="162.60001"
   y="17.200001"
   class="st4"
   width="1.6"
   height="0.80000001"
   id="rect182" />&#10;	<rect
   x="162.60001"
   y="16.1"
   class="st4"
   width="1.6"
   height="0.80000001"
   id="rect183" />&#10;	<rect
   x="162.60001"
   y="14.9"
   class="st4"
   width="1.6"
   height="0.80000001"
   id="rect184" />&#10;	<rect
   x="162.60001"
   y="13.7"
   class="st4"
   width="1.6"
   height="0.80000001"
   id="rect185" />&#10;	<rect
   x="162.60001"
   y="12.6"
   class="st4"
   width="1.6"
   height="0.80000001"
   id="rect186" />&#10;	<rect
   x="162.60001"
   y="11.4"
   class="st4"
   width="1.6"
   height="0.80000001"
   id="rect187" />&#10;	<rect
   x="162.60001"
   y="10.3"
   class="st4"
   width="1.6"
   height="0.80000001"
   id="rect188" />&#10;	<rect
   x="162.60001"
   y="9.1000004"
   class="st4"
   width="1.6"
   height="0.80000001"
   id="rect189" />&#10;	<rect
   x="174.2"
   y="17.200001"
   class="st4"
   width="1.6"
   height="0.80000001"
   id="rect190" />&#10;	<rect
   x="174.2"
   y="16.1"
   class="st4"
   width="1.6"
   height="0.80000001"
   id="rect191" />&#10;	<rect
   x="174.2"
   y="14.9"
   class="st4"
   width="1.6"
   height="0.80000001"
   id="rect192" />&#10;	<rect
   x="174.2"
   y="13.7"
   class="st4"
   width="1.6"
   height="0.80000001"
   id="rect193" />&#10;	<rect
   x="174.2"
   y="12.6"
   class="st4"
   width="1.6"
   height="0.80000001"
   id="rect194" />&#10;	<rect
   x="174.2"
   y="11.4"
   class="st4"
   width="1.6"
   height="0.80000001"
   id="rect195" />&#10;	<rect
   x="174.2"
   y="10.3"
   class="st4"
   width="1.6"
   height="0.80000001"
   id="rect196" />&#10;	<rect
   x="174.2"
   y="9.1000004"
   class="st4"
   width="1.6"
   height="0.80000001"
   id="rect197" />&#10;	<rect
   x="172.89999"
   y="18.6"
   class="st4"
   width="0.80000001"
   height="1.6"
   id="rect198" />&#10;	<rect
   x="171.7"
   y="18.6"
   class="st4"
   width="0.80000001"
   height="1.6"
   id="rect199" />&#10;	<rect
   x="170.5"
   y="18.6"
   class="st4"
   width="0.80000001"
   height="1.6"
   id="rect200" />&#10;	<rect
   x="169.39999"
   y="18.6"
   class="st4"
   width="0.80000001"
   height="1.6"
   id="rect201" />&#10;	<rect
   x="168.2"
   y="18.6"
   class="st4"
   width="0.80000001"
   height="1.6"
   id="rect202" />&#10;	<rect
   x="167"
   y="18.6"
   class="st4"
   width="0.80000001"
   height="1.6"
   id="rect203" />&#10;	<rect
   x="165.89999"
   y="18.6"
   class="st4"
   width="0.80000001"
   height="1.6"
   id="rect204" />&#10;	<rect
   x="164.7"
   y="18.6"
   class="st4"
   width="0.80000001"
   height="1.6"
   id="rect205" />&#10;</g>&#10;<g
   id="Disegno_35"
   transform="matrix(-1.3317155,0,0,-1.3317137,258.3491,95.560507)">&#10;	<rect
   x="160.5"
   y="25.1"
   class="st0"
   width="5.6999998"
   height="4.4000001"
   id="rect206" />&#10;	<rect
   x="160.5"
   y="25.1"
   class="st10"
   width="5.6999998"
   height="4.4000001"
   id="rect207" />&#10;	<rect
   x="160.5"
   y="25.1"
   width="5.6999998"
   height="4.4000001"
   id="rect208" />&#10;	<path
   class="st4"
   d="m 165.2,30.5 c 0.5,0 1,-0.4 1,-1 0,0 0,0 0,0 h -1.9 c 0,0.5 0.4,1 0.9,1 z"
   id="path208" />&#10;	<path
   class="st4"
   d="m 163.3,30.5 c 0.5,0 1,-0.4 1,-1 0,0 0,0 0,0 h -1.9 c 0,0.5 0.4,1 0.9,1 z"
   id="path209" />&#10;	<path
   class="st4"
   d="m 161.4,30.5 c 0.5,0 1,-0.4 1,-1 0,0 0,0 0,0 h -1.9 c 0,0.5 0.4,1 0.9,1 z"
   id="path210" />&#10;	<path
   class="st4"
   d="m 165.2,24.2 c 0.5,0 1,0.4 1,1 0,0 0,0 0,0 h -1.9 c 0,-0.6 0.4,-1 0.9,-1 z"
   id="path211" />&#10;	<path
   class="st4"
   d="m 163.3,24.2 c 0.5,0 1,0.4 1,1 0,0 0,0 0,0 h -1.9 c 0,-0.6 0.4,-1 0.9,-1 z"
   id="path212" />&#10;	<path
   class="st4"
   d="m 161.4,24.2 c 0.5,0 1,0.4 1,1 0,0 0,0 0,0 h -1.9 c 0,-0.6 0.4,-1 0.9,-1 z"
   id="path213" />&#10;</g>&#10;<g
   id="Disegno_25"
   transform="matrix(-1.3317155,0,0,-1.3317137,258.3491,95.560507)">&#10;	<rect
   x="96.800003"
   y="36.599998"
   class="st0"
   width="5.6999998"
   height="8.6000004"
   id="rect213" />&#10;	<rect
   x="96.800003"
   y="36.599998"
   class="st10"
   width="5.6999998"
   height="8.6000004"
   id="rect214" />&#10;	<rect
   x="96.800003"
   y="36.599998"
   width="5.6999998"
   height="8.6000004"
   id="rect215" />&#10;	<path
   class="st4"
   d="m 101.8,45.9 c 0.4,0 0.7,-0.3 0.7,-0.7 0,0 0,0 0,0 h -1.4 c 0,0.3 0.3,0.7 0.7,0.7 z"
   id="path215" />&#10;	<path
   class="st4"
   d="m 100.4,45.9 c 0.4,0 0.7,-0.3 0.7,-0.7 0,0 0,0 0,0 h -1.4 c -0.1,0.3 0.3,0.7 0.7,0.7 z"
   id="path216" />&#10;	<path
   class="st4"
   d="m 98.9,45.9 c 0.4,0 0.7,-0.3 0.7,-0.7 0,0 0,0 0,0 h -1.4 c 0,0.3 0.3,0.7 0.7,0.7 z"
   id="path217" />&#10;	<path
   class="st4"
   d="m 98.9,35.9 c -0.4,0 -0.7,0.3 -0.7,0.7 0,0 0,0 0,0 h 1.4 c 0,-0.4 -0.3,-0.7 -0.7,-0.7 z"
   id="path218" />&#10;	<path
   class="st4"
   d="m 100.4,35.9 c -0.4,0 -0.7,0.3 -0.7,0.7 0,0 0,0 0,0 h 1.4 c 0,-0.4 -0.4,-0.7 -0.7,-0.7 z"
   id="path219" />&#10;	<path
   class="st4"
   d="m 101.8,35.9 c -0.4,0 -0.7,0.3 -0.7,0.7 0,0 0,0 0,0 h 1.4 c 0,-0.4 -0.3,-0.7 -0.7,-0.7 z"
   id="path220" />&#10;	<path
   class="st4"
   d="m 97.5,45.9 c 0.4,0 0.7,-0.3 0.7,-0.7 0,0 0,0 0,0 h -1.4 c 0,0.3 0.3,0.7 0.7,0.7 z"
   id="path221" />&#10;	<path
   class="st4"
   d="m 97.5,35.9 c -0.4,0 -0.7,0.3 -0.7,0.7 0,0 0,0 0,0 h 1.4 c 0,-0.4 -0.3,-0.7 -0.7,-0.7 z"
   id="path222" />&#10;</g>&#10;<g
   id="pin"
   transform="matrix(-1.3317155,0,0,-1.3317137,258.3491,95.560507)">&#10;	<rect
   x="118.2"
   y="60.900002"
   class="st0"
   width="7.1999998"
   height="7.1999998"
   id="rect222" />&#10;	<path
   class="st0"
   d="M 118.2,68.1 V 60.9 H 111 v 7.2 z"
   id="path223" />&#10;	<path
   class="st0"
   d="m 111,68.1 v -7.2 h -7.2 v 7.2 z"
   id="path224" />&#10;	<path
   class="st0"
   d="m 103.8,68.1 v -7.2 h -7.2 v 7.2 z"
   id="path225" />&#10;	<path
   class="st0"
   d="m 132.6,68.1 v -7.2 h -7.2 v 7.2 z"
   id="path226" />&#10;	<path
   class="st0"
   d="m 89.5,68.1 v -7.2 h -7.2 v 7.2 z"
   id="path227" />&#10;	<path
   class="st0"
   d="m 96.7,68.1 v -7.2 h -7.2 v 7.2 z"
   id="path228" />&#10;	<path
   class="st0"
   d="m 82.3,68.1 v -7.2 h -7.2 v 7.2 z"
   id="path229" />&#10;	<path
   class="st0"
   d="m 67.9,68.1 v -7.2 h -7.2 v 7.2 z"
   id="path230" />&#10;	<path
   class="st0"
   d="m 75.1,68.1 v -7.2 h -7.2 v 7.2 z"
   id="path231" />&#10;	<rect
   x="118.2"
   y="60.900002"
   class="st10"
   width="7.1999998"
   height="7.1999998"
   id="rect231" />&#10;	<path
   class="st10"
   d="M 118.2,68.1 V 60.9 H 111 v 7.2 z"
   id="path232" />&#10;	<path
   class="st10"
   d="m 111,68.1 v -7.2 h -7.2 v 7.2 z"
   id="path233" />&#10;	<path
   class="st10"
   d="m 103.8,68.1 v -7.2 h -7.2 v 7.2 z"
   id="path234" />&#10;	<path
   class="st10"
   d="m 132.6,68.1 v -7.2 h -7.2 v 7.2 z"
   id="path235" />&#10;	<path
   class="st10"
   d="m 89.5,68.1 v -7.2 h -7.2 v 7.2 z"
   id="path236" />&#10;	<path
   class="st10"
   d="m 96.7,68.1 v -7.2 h -7.2 v 7.2 z"
   id="path237" />&#10;	<path
   class="st10"
   d="m 82.3,68.1 v -7.2 h -7.2 v 7.2 z"
   id="path238" />&#10;	<path
   class="st10"
   d="m 67.9,68.1 v -7.2 h -7.2 v 7.2 z"
   id="path239" />&#10;	<path
   class="st10"
   d="m 75.1,68.1 v -7.2 h -7.2 v 7.2 z"
   id="path240" />&#10;	<rect
   x="118.2"
   y="60.900002"
   width="7.1999998"
   height="7.1999998"
   id="rect240" />&#10;	<path
   d="M 118.2,68.1 V 60.9 H 111 v 7.2 z"
   id="path241" />&#10;	<path
   d="m 111,68.1 v -7.2 h -7.2 v 7.2 z"
   id="path242" />&#10;	<path
   d="m 103.8,68.1 v -7.2 h -7.2 v 7.2 z"
   id="path243" />&#10;	<path
   d="m 132.6,68.1 v -7.2 h -7.2 v 7.2 z"
   id="path244" />&#10;	<path
   d="m 89.5,68.1 v -7.2 h -7.2 v 7.2 z"
   id="path245" />&#10;	<path
   d="m 96.7,68.1 v -7.2 h -7.2 v 7.2 z"
   id="path246" />&#10;	<path
   d="m 82.3,68.1 v -7.2 h -7.2 v 7.2 z"
   id="path247" />&#10;	<path
   d="m 67.9,68.1 v -7.2 h -7.2 v 7.2 z"
   id="path248" />&#10;	<path
   d="m 75.1,68.1 v -7.2 h -7.2 v 7.2 z"
   id="path249" />&#10;	<polygon
   class="st5"
   points="112.8,66.3 116.4,66.3 116.4,62.7 112.8,62.7 "
   id="polygon249" />&#10;	<polygon
   class="st5"
   points="120,66.3 123.6,66.3 123.6,62.7 120,62.7 "
   id="polygon250" />&#10;	<polygon
   class="st5"
   points="127.2,66.3 130.8,66.3 130.8,62.7 127.2,62.7 "
   id="polygon251" />&#10;	<polygon
   class="st5"
   points="84.1,66.3 87.7,66.3 87.7,62.7 84.1,62.7 "
   id="polygon252" />&#10;	<polygon
   class="st5"
   points="66.1,66.3 66.1,62.7 62.5,62.7 62.5,66.3 "
   id="polygon253" />&#10;	<polygon
   class="st5"
   points="80.5,66.3 80.5,62.7 76.9,62.7 76.9,66.3 "
   id="polygon254" />&#10;	<polygon
   class="st5"
   points="94.9,66.3 94.9,62.7 91.3,62.7 91.3,66.3 "
   id="polygon255" />&#10;	<polygon
   class="st5"
   points="102,66.3 102,62.7 98.4,62.7 98.4,66.3 "
   id="polygon256" />&#10;	<polygon
   class="st5"
   points="109.2,66.3 109.2,62.7 105.6,62.7 105.6,66.3 "
   id="polygon257" />&#10;	<polygon
   class="st5"
   points="73.3,66.3 73.3,62.7 69.7,62.7 69.7,66.3 "
   id="polygon258" />&#10;	<rect
   x="46.299999"
   y="60.900002"
   class="st0"
   width="7.1999998"
   height="7.1999998"
   id="rect258" />&#10;	<path
   class="st0"
   d="m 46.3,68.1 v -7.2 h -7.2 v 7.2 z"
   id="path258" />&#10;	<path
   class="st0"
   d="m 39.1,68.1 v -7.2 h -7.2 v 7.2 z"
   id="path259" />&#10;	<path
   class="st0"
   d="m 60.7,68.1 v -7.2 h -7.2 v 7.2 z"
   id="path260" />&#10;	<rect
   x="46.299999"
   y="60.900002"
   class="st10"
   width="7.1999998"
   height="7.1999998"
   id="rect260" />&#10;	<path
   class="st10"
   d="m 46.3,68.1 v -7.2 h -7.2 v 7.2 z"
   id="path261" />&#10;	<path
   class="st10"
   d="m 39.1,68.1 v -7.2 h -7.2 v 7.2 z"
   id="path262" />&#10;	<path
   class="st10"
   d="m 60.7,68.1 v -7.2 h -7.2 v 7.2 z"
   id="path263" />&#10;	<rect
   x="46.299999"
   y="60.900002"
   width="7.1999998"
   height="7.1999998"
   id="rect263" />&#10;	<path
   d="m 46.3,68.1 v -7.2 h -7.2 v 7.2 z"
   id="path264" />&#10;	<path
   d="m 39.1,68.1 v -7.2 h -7.2 v 7.2 z"
   id="path265" />&#10;	<path
   d="m 60.7,68.1 v -7.2 h -7.2 v 7.2 z"
   id="path266" />&#10;	<polygon
   class="st5"
   points="40.9,66.3 44.5,66.3 44.5,62.7 40.9,62.7 "
   id="polygon266" />&#10;	<polygon
   class="st5"
   points="48.1,66.3 51.7,66.3 51.7,62.7 48.1,62.7 "
   id="polygon267" />&#10;	<polygon
   class="st5"
   points="55.3,66.3 58.9,66.3 58.9,62.7 55.3,62.7 "
   id="polygon268" />&#10;	<polygon
   class="st5"
   points="37.3,66.3 37.3,62.7 33.7,62.7 33.7,66.3 "
   id="polygon269" />&#10;</g>&#10;<g
   id="pin-2"
   transform="matrix(-1.3317155,0,0,-1.3317137,258.3491,95.560507)">&#10;	<rect
   x="118.2"
   y="3"
   class="st0"
   width="7.1999998"
   height="7.1999998"
   id="rect269" />&#10;	<path
   class="st0"
   d="M 118.2,10.2 V 3 H 111 v 7.2 z"
   id="path269" />&#10;	<path
   class="st0"
   d="M 111,10.2 V 3 h -7.2 v 7.2 z"
   id="path270" />&#10;	<path
   class="st0"
   d="M 103.8,10.2 V 3 h -7.2 v 7.2 z"
   id="path271" />&#10;	<path
   class="st0"
   d="M 132.6,10.2 V 3 h -7.2 v 7.2 z"
   id="path272" />&#10;	<path
   class="st0"
   d="M 89.5,10.2 V 3 h -7.2 v 7.2 z"
   id="path273" />&#10;	<path
   class="st0"
   d="M 96.7,10.2 V 3 h -7.2 v 7.2 z"
   id="path274" />&#10;	<path
   class="st0"
   d="M 82.3,10.2 V 3 h -7.2 v 7.2 z"
   id="path275" />&#10;	<path
   class="st0"
   d="M 67.9,10.2 V 3 h -7.2 v 7.2 z"
   id="path276" />&#10;	<path
   class="st0"
   d="M 75.1,10.2 V 3 h -7.2 v 7.2 z"
   id="path277" />&#10;	<rect
   x="118.2"
   y="3"
   class="st10"
   width="7.1999998"
   height="7.1999998"
   id="rect277" />&#10;	<path
   class="st10"
   d="M 118.2,10.2 V 3 H 111 v 7.2 z"
   id="path278" />&#10;	<path
   class="st10"
   d="M 111,10.2 V 3 h -7.2 v 7.2 z"
   id="path279" />&#10;	<path
   class="st10"
   d="M 103.8,10.2 V 3 h -7.2 v 7.2 z"
   id="path280" />&#10;	<path
   class="st10"
   d="M 132.6,10.2 V 3 h -7.2 v 7.2 z"
   id="path281" />&#10;	<path
   class="st10"
   d="M 89.5,10.2 V 3 h -7.2 v 7.2 z"
   id="path282" />&#10;	<path
   class="st10"
   d="M 96.7,10.2 V 3 h -7.2 v 7.2 z"
   id="path283" />&#10;	<path
   class="st10"
   d="M 82.3,10.2 V 3 h -7.2 v 7.2 z"
   id="path284" />&#10;	<path
   class="st10"
   d="M 67.9,10.2 V 3 h -7.2 v 7.2 z"
   id="path285" />&#10;	<path
   class="st10"
   d="M 75.1,10.2 V 3 h -7.2 v 7.2 z"
   id="path286" />&#10;	<rect
   x="118.2"
   y="3"
   width="7.1999998"
   height="7.1999998"
   id="rect286" />&#10;	<path
   d="M 118.2,10.2 V 3 H 111 v 7.2 z"
   id="path287" />&#10;	<path
   d="M 111,10.2 V 3 h -7.2 v 7.2 z"
   id="path288" />&#10;	<path
   d="M 103.8,10.2 V 3 h -7.2 v 7.2 z"
   id="path289" />&#10;	<path
   d="M 132.6,10.2 V 3 h -7.2 v 7.2 z"
   id="path290" />&#10;	<path
   d="M 89.5,10.2 V 3 h -7.2 v 7.2 z"
   id="path291" />&#10;	<path
   d="M 96.7,10.2 V 3 h -7.2 v 7.2 z"
   id="path292" />&#10;	<path
   d="M 82.3,10.2 V 3 h -7.2 v 7.2 z"
   id="path293" />&#10;	<path
   d="M 67.9,10.2 V 3 h -7.2 v 7.2 z"
   id="path294" />&#10;	<path
   d="M 75.1,10.2 V 3 h -7.2 v 7.2 z"
   id="path295" />&#10;	<polygon
   class="st5"
   points="112.8,8.4 116.4,8.4 116.4,4.8 112.8,4.8 "
   id="polygon295" />&#10;	<polygon
   class="st5"
   points="120,8.4 123.6,8.4 123.6,4.8 120,4.8 "
   id="polygon296" />&#10;	<polygon
   class="st5"
   points="127.2,8.4 130.8,8.4 130.8,4.8 127.2,4.8 "
   id="polygon297" />&#10;	<polygon
   class="st5"
   points="84.1,8.4 87.7,8.4 87.7,4.8 84.1,4.8 "
   id="polygon298" />&#10;	<polygon
   class="st5"
   points="66.1,8.4 66.1,4.8 62.5,4.8 62.5,8.4 "
   id="polygon299" />&#10;	<polygon
   class="st5"
   points="80.5,8.4 80.5,4.8 76.9,4.8 76.9,8.4 "
   id="polygon300" />&#10;	<polygon
   class="st5"
   points="94.9,8.4 94.9,4.8 91.3,4.8 91.3,8.4 "
   id="polygon301" />&#10;	<polygon
   class="st5"
   points="102,8.4 102,4.8 98.4,4.8 98.4,8.4 "
   id="polygon302" />&#10;	<polygon
   class="st5"
   points="109.2,8.4 109.2,4.8 105.6,4.8 105.6,8.4 "
   id="polygon303" />&#10;	<polygon
   class="st5"
   points="73.3,8.4 73.3,4.8 69.7,4.8 69.7,8.4 "
   id="polygon304" />&#10;	<rect
   x="46.299999"
   y="3"
   class="st0"
   width="7.1999998"
   height="7.1999998"
   id="rect304" />&#10;	<path
   class="st0"
   d="M 46.3,10.2 V 3 h -7.2 v 7.2 z"
   id="path304" />&#10;	<path
   class="st0"
   d="M 39.1,10.2 V 3 h -7.2 v 7.2 z"
   id="path305" />&#10;	<path
   class="st0"
   d="M 60.7,10.2 V 3 h -7.2 v 7.2 z"
   id="path306" />&#10;	<rect
   x="46.299999"
   y="3"
   class="st10"
   width="7.1999998"
   height="7.1999998"
   id="rect306" />&#10;	<path
   class="st10"
   d="M 46.3,10.2 V 3 h -7.2 v 7.2 z"
   id="path307" />&#10;	<path
   class="st10"
   d="M 39.1,10.2 V 3 h -7.2 v 7.2 z"
   id="path308" />&#10;	<path
   class="st10"
   d="M 60.7,10.2 V 3 h -7.2 v 7.2 z"
   id="path309" />&#10;	<rect
   x="46.299999"
   y="3"
   width="7.1999998"
   height="7.1999998"
   id="rect309" />&#10;	<path
   d="M 46.3,10.2 V 3 h -7.2 v 7.2 z"
   id="path310" />&#10;	<path
   d="M 39.1,10.2 V 3 h -7.2 v 7.2 z"
   id="path311" />&#10;	<path
   d="M 60.7,10.2 V 3 h -7.2 v 7.2 z"
   id="path312" />&#10;	<polygon
   class="st5"
   points="40.9,8.4 44.5,8.4 44.5,4.8 40.9,4.8 "
   id="polygon312" />&#10;	<polygon
   class="st5"
   points="48.1,8.4 51.7,8.4 51.7,4.8 48.1,4.8 "
   id="polygon313" />&#10;	<polygon
   class="st5"
   points="55.3,8.4 58.9,8.4 58.9,4.8 55.3,4.8 "
   id="polygon314" />&#10;	<polygon
   class="st5"
   points="37.3,8.4 37.3,4.8 33.7,4.8 33.7,8.4 "
   id="polygon315" />&#10;</g>&#10;<g
   id="Disegno_34"
   transform="matrix(-1.3317155,0,0,-1.3317137,258.3491,95.560507)">&#10;	<rect
   x="123.4"
   y="12.8"
   class="st4"
   width="2.4000001"
   height="0.89999998"
   id="rect315" />&#10;	<rect
   x="127.6"
   y="12.8"
   class="st4"
   width="2.4000001"
   height="0.89999998"
   id="rect316" />&#10;	<rect
   x="125.4"
   y="21.799999"
   class="st4"
   width="6.8000002"
   height="0.89999998"
   id="rect317" />&#10;	<rect
   x="125.4"
   y="22.700001"
   class="st21"
   width="6.8000002"
   height="0.89999998"
   id="rect318" />&#10;	<rect
   x="125.4"
   y="23.6"
   class="st4"
   width="6.8000002"
   height="0.89999998"
   id="rect319" />&#10;	<rect
   x="131.7"
   y="12.8"
   class="st4"
   width="2.4000001"
   height="0.89999998"
   id="rect320" />&#10;	<rect
   x="123.4"
   y="11.9"
   class="st22"
   width="2.4000001"
   height="0.89999998"
   id="rect321" />&#10;	<rect
   x="127.6"
   y="11.9"
   class="st22"
   width="2.4000001"
   height="0.89999998"
   id="rect322" />&#10;	<rect
   x="131.7"
   y="11.9"
   class="st22"
   width="2.4000001"
   height="0.89999998"
   id="rect323" />&#10;	<rect
   x="123.4"
   y="11"
   class="st4"
   width="2.4000001"
   height="0.89999998"
   id="rect324" />&#10;	<rect
   x="127.6"
   y="11"
   class="st4"
   width="2.4000001"
   height="0.89999998"
   id="rect325" />&#10;	<rect
   x="131.7"
   y="11"
   class="st4"
   width="2.4000001"
   height="0.89999998"
   id="rect326" />&#10;	<rect
   x="121.9"
   y="13.7"
   class="st0"
   width="13.8"
   height="8.1000004"
   id="rect327" />&#10;	<rect
   x="121.9"
   y="13.7"
   class="st10"
   width="13.8"
   height="8.1000004"
   id="rect328" />&#10;	<rect
   x="121.9"
   y="13.7"
   width="13.8"
   height="8.1000004"
   id="rect329" />&#10;</g>&#10;<g
   id="Disegno_7"
   transform="matrix(-1.3317155,0,0,-1.3317137,258.3491,95.560507)">&#10;	<rect
   x="141.3"
   y="64.900002"
   class="st5"
   width="4.5"
   height="2.5999999"
   id="rect330" />&#10;	<rect
   x="141.3"
   y="63.299999"
   class="st11"
   width="1.6"
   height="1.6"
   id="rect331" />&#10;	<rect
   x="142.8"
   y="67.5"
   class="st11"
   width="1.6"
   height="1.6"
   id="rect332" />&#10;	<rect
   x="144.2"
   y="63.299999"
   class="st11"
   width="1.6"
   height="1.6"
   id="rect333" />&#10;	<rect
   x="141.7"
   y="64.5"
   class="st4"
   width="0.80000001"
   height="0.80000001"
   id="rect334" />&#10;	<rect
   x="144.60001"
   y="64.5"
   class="st4"
   width="0.80000001"
   height="0.80000001"
   id="rect335" />&#10;	<rect
   x="143.2"
   y="67.099998"
   class="st4"
   width="0.80000001"
   height="0.80000001"
   id="rect336" />&#10;</g>&#10;<g
   id="Disegno_5"
   transform="matrix(-1.3317155,0,0,-1.3317137,258.3491,95.560507)">&#10;	<rect
   x="168"
   y="34.099998"
   class="st0"
   width="7.5"
   height="4.9000001"
   id="rect337" />&#10;	<rect
   x="168"
   y="34.099998"
   class="st10"
   width="7.5"
   height="4.9000001"
   id="rect338" />&#10;	<rect
   x="168"
   y="34.099998"
   width="7.5"
   height="4.9000001"
   id="rect339" />&#10;	<rect
   x="173.60001"
   y="31.299999"
   class="st4"
   width="1.3"
   height="3.5999999"
   id="rect340" />&#10;	<rect
   x="168.7"
   y="31.299999"
   class="st4"
   width="1.3"
   height="3.5999999"
   id="rect341" />&#10;	<rect
   x="173.60001"
   y="37.700001"
   class="st4"
   width="1.3"
   height="3.5999999"
   id="rect342" />&#10;	<rect
   x="168.7"
   y="37.700001"
   class="st4"
   width="1.3"
   height="3.5999999"
   id="rect343" />&#10;</g>&#10;<g
   id="Artwork_3"
   transform="matrix(-1.3317155,0,0,-1.3317137,258.3491,95.560507)">&#10;	<path
   class="st4"
   d="m 120.3,15.5 v 2.3 c 0,0 0,0 0,0 v 0 H 118 c 0,0 0,0 0,0 v 0 -2.3 c 0,0 0,0 0,0 v 0 h 2.3 c 0,-0.1 0,-0.1 0,0 z"
   id="path343" />&#10;	<path
   class="st4"
   d="m 120.3,12.9 v 2.3 c 0,0 0,0 0,0 v 0 H 118 c 0,0 0,0 0,0 0,0 0,0 0,0 v -2.3 c 0,0 0,0 0,0 v 0 z"
   id="path344" />&#10;	<path
   class="st11"
   d="m 118.4,14.6 v 0 0.7 0.1 0.7 0 c 0,0.4 0.3,0.7 0.7,0.7 0.4,0 0.7,-0.3 0.7,-0.7 v 0 -0.7 -0.1 -0.7 c 0,-0.4 -0.3,-0.7 -0.7,-0.7 -0.4,0 -0.7,0.3 -0.7,0.7 z"
   id="path345" />&#10;	<rect
   x="118.4"
   y="14.8"
   class="st0"
   width="1.4"
   height="1.1"
   id="rect345" />&#10;	<rect
   x="118.4"
   y="14.8"
   class="st10"
   width="1.4"
   height="1.1"
   id="rect346" />&#10;	<rect
   x="118.4"
   y="14.8"
   width="1.4"
   height="1.1"
   id="rect347" />&#10;</g>&#10;<g
   id="Artwork_3-2"
   transform="matrix(-1.3317155,0,0,-1.3317137,258.3491,95.560507)">&#10;	<path
   class="st4"
   d="m 117.4,15.5 v 2.3 c 0,0 0,0 0,0 v 0 h -2.3 c 0,0 0,0 0,0 v 0 -2.3 c 0,0 0,0 0,0 v 0 h 2.3 c 0,-0.1 0,-0.1 0,0 z"
   id="path347" />&#10;	<path
   class="st4"
   d="m 117.4,12.9 v 2.3 c 0,0 0,0 0,0 v 0 h -2.3 c 0,0 0,0 0,0 0,0 0,0 0,0 v -2.3 c 0,0 0,0 0,0 v 0 z"
   id="path348" />&#10;	<path
   class="st11"
   d="m 115.5,14.6 v 0 0.7 0.1 0.7 0 c 0,0.4 0.3,0.7 0.7,0.7 0.4,0 0.7,-0.3 0.7,-0.7 v 0 -0.7 -0.1 -0.7 c 0,-0.4 -0.3,-0.7 -0.7,-0.7 -0.4,0 -0.7,0.3 -0.7,0.7 z"
   id="path349" />&#10;	<rect
   x="115.5"
   y="14.8"
   class="st0"
   width="1.4"
   height="1.1"
   id="rect349" />&#10;	<rect
   x="115.5"
   y="14.8"
   class="st10"
   width="1.4"
   height="1.1"
   id="rect350" />&#10;	<rect
   x="115.5"
   y="14.8"
   width="1.4"
   height="1.1"
   id="rect351" />&#10;</g>&#10;<g
   id="Artwork_3-3"
   transform="matrix(-1.3317155,0,0,-1.3317137,258.3491,95.560507)">&#10;	<path
   class="st4"
   d="m 114.5,15.5 v 2.3 c 0,0 0,0 0,0 v 0 h -2.3 c 0,0 0,0 0,0 v 0 -2.3 c 0,0 0,0 0,0 v 0 h 2.3 c 0,-0.1 0,-0.1 0,0 z"
   id="path351" />&#10;	<path
   class="st4"
   d="m 114.5,12.9 v 2.3 c 0,0 0,0 0,0 v 0 h -2.3 c 0,0 0,0 0,0 0,0 0,0 0,0 v -2.3 c 0,0 0,0 0,0 v 0 z"
   id="path352" />&#10;	<path
   class="st11"
   d="m 112.6,14.6 v 0 0.7 0.1 0.7 0 c 0,0.4 0.3,0.7 0.7,0.7 0.4,0 0.7,-0.3 0.7,-0.7 v 0 -0.7 -0.1 -0.7 c 0,-0.4 -0.3,-0.7 -0.7,-0.7 -0.3,0 -0.7,0.3 -0.7,0.7 z"
   id="path353" />&#10;	<rect
   x="112.6"
   y="14.8"
   class="st0"
   width="1.4"
   height="1.1"
   id="rect353" />&#10;	<rect
   x="112.6"
   y="14.8"
   class="st10"
   width="1.4"
   height="1.1"
   id="rect354" />&#10;	<rect
   x="112.6"
   y="14.8"
   width="1.4"
   height="1.1"
   id="rect355" />&#10;</g>&#10;<g
   id="Artwork_3-4"
   transform="matrix(-1.3317155,0,0,-1.3317137,258.3491,95.560507)">&#10;	<path
   class="st4"
   d="m 118.5,21.1 v 2.3 c 0,0 0,0 0,0 v 0 h -2.3 c 0,0 0,0 0,0 v 0 -2.3 c 0,0 0,0 0,0 v 0 z"
   id="path355" />&#10;	<path
   class="st4"
   d="m 118.5,18.5 v 2.3 c 0,0 0,0 0,0 v 0 h -2.3 c 0,0 0,0 0,0 v 0 -2.3 c 0,0 0,0 0,0 v 0 z"
   id="path356" />&#10;	<path
   class="st11"
   d="m 116.6,20.2 v 0 0.7 0.1 0.7 0 c 0,0.4 0.3,0.7 0.7,0.7 0.4,0 0.7,-0.3 0.7,-0.7 v 0 -0.7 -0.1 -0.7 c 0,-0.4 -0.3,-0.7 -0.7,-0.7 -0.4,0 -0.7,0.4 -0.7,0.7 z"
   id="path357" />&#10;	<rect
   x="116.6"
   y="20.4"
   class="st0"
   width="1.4"
   height="1.1"
   id="rect357" />&#10;	<rect
   x="116.6"
   y="20.4"
   class="st10"
   width="1.4"
   height="1.1"
   id="rect358" />&#10;	<rect
   x="116.6"
   y="20.4"
   width="1.4"
   height="1.1"
   id="rect359" />&#10;</g>&#10;<g
   id="Artwork_3-5"
   transform="matrix(-1.3317155,0,0,-1.3317137,258.3491,95.560507)">&#10;	<path
   class="st4"
   d="m 137.7,24.3 v 2.3 c 0,0 0,0 0,0 h -2.3 c 0,0 0,0 0,0 v -2.3 c 0,0 0,0 0,0 h 2.3 c -0.1,-0.1 0,-0.1 0,0 z"
   id="path359" />&#10;	<path
   class="st4"
   d="m 135.1,24.3 v 2.3 c 0,0 0,0 0,0 h -2.3 c 0,0 0,0 0,0 v -2.3 c 0,0 0,0 0,0 h 2.3 c 0,-0.1 0,-0.1 0,0 z"
   id="path360" />&#10;	<path
   class="st11"
   d="m 134.5,26.1 v 0 h 0.7 0.1 0.7 v 0 c 0.4,0 0.7,-0.3 0.7,-0.7 0,-0.4 -0.3,-0.7 -0.7,-0.7 v 0 h -0.7 -0.1 -0.7 c -0.4,0 -0.7,0.3 -0.7,0.7 0,0.4 0.3,0.7 0.7,0.7 z"
   id="path361" />&#10;	<rect
   x="134.7"
   y="24.700001"
   class="st0"
   width="1.1"
   height="1.4"
   id="rect361" />&#10;	<rect
   x="134.7"
   y="24.700001"
   class="st10"
   width="1.1"
   height="1.4"
   id="rect362" />&#10;	<rect
   x="134.7"
   y="24.700001"
   width="1.1"
   height="1.4"
   id="rect363" />&#10;</g>&#10;<g
   id="Artwork_3-6"
   transform="matrix(-1.3317155,0,0,-1.3317137,258.3491,95.560507)">&#10;	<path
   class="st4"
   d="m 99.7,15.5 v 2.3 c 0,0 0,0 0,0 v 0 h -2.3 c 0,0 0,0 0,0 v 0 -2.3 c 0,0 0,0 0,0 v 0 h 2.3 c 0,-0.1 0,-0.1 0,0 z"
   id="path363" />&#10;	<path
   class="st4"
   d="m 99.7,12.9 v 2.3 c 0,0 0,0 0,0 v 0 h -2.3 c 0,0 0,0 0,0 0,0 0,0 0,0 v -2.3 c 0,0 0,0 0,0 v 0 z"
   id="path364" />&#10;	<path
   class="st11"
   d="m 97.9,14.6 v 0 0.7 0.1 0.7 0 c 0,0.4 0.3,0.7 0.7,0.7 0.4,0 0.7,-0.3 0.7,-0.7 v 0 -0.7 -0.1 -0.7 c 0,-0.4 -0.3,-0.7 -0.7,-0.7 -0.4,0 -0.7,0.3 -0.7,0.7 z"
   id="path365" />&#10;	<rect
   x="97.900002"
   y="14.8"
   class="st0"
   width="1.4"
   height="1.1"
   id="rect365" />&#10;	<rect
   x="97.900002"
   y="14.8"
   class="st10"
   width="1.4"
   height="1.1"
   id="rect366" />&#10;	<rect
   x="97.900002"
   y="14.8"
   width="1.4"
   height="1.1"
   id="rect367" />&#10;</g>&#10;<g
   id="Artwork_3-7"
   transform="matrix(-1.3317155,0,0,-1.3317137,258.3491,95.560507)">&#10;	<path
   class="st4"
   d="m 99.7,21.8 v 2.3 c 0,0 0,0 0,0 v 0 h -2.3 c 0,0 0,0 0,0 v 0 -2.3 c 0,0 0,0 0,0 v 0 z"
   id="path367" />&#10;	<path
   class="st4"
   d="m 99.7,19.3 v 2.3 c 0,0 0,0 0,0 v 0 h -2.3 c 0,0 0,0 0,0 v 0 -2.3 c 0,0 0,0 0,0 v 0 h 2.3 c 0,-0.1 0,-0.1 0,0 z"
   id="path368" />&#10;	<path
   class="st11"
   d="m 97.9,21 v 0 0.7 0.1 0.7 0 c 0,0.4 0.3,0.7 0.7,0.7 0.4,0 0.7,-0.3 0.7,-0.7 v 0 -0.7 -0.1 -0.7 c 0,-0.4 -0.3,-0.7 -0.7,-0.7 -0.4,0 -0.7,0.3 -0.7,0.7 z"
   id="path369" />&#10;	<rect
   x="97.900002"
   y="21.1"
   class="st0"
   width="1.4"
   height="1.1"
   id="rect369" />&#10;	<rect
   x="97.900002"
   y="21.1"
   class="st10"
   width="1.4"
   height="1.1"
   id="rect370" />&#10;	<rect
   x="97.900002"
   y="21.1"
   width="1.4"
   height="1.1"
   id="rect371" />&#10;</g>&#10;<g
   id="Artwork_3-8"
   transform="matrix(-1.3317155,0,0,-1.3317137,258.3491,95.560507)">&#10;	<path
   class="st4"
   d="m 98.1,52.6 v 2.3 c 0,0 0,0 0,0 v 0 h -2.3 c 0,0 0,0 0,0 v 0 -2.3 c 0,0 0,0 0,0 v 0 z"
   id="path371" />&#10;	<path
   class="st4"
   d="m 98.1,50.1 v 2.3 c 0,0 0,0 0,0 v 0 h -2.3 c 0,0 0,0 0,0 v 0 -2.3 c 0,0 0,0 0,0 v 0 h 2.3 c 0,-0.1 0,-0.1 0,0 z"
   id="path372" />&#10;	<path
   class="st11"
   d="m 96.2,51.8 v 0 0.7 0.1 0.7 0 c 0,0.4 0.3,0.7 0.7,0.7 0.4,0 0.7,-0.3 0.7,-0.7 v 0 -0.7 -0.1 -0.7 c 0,-0.4 -0.3,-0.7 -0.7,-0.7 -0.3,-0.1 -0.7,0.3 -0.7,0.7 z"
   id="path373" />&#10;	<rect
   x="96.199997"
   y="51.900002"
   class="st0"
   width="1.4"
   height="1.1"
   id="rect373" />&#10;	<rect
   x="96.199997"
   y="51.900002"
   class="st10"
   width="1.4"
   height="1.1"
   id="rect374" />&#10;	<rect
   x="96.199997"
   y="51.900002"
   width="1.4"
   height="1.1"
   id="rect375" />&#10;</g>&#10;<g
   id="Artwork_3-9"
   transform="matrix(-1.3317155,0,0,-1.3317137,258.3491,95.560507)">&#10;	<path
   class="st4"
   d="m 101,52.6 v 2.3 c 0,0 0,0 0,0 v 0 h -2.3 c 0,0 0,0 0,0 v 0 -2.3 c 0,0 0,0 0,0 v 0 h 2.3 c -0.1,0 0,0 0,0 z"
   id="path375" />&#10;	<path
   class="st4"
   d="m 101,50.1 v 2.3 c 0,0 0,0 0,0 v 0 h -2.3 c 0,0 0,0 0,0 v 0 -2.3 c 0,0 0,0 0,0 v 0 h 2.3 c -0.1,-0.1 0,-0.1 0,0 z"
   id="path376" />&#10;	<path
   class="st11"
   d="m 99.1,51.8 v 0 0.7 0.1 0.7 0 c 0,0.4 0.3,0.7 0.7,0.7 0.4,0 0.7,-0.3 0.7,-0.7 v 0 -0.7 -0.1 -0.7 c 0,-0.4 -0.3,-0.7 -0.7,-0.7 -0.4,-0.1 -0.7,0.2 -0.7,0.7 0,-0.1 0,-0.1 0,0 z"
   id="path377" />&#10;	<rect
   x="99.099998"
   y="51.900002"
   class="st0"
   width="1.4"
   height="1.1"
   id="rect377" />&#10;	<rect
   x="99.099998"
   y="51.900002"
   class="st10"
   width="1.4"
   height="1.1"
   id="rect378" />&#10;	<rect
   x="99.099998"
   y="51.900002"
   width="1.4"
   height="1.1"
   id="rect379" />&#10;</g>&#10;<g
   id="Artwork_3-10"
   transform="matrix(-1.3317155,0,0,-1.3317137,258.3491,95.560507)">&#10;	<path
   class="st4"
   d="m 117.7,52.6 v 2.3 c 0,0 0,0 0,0 v 0 h -2.3 c 0,0 0,0 0,0 v 0 -2.3 c 0,0 0,0 0,0 v 0 z"
   id="path379" />&#10;	<path
   class="st4"
   d="m 117.7,50.1 v 2.3 c 0,0 0,0 0,0 v 0 h -2.3 c 0,0 0,0 0,0 v 0 -2.3 c 0,0 0,0 0,0 v 0 h 2.3 c 0,-0.1 0,-0.1 0,0 z"
   id="path380" />&#10;	<path
   class="st11"
   d="m 115.8,51.8 v 0 0.7 0.1 0.7 0 c 0,0.4 0.3,0.7 0.7,0.7 0.4,0 0.7,-0.3 0.7,-0.7 v 0 -0.7 -0.1 -0.7 c 0,-0.4 -0.3,-0.7 -0.7,-0.7 -0.4,-0.1 -0.7,0.2 -0.7,0.7 0,-0.1 0,-0.1 0,0 z"
   id="path381" />&#10;	<rect
   x="115.8"
   y="51.900002"
   class="st0"
   width="1.4"
   height="1.1"
   id="rect381" />&#10;	<rect
   x="115.8"
   y="51.900002"
   class="st10"
   width="1.4"
   height="1.1"
   id="rect382" />&#10;	<rect
   x="115.8"
   y="51.900002"
   width="1.4"
   height="1.1"
   id="rect383" />&#10;</g>&#10;<g
   id="Artwork_3-11"
   transform="matrix(-1.3317155,0,0,-1.3317137,258.3491,95.560507)">&#10;	<path
   class="st4"
   d="m 112.6,54.4 v 2.3 c 0,0 0,0 0,0 v 0 h -2.3 c 0,0 0,0 0,0 v 0 -2.3 c 0,0 0,0 0,0 v 0 z"
   id="path383" />&#10;	<path
   class="st4"
   d="m 110.1,54.4 v 2.3 c 0,0 0,0 0,0 v 0 h -2.3 c 0,0 0,0 0,0 v 0 -2.3 c 0,0 0,0 0,0 v 0 h 2.3 c -0.1,0 0,0 0,0 z"
   id="path384" />&#10;	<path
   class="st11"
   d="m 109.5,56.3 v 0 h 0.7 0.1 0.7 v 0 c 0.4,0 0.7,-0.3 0.7,-0.7 0,-0.4 -0.3,-0.7 -0.7,-0.7 v 0 h -0.7 -0.1 -0.7 c -0.4,0 -0.7,0.3 -0.7,0.7 0,0.4 0.3,0.7 0.7,0.7 z"
   id="path385" />&#10;	<rect
   x="109.6"
   y="54.900002"
   class="st0"
   width="1.1"
   height="1.4"
   id="rect385" />&#10;	<rect
   x="109.6"
   y="54.900002"
   class="st10"
   width="1.1"
   height="1.4"
   id="rect386" />&#10;	<rect
   x="109.6"
   y="54.900002"
   width="1.1"
   height="1.4"
   id="rect387" />&#10;</g>&#10;<g
   id="Artwork_3-12"
   transform="matrix(-1.3317155,0,0,-1.3317137,258.3491,95.560507)">&#10;	<path
   class="st4"
   d="m 106.6,54.4 v 2.3 c 0,0 0,0 0,0 v 0 h -2.3 c 0,0 0,0 0,0 v 0 -2.3 c 0,0 0,0 0,0 v 0 z"
   id="path387" />&#10;	<path
   class="st4"
   d="m 104,54.4 v 2.3 c 0,0 0,0 0,0 v 0 h -2.3 c 0,0 0,0 0,0 v 0 -2.3 c 0,0 0,0 0,0 v 0 z"
   id="path388" />&#10;	<path
   class="st11"
   d="m 103.5,56.3 v 0 h 0.7 0.1 0.7 v 0 c 0.4,0 0.7,-0.3 0.7,-0.7 0,-0.4 -0.3,-0.7 -0.7,-0.7 v 0 h -0.7 -0.1 -0.7 c -0.4,0 -0.7,0.3 -0.7,0.7 -0.1,0.4 0.3,0.7 0.7,0.7 z"
   id="path389" />&#10;	<rect
   x="103.6"
   y="54.900002"
   class="st0"
   width="1.1"
   height="1.4"
   id="rect389" />&#10;	<rect
   x="103.6"
   y="54.900002"
   class="st10"
   width="1.1"
   height="1.4"
   id="rect390" />&#10;	<rect
   x="103.6"
   y="54.900002"
   width="1.1"
   height="1.4"
   id="rect391" />&#10;</g>&#10;<g
   id="Artwork_3-13"
   transform="matrix(-1.3317155,0,0,-1.3317137,258.3491,95.560507)">&#10;	<path
   class="st4"
   d="m 112.6,57.3 v 2.3 c 0,0 0,0 0,0 v 0 h -2.3 c 0,0 0,0 0,0 v 0 -2.3 c 0,0 0,0 0,0 v 0 h 2.3 c 0,-0.1 0,0 0,0 z"
   id="path391" />&#10;	<path
   class="st4"
   d="m 110.1,57.3 v 2.3 c 0,0 0,0 0,0 v 0 h -2.3 c 0,0 0,0 0,0 v 0 -2.3 c 0,0 0,0 0,0 v 0 h 2.3 c -0.1,-0.1 0,0 0,0 z"
   id="path392" />&#10;	<path
   class="st11"
   d="m 109.5,59.1 v 0 h 0.7 0.1 0.7 v 0 c 0.4,0 0.7,-0.3 0.7,-0.7 0,-0.4 -0.3,-0.7 -0.7,-0.7 v 0 h -0.7 -0.1 -0.7 c -0.4,0 -0.7,0.3 -0.7,0.7 0,0.4 0.3,0.7 0.7,0.7 z"
   id="path393" />&#10;	<rect
   x="109.6"
   y="57.700001"
   class="st0"
   width="1.1"
   height="1.4"
   id="rect393" />&#10;	<rect
   x="109.6"
   y="57.700001"
   class="st10"
   width="1.1"
   height="1.4"
   id="rect394" />&#10;	<rect
   x="109.6"
   y="57.700001"
   width="1.1"
   height="1.4"
   id="rect395" />&#10;</g>&#10;<g
   id="Artwork_3-14"
   transform="matrix(-1.3317155,0,0,-1.3317137,258.3491,95.560507)">&#10;	<path
   class="st4"
   d="m 106.6,57.3 v 2.3 c 0,0 0,0 0,0 v 0 h -2.3 c 0,0 0,0 0,0 v 0 -2.3 c 0,0 0,0 0,0 v 0 h 2.3 c 0,-0.1 0,0 0,0 z"
   id="path395" />&#10;	<path
   class="st4"
   d="m 104,57.3 v 2.3 c 0,0 0,0 0,0 v 0 h -2.3 c 0,0 0,0 0,0 v 0 -2.3 c 0,0 0,0 0,0 v 0 h 2.3 c 0,-0.1 0,0 0,0 z"
   id="path396" />&#10;	<path
   class="st11"
   d="m 103.5,59.1 v 0 h 0.7 0.1 0.7 v 0 c 0.4,0 0.7,-0.3 0.7,-0.7 0,-0.4 -0.3,-0.7 -0.7,-0.7 v 0 h -0.7 -0.1 -0.7 c -0.4,0 -0.7,0.3 -0.7,0.7 -0.1,0.4 0.3,0.7 0.7,0.7 z"
   id="path397" />&#10;	<rect
   x="103.6"
   y="57.700001"
   class="st0"
   width="1.1"
   height="1.4"
   id="rect397" />&#10;	<rect
   x="103.6"
   y="57.700001"
   class="st10"
   width="1.1"
   height="1.4"
   id="rect398" />&#10;	<rect
   x="103.6"
   y="57.700001"
   width="1.1"
   height="1.4"
   id="rect399" />&#10;</g>&#10;<g
   id="Artwork_3-15"
   transform="matrix(-1.3317155,0,0,-1.3317137,258.3491,95.560507)">&#10;	<path
   class="st4"
   d="m 105.9,46.8 v 2.3 c 0,0 0,0 0,0 v 0 h -2.3 c 0,0 0,0 0,0 v 0 -2.3 c 0,0 0,0 0,0 v 0 z"
   id="path399" />&#10;	<path
   class="st4"
   d="m 103.3,46.8 v 2.3 c 0,0 0,0 0,0 v 0 H 101 c 0,0 0,0 0,0 v 0 -2.3 c 0,0 0,0 0,0 v 0 z"
   id="path400" />&#10;	<path
   class="st11"
   d="m 102.7,48.7 v 0 h 0.7 0.1 0.7 v 0 c 0.4,0 0.7,-0.3 0.7,-0.7 0,-0.4 -0.3,-0.7 -0.7,-0.7 v 0 h -0.7 -0.1 -0.7 c -0.4,0 -0.7,0.3 -0.7,0.7 0,0.4 0.3,0.7 0.7,0.7 z"
   id="path401" />&#10;	<rect
   x="102.9"
   y="47.200001"
   class="st0"
   width="1.1"
   height="1.4"
   id="rect401" />&#10;	<rect
   x="102.9"
   y="47.200001"
   class="st10"
   width="1.1"
   height="1.4"
   id="rect402" />&#10;	<rect
   x="102.9"
   y="47.200001"
   width="1.1"
   height="1.4"
   id="rect403" />&#10;</g>&#10;<g
   id="Artwork_3-16"
   transform="matrix(-1.3317155,0,0,-1.3317137,258.3491,95.560507)">&#10;	<path
   class="st11"
   d="m 130,58.9 v 0 h 1.2 0.1 1.2 v 0 c 0.7,0 1.2,-0.6 1.2,-1.2 0,-0.6 -0.5,-1.1 -1.2,-1.2 v 0 h -1.2 -0.1 -1.2 c -0.7,0 -1.2,0.5 -1.2,1.2 0,0.6 0.6,1.2 1.2,1.2 z"
   id="path403" />&#10;	<rect
   x="130.3"
   y="56.5"
   class="st0"
   width="1.8"
   height="2.4000001"
   id="rect404" />&#10;	<rect
   x="130.3"
   y="56.5"
   class="st10"
   width="1.8"
   height="2.4000001"
   id="rect405" />&#10;	<rect
   x="130.3"
   y="56.5"
   width="1.8"
   height="2.4000001"
   id="rect406" />&#10;</g>&#10;<g
   id="Artwork_3-17"
   transform="matrix(-1.3317155,0,0,-1.3317137,258.3491,95.560507)">&#10;	<path
   class="st4"
   d="m 135.7,64.5 v 2.3 c 0,0 0,0 0,0 v 0 h -2.3 c 0,0 0,0 0,0 v 0 -2.3 c 0,0 0,0 0,0 v 0 h 2.3 c -0.1,0 0,0 0,0 z"
   id="path406" />&#10;	<path
   class="st4"
   d="m 135.7,61.9 v 2.3 c 0,0 0,0 0,0 v 0 h -2.3 c 0,0 0,0 0,0 v 0 -2.3 c 0,0 0,0 0,0 h 2.3 c -0.1,0 0,0 0,0 z"
   id="path407" />&#10;	<path
   class="st11"
   d="m 133.8,63.6 v 0 0.7 0.1 0.7 0 c 0,0.4 0.3,0.7 0.7,0.7 0.4,0 0.7,-0.3 0.7,-0.7 v 0 -0.7 -0.1 -0.7 c 0,-0.4 -0.3,-0.7 -0.7,-0.7 -0.4,0 -0.7,0.3 -0.7,0.7 z"
   id="path408" />&#10;	<rect
   x="133.8"
   y="63.799999"
   class="st0"
   width="1.4"
   height="1.1"
   id="rect408" />&#10;	<rect
   x="133.8"
   y="63.799999"
   class="st10"
   width="1.4"
   height="1.1"
   id="rect409" />&#10;	<rect
   x="133.8"
   y="63.799999"
   width="1.4"
   height="1.1"
   id="rect410" />&#10;</g>&#10;<g
   id="Artwork_3-18"
   transform="matrix(-1.3317155,0,0,-1.3317137,258.3491,95.560507)">&#10;	<path
   class="st4"
   d="m 149.4,64.5 v 2.3 c 0,0 0,0 0,0 v 0 h -2.3 c 0,0 0,0 0,0 v 0 -2.3 c 0,0 0,0 0,0 v 0 z"
   id="path410" />&#10;	<path
   class="st4"
   d="m 149.4,61.9 v 2.3 c 0,0 0,0 0,0 v 0 h -2.3 c 0,0 0,0 0,0 v 0 -2.3 c 0,0 0,0 0,0 z"
   id="path411" />&#10;	<path
   class="st11"
   d="m 147.5,63.6 v 0 0.7 0.1 0.7 0 c 0,0.4 0.3,0.7 0.7,0.7 0.4,0 0.7,-0.3 0.7,-0.7 v 0 -0.7 -0.1 -0.7 c 0,-0.4 -0.3,-0.7 -0.7,-0.7 -0.3,0 -0.6,0.3 -0.7,0.7 z"
   id="path412" />&#10;	<rect
   x="147.5"
   y="63.799999"
   class="st0"
   width="1.4"
   height="1.1"
   id="rect412" />&#10;	<rect
   x="147.5"
   y="63.799999"
   class="st10"
   width="1.4"
   height="1.1"
   id="rect413" />&#10;	<rect
   x="147.5"
   y="63.799999"
   width="1.4"
   height="1.1"
   id="rect414" />&#10;</g>&#10;<g
   id="Artwork_3-19"
   transform="matrix(-1.3317155,0,0,-1.3317137,258.3491,95.560507)">&#10;	<path
   class="st4"
   d="m 159.6,50.4 v 2.3 c 0,0 0,0 0,0 v 0 h -2.3 c 0,0 0,0 0,0 v -2.3 c 0,0 0,0 0,0 z"
   id="path414" />&#10;	<path
   class="st4"
   d="m 159.6,47.9 v 2.3 c 0,0 0,0 0,0 h -2.3 c 0,0 0,0 0,0 v -2.3 c 0,0 0,0 0,0 z"
   id="path415" />&#10;	<path
   class="st11"
   d="m 157.7,49.6 v 0 0.7 0.1 0.7 0 c 0,0.4 0.3,0.7 0.7,0.7 0.4,0 0.7,-0.3 0.7,-0.7 v 0 -0.7 -0.1 -0.7 c 0,-0.4 -0.3,-0.7 -0.7,-0.7 -0.4,0 -0.7,0.3 -0.7,0.7 z"
   id="path416" />&#10;	<rect
   x="157.7"
   y="49.799999"
   class="st0"
   width="1.4"
   height="1.1"
   id="rect416" />&#10;	<rect
   x="157.7"
   y="49.799999"
   class="st10"
   width="1.4"
   height="1.1"
   id="rect417" />&#10;	<rect
   x="157.7"
   y="49.799999"
   width="1.4"
   height="1.1"
   id="rect418" />&#10;</g>&#10;<g
   id="Artwork_3-20"
   transform="matrix(-1.3317155,0,0,-1.3317137,258.3491,95.560507)">&#10;	<path
   class="st4"
   d="m 172.4,28.5 v 2.3 c 0,0 0,0 0,0 v 0 h -2.3 c 0,0 0,0 0,0 v 0 -2.3 c 0,0 0,0 0,0 v 0 h 2.3 c 0,-0.1 0,0 0,0 z"
   id="path418" />&#10;	<path
   class="st4"
   d="m 172.4,25.9 v 2.3 c 0,0 0,0 0,0 v 0 h -2.3 c 0,0 0,0 0,0 v 0 -2.3 c 0,0 0,0 0,0 v 0 z"
   id="path419" />&#10;	<path
   class="st11"
   d="m 170.5,27.6 v 0 0.7 0.1 0.7 0 c 0,0.4 0.3,0.7 0.7,0.7 0.4,0 0.7,-0.3 0.7,-0.7 v 0 -0.7 -0.1 -0.7 c 0,-0.4 -0.3,-0.7 -0.7,-0.7 -0.4,0 -0.7,0.3 -0.7,0.7 z"
   id="path420" />&#10;	<rect
   x="170.5"
   y="27.799999"
   class="st0"
   width="1.4"
   height="1.1"
   id="rect420" />&#10;	<rect
   x="170.5"
   y="27.799999"
   class="st10"
   width="1.4"
   height="1.1"
   id="rect421" />&#10;	<rect
   x="170.5"
   y="27.799999"
   width="1.4"
   height="1.1"
   id="rect422" />&#10;</g>&#10;<g
   id="Artwork_3-21"
   transform="matrix(-1.3317155,0,0,-1.3317137,258.3491,95.560507)">&#10;	<path
   class="st4"
   d="m 165.2,32.1 v 2.3 c 0,0 0,0 0,0 h -2.3 c 0,0 0,0 0,0 v -2.3 c 0,0 0,0 0,0 h 2.3 c 0,-0.1 0,-0.1 0,0 z"
   id="path422" />&#10;	<path
   class="st4"
   d="m 162.6,32.1 v 2.3 c 0,0 0,0 0,0 h -2.3 c 0,0 0,0 0,0 v -2.3 c 0,0 0,0 0,0 h 2.3 c 0,-0.1 0,-0.1 0,0 z"
   id="path423" />&#10;	<path
   class="st11"
   d="m 162.1,33.9 v 0 h 0.7 0.1 0.7 v 0 c 0.4,0 0.7,-0.3 0.7,-0.7 0,-0.4 -0.3,-0.7 -0.7,-0.7 v 0 h -0.7 -0.1 -0.7 c -0.4,0 -0.7,0.3 -0.7,0.7 -0.1,0.4 0.3,0.7 0.7,0.7 z"
   id="path424" />&#10;	<rect
   x="162.2"
   y="32.5"
   class="st0"
   width="1.1"
   height="1.4"
   id="rect424" />&#10;	<rect
   x="162.2"
   y="32.5"
   class="st10"
   width="1.1"
   height="1.4"
   id="rect425" />&#10;	<rect
   x="162.2"
   y="32.5"
   width="1.1"
   height="1.4"
   id="rect426" />&#10;</g>&#10;<g
   id="Artwork_3-22"
   transform="matrix(-1.3317155,0,0,-1.3317137,258.3491,95.560507)">&#10;	<path
   class="st4"
   d="m 177.1,45.3 v 2.3 c 0,0 0,0 0,0 v 0 h -2.3 c 0,0 0,0 0,0 v -2.3 c 0,0 0,0 0,0 h 2.3 c -0.1,0 0,0 0,0 z"
   id="path426" />&#10;	<path
   class="st4"
   d="m 174.5,45.3 v 2.3 c 0,0 0,0 0,0 h -2.3 c 0,0 0,0 0,0 v -2.3 c 0,0 0,0 0,0 z"
   id="path427" />&#10;	<path
   class="st11"
   d="m 173.9,47.1 v 0 h 0.7 0.1 0.7 v 0 c 0.4,0 0.7,-0.3 0.7,-0.7 0,-0.4 -0.3,-0.7 -0.7,-0.7 v 0 h -0.7 -0.1 -0.7 c -0.4,0 -0.7,0.3 -0.7,0.7 0,0.4 0.3,0.7 0.7,0.7 z"
   id="path428" />&#10;	<rect
   x="174.10001"
   y="45.700001"
   class="st0"
   width="1.1"
   height="1.4"
   id="rect428" />&#10;	<rect
   x="174.10001"
   y="45.700001"
   class="st10"
   width="1.1"
   height="1.4"
   id="rect429" />&#10;	<rect
   x="174.10001"
   y="45.700001"
   width="1.1"
   height="1.4"
   id="rect430" />&#10;</g>&#10;<g
   id="Artwork_3-23"
   transform="matrix(-1.3317155,0,0,-1.3317137,258.3491,95.560507)">&#10;	<path
   class="st4"
   d="m 180.4,56.3 v 2.3 c 0,0 0,0 0,0 v 0 h -2.3 c 0,0 0,0 0,0 v -2.3 c 0,0 0,0 0,0 h 2.3 c -0.1,0 0,0 0,0 z"
   id="path430" />&#10;	<path
   class="st4"
   d="m 177.8,56.3 v 2.3 c 0,0 0,0 0,0 h -2.3 c 0,0 0,0 0,0 v -2.3 c 0,0 0,0 0,0 z"
   id="path431" />&#10;	<path
   class="st11"
   d="m 177.2,58.1 v 0 h 0.7 0.1 0.7 v 0 c 0.4,0 0.7,-0.3 0.7,-0.7 0,-0.4 -0.3,-0.7 -0.7,-0.7 v 0 h -0.7 -0.1 -0.7 c -0.4,0 -0.7,0.3 -0.7,0.7 0,0.4 0.3,0.7 0.7,0.7 z"
   id="path432" />&#10;	<rect
   x="177.39999"
   y="56.700001"
   class="st0"
   width="1.1"
   height="1.4"
   id="rect432" />&#10;	<rect
   x="177.39999"
   y="56.700001"
   class="st10"
   width="1.1"
   height="1.4"
   id="rect433" />&#10;	<rect
   x="177.39999"
   y="56.700001"
   width="1.1"
   height="1.4"
   id="rect434" />&#10;</g>&#10;<g
   id="Artwork_3-24"
   transform="matrix(-1.3317155,0,0,-1.3317137,258.3491,95.560507)">&#10;	<path
   class="st4"
   d="M 183.8,20.7 V 23 c 0,0 0,0 0,0 v 0 h -2.3 c 0,0 0,0 0,0 v 0 -2.3 c 0,0 0,0 0,0 v 0 z"
   id="path434" />&#10;	<path
   class="st4"
   d="M 181.3,20.7 V 23 c 0,0 0,0 0,0 v 0 H 179 c 0,0 0,0 0,0 v 0 -2.3 c 0,0 0,0 0,0 v 0 z"
   id="path435" />&#10;	<path
   class="st11"
   d="m 180.7,22.5 v 0 h 0.7 0.1 0.7 v 0 c 0.4,0 0.7,-0.3 0.7,-0.7 0,-0.4 -0.3,-0.7 -0.7,-0.7 v 0 h -0.7 -0.1 -0.7 c -0.4,0 -0.7,0.3 -0.7,0.7 0,0.4 0.3,0.7 0.7,0.7 z"
   id="path436" />&#10;	<rect
   x="180.89999"
   y="21.1"
   class="st0"
   width="1.1"
   height="1.4"
   id="rect436" />&#10;	<rect
   x="180.89999"
   y="21.1"
   class="st10"
   width="1.1"
   height="1.4"
   id="rect437" />&#10;	<rect
   x="180.89999"
   y="21.1"
   width="1.1"
   height="1.4"
   id="rect438" />&#10;</g>&#10;<g
   id="Artwork_3-25"
   transform="matrix(-1.3317155,0,0,-1.3317137,258.3491,95.560507)">&#10;	<path
   class="st4"
   d="m 177.2,23.2 v 2.3 c 0,0 0,0 0,0 v 0 h -2.3 c 0,0 0,0 0,0 v 0 -2.3 c 0,0 0,0 0,0 v 0 h 2.3 c 0,-0.1 0,-0.1 0,0 z"
   id="path438" />&#10;	<path
   class="st4"
   d="m 177.2,20.6 v 2.3 c 0,0 0,0 0,0 v 0 h -2.3 c 0,0 0,0 0,0 v 0 -2.3 c 0,0 0,0 0,0 v 0 z"
   id="path439" />&#10;	<path
   class="st11"
   d="m 175.3,22.3 v 0 0.7 0.1 0.7 0 c 0,0.4 0.3,0.7 0.7,0.7 0.4,0 0.7,-0.3 0.7,-0.7 v 0 -0.7 -0.1 -0.7 c 0,-0.4 -0.3,-0.7 -0.7,-0.7 -0.3,0 -0.7,0.3 -0.7,0.7 z"
   id="path440" />&#10;	<rect
   x="175.3"
   y="22.5"
   class="st0"
   width="1.4"
   height="1.1"
   id="rect440" />&#10;	<rect
   x="175.3"
   y="22.5"
   class="st10"
   width="1.4"
   height="1.1"
   id="rect441" />&#10;	<rect
   x="175.3"
   y="22.5"
   width="1.4"
   height="1.1"
   id="rect442" />&#10;</g>&#10;<g
   id="Artwork_3-26"
   transform="matrix(-1.3317155,0,0,-1.3317137,258.3491,95.560507)">&#10;	<path
   class="st4"
   d="m 162,19.8 v 2.3 c 0,0 0,0 0,0 h -2.3 c 0,0 0,0 0,0 v -2.3 c 0,0 0,0 0,0 z"
   id="path442" />&#10;	<path
   class="st4"
   d="m 162,17.3 v 2.3 c 0,0 0,0 0,0 h -2.3 c 0,0 0,0 0,0 v -2.3 c 0,0 0,0 0,0 h 2.3 c 0,-0.1 0,-0.1 0,0 z"
   id="path443" />&#10;	<path
   class="st11"
   d="m 160.2,19 v 0 0.7 0.1 0.7 0 c 0,0.4 0.3,0.7 0.7,0.7 0.4,0 0.7,-0.3 0.7,-0.7 v 0 -0.7 -0.1 -0.7 c 0,-0.4 -0.3,-0.7 -0.7,-0.7 -0.4,0 -0.7,0.3 -0.7,0.7 z"
   id="path444" />&#10;	<rect
   x="160.2"
   y="19.1"
   class="st0"
   width="1.4"
   height="1.1"
   id="rect444" />&#10;	<rect
   x="160.2"
   y="19.1"
   class="st10"
   width="1.4"
   height="1.1"
   id="rect445" />&#10;	<rect
   x="160.2"
   y="19.1"
   width="1.4"
   height="1.1"
   id="rect446" />&#10;</g>&#10;<g
   id="Artwork_3-27"
   transform="matrix(-1.3317155,0,0,-1.3317137,258.3491,95.560507)">&#10;	<path
   class="st4"
   d="m 178.4,5.1 v 2.3 c 0,0 0,0 0,0 v 0 h -2.3 c 0,0 0,0 0,0 0,0 0,0 0,0 V 5.1 c 0,0 0,0 0,0 v 0 z"
   id="path446" />&#10;	<path
   class="st4"
   d="m 178.4,7.6 v 2.3 c 0,0 0,0 0,0 v 0 h -2.3 c 0,0 0,0 0,0 v 0 -2.3 c 0,0 0,0 0,0 v 0 z"
   id="path447" />&#10;	<path
   class="st11"
   d="m 177.9,8.2 v 0 -0.7 -0.1 -0.7 0 c 0,-0.4 -0.3,-0.7 -0.7,-0.7 -0.4,0 -0.7,0.3 -0.7,0.7 v 0 0.7 0.1 0.7 c 0,0.4 0.3,0.7 0.7,0.7 0.4,0 0.7,-0.3 0.7,-0.7 z"
   id="path448" />&#10;	<rect
   x="176.5"
   y="7"
   class="st0"
   width="1.4"
   height="1.1"
   id="rect448" />&#10;	<rect
   x="176.5"
   y="7"
   class="st10"
   width="1.4"
   height="1.1"
   id="rect449" />&#10;	<rect
   x="176.5"
   y="7"
   width="1.4"
   height="1.1"
   id="rect450" />&#10;</g>&#10;<g
   id="Artwork_3-28"
   transform="matrix(-1.3317155,0,0,-1.3317137,258.3491,95.560507)">&#10;	<path
   class="st4"
   d="m 174.5,1.2 v 2.3 c 0,0 0,0 0,0 v 0 h -2.3 c 0,0 0,0 0,0 v 0 -2.3 c 0,0 0,0 0,0 v 0 h 2.3 c 0,-0.1 0,-0.1 0,0 z"
   id="path450" />&#10;	<path
   class="st4"
   d="m 171.9,1.2 v 2.3 c 0,0 0,0 0,0 v 0 h -2.3 c 0,0 0,0 0,0 v 0 -2.3 c 0,0 0,0 0,0 v 0 h 2.3 c 0,-0.1 0,-0.1 0,0 z"
   id="path451" />&#10;	<path
   class="st11"
   d="m 171.3,3 v 0 h 0.7 0.1 0.7 v 0 c 0.4,0 0.7,-0.3 0.7,-0.7 0,-0.4 -0.3,-0.7 -0.7,-0.7 v 0 h -0.7 -0.1 -0.7 c -0.4,0 -0.7,0.3 -0.7,0.7 0,0.4 0.3,0.7 0.7,0.7 z"
   id="path452" />&#10;	<rect
   x="171.5"
   y="1.6"
   class="st0"
   width="1.1"
   height="1.4"
   id="rect452" />&#10;	<rect
   x="171.5"
   y="1.6"
   class="st10"
   width="1.1"
   height="1.4"
   id="rect453" />&#10;	<rect
   x="171.5"
   y="1.6"
   width="1.1"
   height="1.4"
   id="rect454" />&#10;</g>&#10;<g
   id="Artwork_3-29"
   transform="matrix(-1.3317155,0,0,-1.3317137,258.3491,95.560507)">&#10;	<path
   class="st4"
   d="m 168.7,1.2 v 2.3 c 0,0 0,0 0,0 v 0 h -2.3 c 0,0 0,0 0,0 v 0 -2.3 c 0,0 0,0 0,0 v 0 h 2.3 c 0,-0.1 0,-0.1 0,0 z"
   id="path454" />&#10;	<path
   class="st4"
   d="m 166.2,1.2 v 2.3 c 0,0 0,0 0,0 v 0 h -2.3 c 0,0 0,0 0,0 v 0 -2.3 c 0,0 0,0 0,0 v 0 h 2.3 c 0,-0.1 0,-0.1 0,0 z"
   id="path455" />&#10;	<path
   class="st11"
   d="m 165.6,3 v 0 h 0.7 0.1 0.7 v 0 c 0.4,0 0.7,-0.3 0.7,-0.7 0,-0.4 -0.3,-0.7 -0.7,-0.7 v 0 h -0.7 -0.1 -0.7 c -0.4,0 -0.7,0.3 -0.7,0.7 0,0.4 0.3,0.7 0.7,0.7 z"
   id="path456" />&#10;	<rect
   x="165.8"
   y="1.6"
   class="st0"
   width="1.1"
   height="1.4"
   id="rect456" />&#10;	<rect
   x="165.8"
   y="1.6"
   class="st10"
   width="1.1"
   height="1.4"
   id="rect457" />&#10;	<rect
   x="165.8"
   y="1.6"
   width="1.1"
   height="1.4"
   id="rect458" />&#10;</g>&#10;<g
   id="Artwork_3-30"
   transform="matrix(-1.3317155,0,0,-1.3317137,258.3491,95.560507)">&#10;	<path
   class="st4"
   d="m 19.7,39.9 v 2.3 c 0,0 0,0 0,0 v 0 h -2.3 c 0,0 0,0 0,0 v 0 -2.3 c 0,0 0,0 0,0 h 2.3 c 0,-0.1 0,0 0,0 z"
   id="path458" />&#10;	<path
   class="st4"
   d="m 19.7,37.3 v 2.3 c 0,0 0,0 0,0 v 0 h -2.3 c 0,0 0,0 0,0 v 0 -2.3 c 0,0 0,0 0,0 z"
   id="path459" />&#10;	<path
   class="st11"
   d="m 17.9,39 v 0 0.7 0.1 0.7 0 c 0,0.4 0.3,0.7 0.7,0.7 0.4,0 0.7,-0.3 0.7,-0.7 v 0 -0.7 -0.1 -0.7 c 0,-0.4 -0.3,-0.7 -0.7,-0.7 -0.4,0 -0.7,0.3 -0.7,0.7 z"
   id="path460" />&#10;	<rect
   x="17.9"
   y="39.200001"
   class="st0"
   width="1.4"
   height="1.1"
   id="rect460" />&#10;	<rect
   x="17.9"
   y="39.200001"
   class="st10"
   width="1.4"
   height="1.1"
   id="rect461" />&#10;	<rect
   x="17.9"
   y="39.200001"
   width="1.4"
   height="1.1"
   id="rect462" />&#10;</g>&#10;<g
   id="Artwork_3-31"
   transform="matrix(-1.3317155,0,0,-1.3317137,258.3491,95.560507)">&#10;	<path
   class="st4"
   d="m 19.7,34.3 v 2.3 c 0,0 0,0 0,0 v 0 h -2.3 c 0,0 0,0 0,0 v 0 -2.3 c 0,0 0,0 0,0 z"
   id="path462" />&#10;	<path
   class="st4"
   d="M 19.7,31.8 V 34 c 0,0 0,0 0,0 v 0 h -2.3 c 0,0 0,0 0,0 v 0 -2.3 c 0,0 0,0 0,0 l 2.3,0.1 c 0,-0.1 0,-0.1 0,0 z"
   id="path463" />&#10;	<path
   class="st11"
   d="m 17.9,33.5 v 0 0.7 0.1 0.7 0 c 0,0.4 0.3,0.7 0.7,0.7 0.4,0 0.7,-0.3 0.7,-0.7 v 0 -0.7 -0.1 -0.7 c 0,-0.4 -0.3,-0.7 -0.7,-0.7 -0.4,0 -0.7,0.3 -0.7,0.7 z"
   id="path464" />&#10;	<rect
   x="17.9"
   y="33.599998"
   class="st0"
   width="1.4"
   height="1.1"
   id="rect464" />&#10;	<rect
   x="17.9"
   y="33.599998"
   class="st10"
   width="1.4"
   height="1.1"
   id="rect465" />&#10;	<rect
   x="17.9"
   y="33.599998"
   width="1.4"
   height="1.1"
   id="rect466" />&#10;</g>&#10;<g
   id="Artwork_3-32"
   transform="matrix(-1.3317155,0,0,-1.3317137,258.3491,95.560507)">&#10;	<path
   class="st4"
   d="m 16.6,34.3 v 2.3 c 0,0 0,0 0,0 v 0 h -2.3 c 0,0 0,0 0,0 v 0 -2.3 c 0,0 0,0 0,0 h 2.3 c -0.1,0 0,0 0,0 z"
   id="path466" />&#10;	<path
   class="st4"
   d="m 14,34.3 v 2.3 c 0,0 0,0 0,0 h -2.3 c 0,0 0,0 0,0 v 0 -2.3 c 0,0 0,0 0,0 z"
   id="path467" />&#10;	<path
   class="st11"
   d="m 13.4,36.2 v 0 h 0.7 0.1 0.7 v 0 c 0.4,0 0.7,-0.3 0.7,-0.7 0,-0.4 -0.3,-0.7 -0.7,-0.7 v 0 h -0.7 -0.1 -0.7 c -0.4,0 -0.7,0.3 -0.7,0.7 0,0.3 0.3,0.7 0.7,0.7 z"
   id="path468" />&#10;	<rect
   x="13.6"
   y="34.700001"
   class="st0"
   width="1.1"
   height="1.4"
   id="rect468" />&#10;	<rect
   x="13.6"
   y="34.700001"
   class="st10"
   width="1.1"
   height="1.4"
   id="rect469" />&#10;	<rect
   x="13.6"
   y="34.700001"
   width="1.1"
   height="1.4"
   id="rect470" />&#10;</g>&#10;<g
   id="Disegno_15"
   transform="matrix(-1.3317155,0,0,-1.3317137,258.3491,95.560507)">&#10;	<rect
   x="4.8000002"
   y="39.099998"
   class="st3"
   width="11.3"
   height="10.8"
   id="rect471" />&#10;	<path
   class="st4"
   d="m 10.5,39.8 c 2.6,0 4.7,2.1 4.7,4.7 0,2.6 -2.1,4.7 -4.7,4.7 -2.6,0 -4.7,-2.1 -4.7,-4.7 0,-2.6 2.1,-4.6 4.7,-4.7 z m 0,9 c 2.4,0 4.3,-1.9 4.3,-4.3 0,-2.4 -1.9,-4.3 -4.3,-4.3 -2.4,0 -4.3,1.9 -4.3,4.3 0,2.4 1.9,4.3 4.3,4.3 z"
   id="path471" />&#10;	<path
   class="st4"
   d="m 10.5,43.4 c 0.6,0 1.1,0.5 1.1,1.1 0,0.6 -0.5,1.1 -1.1,1.1 -0.6,0 -1.1,-0.5 -1.1,-1.1 0,-0.6 0.5,-1.1 1.1,-1.1 z"
   id="path472" />&#10;</g>&#10;<g
   id="Disegno_4"
   transform="matrix(-1.3317155,0,0,-1.3317137,258.3491,95.560507)">&#10;	<rect
   x="131.60001"
   y="45.099998"
   class="st4"
   width="3.4000001"
   height="3.4000001"
   id="rect472" />&#10;	<rect
   x="131.60001"
   y="51.299999"
   class="st4"
   width="3.4000001"
   height="3.4000001"
   id="rect473" />&#10;	<rect
   x="131.60001"
   y="48.5"
   class="st0"
   width="3.4000001"
   height="2.8"
   id="rect474" />&#10;	<rect
   x="131.60001"
   y="48.5"
   class="st10"
   width="3.4000001"
   height="2.8"
   id="rect475" />&#10;	<rect
   x="131.60001"
   y="48.5"
   width="3.4000001"
   height="2.8"
   id="rect476" />&#10;	<polygon
   class="st5"
   points="133.2,45.7 131.6,47.4 131.6,48.5 134.9,48.5 134.9,47.4 "
   id="polygon476" />&#10;	<polygon
   class="st5"
   points="133.2,54 134.9,52.4 134.9,51.3 131.6,51.3 131.6,52.4 "
   id="polygon477" />&#10;</g>&#10;<g
   id="Disegno_4-2"
   transform="matrix(-1.3317155,0,0,-1.3317137,258.3491,95.560507)">&#10;	<rect
   x="136.7"
   y="45.099998"
   class="st4"
   width="3.4000001"
   height="3.4000001"
   id="rect477" />&#10;	<rect
   x="136.7"
   y="51.299999"
   class="st4"
   width="3.4000001"
   height="3.4000001"
   id="rect478" />&#10;	<rect
   x="136.7"
   y="48.5"
   class="st0"
   width="3.4000001"
   height="2.8"
   id="rect479" />&#10;	<rect
   x="136.7"
   y="48.5"
   class="st10"
   width="3.4000001"
   height="2.8"
   id="rect480" />&#10;	<rect
   x="136.7"
   y="48.5"
   width="3.4000001"
   height="2.8"
   id="rect481" />&#10;	<polygon
   class="st5"
   points="138.4,45.7 136.7,47.4 136.7,48.5 140,48.5 140,47.4 "
   id="polygon481" />&#10;	<polygon
   class="st5"
   points="138.4,54 140,52.4 140,51.3 136.7,51.3 136.7,52.4 "
   id="polygon482" />&#10;</g>&#10;<g
   id="Disegno_4-3"
   transform="matrix(-1.3317155,0,0,-1.3317137,258.3491,95.560507)">&#10;	<rect
   x="97"
   y="25.200001"
   class="st4"
   width="3.4000001"
   height="3.4000001"
   id="rect482" />&#10;	<rect
   x="97"
   y="31.4"
   class="st4"
   width="3.4000001"
   height="3.4000001"
   id="rect483" />&#10;	<rect
   x="97"
   y="28.6"
   class="st0"
   width="3.4000001"
   height="2.8"
   id="rect484" />&#10;	<rect
   x="97"
   y="28.6"
   class="st10"
   width="3.4000001"
   height="2.8"
   id="rect485" />&#10;	<rect
   x="97"
   y="28.6"
   width="3.4000001"
   height="2.8"
   id="rect486" />&#10;	<polygon
   class="st5"
   points="98.7,25.8 97,27.5 97,28.6 100.3,28.6 100.3,27.5 "
   id="polygon486" />&#10;	<polygon
   class="st5"
   points="98.7,34.2 100.3,32.5 100.3,31.4 97,31.4 97,32.5 "
   id="polygon487" />&#10;</g>&#10;<g
   id="Disegno_4-4"
   transform="matrix(-1.3317155,0,0,-1.3317137,258.3491,95.560507)">&#10;	<rect
   x="155.5"
   y="39.299999"
   class="st4"
   width="3.4000001"
   height="3.4000001"
   id="rect487" />&#10;	<rect
   x="161.7"
   y="39.299999"
   class="st4"
   width="3.4000001"
   height="3.4000001"
   id="rect488" />&#10;	<rect
   x="158.89999"
   y="39.299999"
   class="st0"
   width="2.8"
   height="3.4000001"
   id="rect489" />&#10;	<rect
   x="158.89999"
   y="39.299999"
   class="st10"
   width="2.8"
   height="3.4000001"
   id="rect490" />&#10;	<rect
   x="158.89999"
   y="39.299999"
   width="2.8"
   height="3.4000001"
   id="rect491" />&#10;	<polygon
   class="st5"
   points="156.1,41 157.8,42.7 158.9,42.7 158.9,39.3 157.8,39.3 "
   id="polygon491" />&#10;	<polygon
   class="st5"
   points="162.8,42.7 164.5,41 162.8,39.3 162.8,39.4 161.7,39.4 161.7,42.7 "
   id="polygon492" />&#10;</g>&#10;<g
   id="Disegno_4-5"
   transform="matrix(-1.3317155,0,0,-1.3317137,258.3491,95.560507)">&#10;	<rect
   x="160.3"
   y="44.200001"
   class="st4"
   width="3.4000001"
   height="3.4000001"
   id="rect492" />&#10;	<rect
   x="166.5"
   y="44.200001"
   class="st4"
   width="3.4000001"
   height="3.4000001"
   id="rect493" />&#10;	<rect
   x="163.60001"
   y="44.200001"
   class="st0"
   width="2.8"
   height="3.4000001"
   id="rect494" />&#10;	<rect
   x="163.60001"
   y="44.200001"
   class="st10"
   width="2.8"
   height="3.4000001"
   id="rect495" />&#10;	<rect
   x="163.60001"
   y="44.200001"
   width="2.8"
   height="3.4000001"
   id="rect496" />&#10;	<polygon
   class="st5"
   points="160.9,45.9 162.6,47.6 163.6,47.6 163.6,44.2 162.6,44.2 "
   id="polygon496" />&#10;	<polygon
   class="st5"
   points="169.2,45.9 167.5,44.2 166.5,44.2 166.5,47.6 167.5,47.6 "
   id="polygon497" />&#10;</g>&#10;<g
   id="Disegno_4-6"
   transform="matrix(-1.3317155,0,0,-1.3317137,258.3491,95.560507)">&#10;	<rect
   x="13.9"
   y="13.4"
   class="st4"
   width="4.4000001"
   height="4.4000001"
   id="rect497" />&#10;	<rect
   x="13.9"
   y="21.6"
   class="st4"
   width="4.4000001"
   height="4.4000001"
   id="rect498" />&#10;	<rect
   x="13.9"
   y="17.799999"
   class="st0"
   width="4.4000001"
   height="3.7"
   id="rect499" />&#10;	<rect
   x="13.9"
   y="17.799999"
   class="st10"
   width="4.4000001"
   height="3.7"
   id="rect500" />&#10;	<rect
   x="13.9"
   y="17.799999"
   width="4.4000001"
   height="3.7"
   id="rect501" />&#10;	<polygon
   class="st5"
   points="18.4,16.4 16.2,14.2 13.9,16.4 14,16.4 14,17.8 18.4,17.8 "
   id="polygon501" />&#10;	<polygon
   class="st5"
   points="16.2,25.2 18.4,23 18.4,21.6 13.9,21.6 13.9,23 "
   id="polygon502" />&#10;</g>&#10;<g
   id="Disegno_4-7"
   transform="matrix(-1.3317155,0,0,-1.3317137,258.3491,95.560507)">&#10;	<rect
   x="7.6999998"
   y="13.4"
   class="st4"
   width="4.4000001"
   height="4.4000001"
   id="rect502" />&#10;	<rect
   x="7.6999998"
   y="21.6"
   class="st4"
   width="4.4000001"
   height="4.4000001"
   id="rect503" />&#10;	<rect
   x="7.6999998"
   y="17.799999"
   class="st0"
   width="4.4000001"
   height="3.7"
   id="rect504" />&#10;	<rect
   x="7.6999998"
   y="17.799999"
   class="st10"
   width="4.4000001"
   height="3.7"
   id="rect505" />&#10;	<rect
   x="7.6999998"
   y="17.799999"
   width="4.4000001"
   height="3.7"
   id="rect506" />&#10;	<polygon
   class="st5"
   points="9.9,14.2 7.7,16.4 7.7,17.8 12.1,17.8 12.1,16.4 "
   id="polygon506" />&#10;	<polygon
   class="st5"
   points="9.9,25.2 12.1,23 12.1,21.6 7.7,21.6 7.7,23 "
   id="polygon507" />&#10;</g>&#10;<g
   id="Disegno_4-8"
   transform="matrix(-1.3317155,0,0,-1.3317137,258.3491,95.560507)">&#10;	<rect
   x="1.5"
   y="13.4"
   class="st4"
   width="4.4000001"
   height="4.4000001"
   id="rect507" />&#10;	<rect
   x="1.5"
   y="21.6"
   class="st4"
   width="4.4000001"
   height="4.4000001"
   id="rect508" />&#10;	<rect
   x="1.5"
   y="17.799999"
   class="st0"
   width="4.4000001"
   height="3.7"
   id="rect509" />&#10;	<rect
   x="1.5"
   y="17.799999"
   class="st10"
   width="4.4000001"
   height="3.7"
   id="rect510" />&#10;	<rect
   x="1.5"
   y="17.799999"
   width="4.4000001"
   height="3.7"
   id="rect511" />&#10;	<polygon
   class="st5"
   points="3.7,14.2 1.5,16.4 1.5,17.8 5.9,17.8 5.9,16.4 "
   id="polygon511" />&#10;	<polygon
   class="st5"
   points="3.7,25.2 5.9,23 5.9,21.6 1.5,21.6 1.5,23 "
   id="polygon512" />&#10;</g>&#10;</svg>
