<?xml version="1.0" encoding="UTF-8" standalone="no"?>
<!-- Created with Inkscape (http://www.inkscape.org/) -->

<svg
   width="36.599998mm"
   height="17mm"
   viewBox="0 0 36.599998 17"
   version="1.1"
   id="svg1"
   inkscape:version="1.3 (0e150ed6c4, 2023-07-21)"
   sodipodi:docname="breadboard.svg"
   xmlns:inkscape="http://www.inkscape.org/namespaces/inkscape"
   xmlns:sodipodi="http://sodipodi.sourceforge.net/DTD/sodipodi-0.dtd"
   xmlns="http://www.w3.org/2000/svg"
   xmlns:svg="http://www.w3.org/2000/svg">
  <sodipodi:namedview
     id="namedview1"
     pagecolor="#ffffff"
     bordercolor="#000000"
     borderopacity="0.25"
     inkscape:showpageshadow="2"
     inkscape:pageopacity="0.0"
     inkscape:pagecheckerboard="0"
     inkscape:deskcolor="#d1d1d1"
     inkscape:document-units="mm"
     inkscape:zoom="5.8511223"
     inkscape:cx="48.794058"
     inkscape:cy="18.543451"
     inkscape:window-width="1920"
     inkscape:window-height="1017"
     inkscape:window-x="-8"
     inkscape:window-y="-8"
     inkscape:window-maximized="1"
     inkscape:current-layer="svg1" />
  <defs
     id="defs1" />
  <rect
     style="fill:#000080;stroke-width:0.465099;stroke-linejoin:round"
     id="rect1"
     width="36.599998"
     height="17"
     x="4.4408921e-15"
     y="0"
     ry="2.2338996"
     inkscape:label="board" />
  <g
     id="layer5"
     inkscape:label="pads">
    <rect
       style="fill:#cccccc;fill-opacity:1;stroke-width:0.4318;stroke-linejoin:round"
       id="rect2"
       width="6"
       height="3.5"
       x="-4.4408921e-16"
       y="3.25"
       inkscape:label="pad-vout+" />
    <circle
       style="fill:#ffffff;fill-opacity:1;stroke:none;stroke-width:0.132;stroke-linejoin:round;stroke-dasharray:none;stroke-opacity:1"
       id="path5"
       cx="3"
       cy="5"
       r="1"
       inkscape:label="vout+" />
    <rect
       style="fill:#cccccc;fill-opacity:1;stroke-width:0.4318;stroke-linejoin:round"
       id="rect2-4"
       width="6"
       height="3.5"
       x="0"
       y="10.25"
       inkscape:label="pad-vout-" />
    <circle
       style="fill:#ffffff;fill-opacity:1;stroke:none;stroke-width:0.132;stroke-linejoin:round;stroke-dasharray:none;stroke-opacity:1"
       id="path5-9"
       cx="3"
       cy="12"
       r="1"
       inkscape:label="vout-" />
    <rect
       style="fill:#cccccc;fill-opacity:1;stroke-width:0.4318;stroke-linejoin:round"
       id="rect2-4-0"
       width="6"
       height="3.5"
       x="30.599998"
       y="10.25"
       inkscape:label="pad-vin-" />
    <circle
       style="fill:#ffffff;fill-opacity:1;stroke:none;stroke-width:0.132;stroke-linejoin:round;stroke-dasharray:none;stroke-opacity:1"
       id="vin-"
       cx="33.599998"
       cy="12"
       r="1"
       inkscape:label="vin-" />
    <rect
       style="fill:#cccccc;fill-opacity:1;stroke-width:0.4318;stroke-linejoin:round"
       id="rect2-4-0-3"
       width="6"
       height="3.5"
       x="30.599998"
       y="3.25"
       inkscape:label="pad-vin+" />
    <circle
       style="fill:#ffffff;fill-opacity:1;stroke:none;stroke-width:0.132;stroke-linejoin:round;stroke-dasharray:none;stroke-opacity:1"
       id="path5-6"
       cx="33.599998"
       cy="5"
       r="1"
       inkscape:label="vin+" />
  </g>
  <rect
     style="fill:#557fff;fill-opacity:1;stroke-width:0.4318;stroke-linejoin:round"
     id="rect3"
     width="10"
     height="10"
     x="7"
     y="7"
     inkscape:label="potti" />
  <g
     id="layer3"
     inkscape:label="curl"
     style="fill:#000000"
     transform="translate(-11.504081,-26.411308)">
    <path
       id="rect4"
       style="fill:#4d4d4d;fill-opacity:1;stroke-width:0.4318;stroke-linejoin:round"
       d="m 32.271932,26.411308 -1.767851,1.767851 v 8.232055 h 8.232056 l 1.767851,-1.767851 v -8.232055 z" />
    <circle
       style="fill:none;fill-opacity:1;stroke:#000000;stroke-width:0.38914;stroke-linejoin:round;stroke-opacity:1"
       id="path4"
       cx="35.504036"
       cy="31.411261"
       r="4.0554299" />
    <g
       id="text4"
       transform="scale(-1)">
      <path
         style="color:#000000;-inkscape-font-specification:'Droid Sans';display:inline;stroke-linejoin:round;-inkscape-stroke:none"
         d="m -36.711196,-30.401848 h -1.25677 v -0.214974 l 0.482313,-0.525032 q 0.103352,-0.111621 0.184657,-0.203949 0.0813,-0.09233 0.137803,-0.180523 0.05788,-0.08819 0.08819,-0.176389 0.03032,-0.08957 0.03032,-0.194303 0,-0.0813 -0.02343,-0.143316 -0.02343,-0.06201 -0.06752,-0.104731 -0.04272,-0.0441 -0.101975,-0.06615 -0.05926,-0.02205 -0.132291,-0.02205 -0.130914,0 -0.237023,0.05374 -0.10473,0.05237 -0.199815,0.135048 l -0.14056,-0.163987 q 0.05512,-0.04961 0.118511,-0.09233 0.06339,-0.0441 0.136426,-0.07579 0.07304,-0.03169 0.15434,-0.04961 0.0813,-0.01929 0.170877,-0.01929 0.132291,0 0.2384,0.03721 0.107487,0.03721 0.181901,0.107487 0.07441,0.0689 0.114377,0.169499 0.04134,0.09922 0.04134,0.22462 0,0.117133 -0.03721,0.223242 -0.03583,0.106108 -0.100596,0.209461 -0.06339,0.101975 -0.152962,0.205328 -0.08819,0.103353 -0.191548,0.214974 l -0.387228,0.412033 v 0.01102 h 0.949468 z m 1.819009,0 h -1.25677 v -0.214974 l 0.482313,-0.525032 q 0.103352,-0.111621 0.184657,-0.203949 0.0813,-0.09233 0.137803,-0.180523 0.05788,-0.08819 0.08819,-0.176389 0.03032,-0.08957 0.03032,-0.194303 0,-0.0813 -0.02343,-0.143316 -0.02343,-0.06201 -0.06752,-0.104731 -0.04272,-0.0441 -0.101975,-0.06615 -0.05926,-0.02205 -0.132291,-0.02205 -0.130914,0 -0.237023,0.05374 -0.10473,0.05237 -0.199815,0.135048 l -0.14056,-0.163987 q 0.05512,-0.04961 0.118511,-0.09233 0.06339,-0.0441 0.136426,-0.07579 0.07304,-0.03169 0.15434,-0.04961 0.0813,-0.01929 0.170877,-0.01929 0.132291,0 0.2384,0.03721 0.107487,0.03721 0.181901,0.107487 0.07441,0.0689 0.114377,0.169499 0.04134,0.09922 0.04134,0.22462 0,0.117133 -0.03721,0.223242 -0.03583,0.106108 -0.100596,0.209461 -0.06339,0.101975 -0.152962,0.205328 -0.08819,0.103353 -0.191548,0.214974 l -0.387228,0.412033 v 0.01102 h 0.949468 z m 1.852081,-1.010101 q 0,0.243913 -0.03583,0.436838 -0.03445,0.192925 -0.112999,0.326595 -0.07717,0.133669 -0.199815,0.203949 -0.122645,0.07028 -0.297656,0.07028 -0.162608,0 -0.283876,-0.07028 -0.119889,-0.07028 -0.199815,-0.203949 -0.07855,-0.13367 -0.118511,-0.326595 -0.03858,-0.192925 -0.03858,-0.436838 0,-0.243913 0.03445,-0.436838 0.03583,-0.192925 0.111621,-0.325217 0.07717,-0.133669 0.198437,-0.203949 0.122645,-0.07028 0.296278,-0.07028 0.163986,0 0.285254,0.07028 0.121267,0.0689 0.201193,0.202571 0.07993,0.132292 0.119889,0.325217 0.03996,0.192925 0.03996,0.438216 z m -1.032149,0 q 0,0.206706 0.02067,0.361046 0.02067,0.15434 0.06615,0.257693 0.04547,0.101974 0.118511,0.15434 0.07441,0.05099 0.180523,0.05099 0.106109,0 0.180523,-0.05099 0.07441,-0.05099 0.121267,-0.152962 0.04823,-0.101975 0.0689,-0.256315 0.02205,-0.155718 0.02205,-0.363802 0,-0.206706 -0.02205,-0.361046 -0.02067,-0.15434 -0.0689,-0.256315 -0.04685,-0.101974 -0.121267,-0.152962 -0.07441,-0.05099 -0.180523,-0.05099 -0.106109,0 -0.180523,0.05099 -0.07304,0.05099 -0.118511,0.152962 -0.04548,0.101975 -0.06615,0.256315 -0.02067,0.15434 -0.02067,0.361046 z"
         id="path6" />
      <path
         style="color:#000000;-inkscape-font-specification:'Droid Sans';display:none;stroke-linejoin:round;-inkscape-stroke:none"
         d="m -33.685547,-32.513672 c -0.12466,0 -0.236657,0.02459 -0.330078,0.07813 -0.0913,0.05291 -0.166229,0.130777 -0.222656,0.228516 -0.05518,0.09631 -0.09422,0.211535 -0.119141,0.345703 -0.02381,0.133355 -0.03516,0.283503 -0.03516,0.449219 0,0.166088 0.01229,0.315357 0.03906,0.449218 a 0.0660066,0.0660066 0 0 0 0,0.002 c 0.02777,0.134062 0.07004,0.248847 0.126954,0.345703 0.05813,0.09722 0.132501,0.175666 0.222656,0.228515 0.09192,0.05327 0.200445,0.07813 0.318359,0.07813 0.125509,0 0.236565,-0.02454 0.330078,-0.07813 0.09224,-0.05286 0.168098,-0.130629 0.22461,-0.228515 h -0.002 c 0.05726,-0.09744 0.09706,-0.213091 0.121093,-0.347657 0.0248,-0.133526 0.03711,-0.283378 0.03711,-0.449218 0,-0.167112 -0.01325,-0.317116 -0.04102,-0.451172 -0.0278,-0.134241 -0.06884,-0.249521 -0.126953,-0.345703 -0.05801,-0.09703 -0.13377,-0.174661 -0.224609,-0.226563 -0.09201,-0.05333 -0.199607,-0.07813 -0.31836,-0.07813 z m -3.68164,0.002 c -0.06446,0 -0.12605,0.0074 -0.185547,0.02148 -0.05813,0.01281 -0.113287,0.02986 -0.166016,0.05273 -0.05255,0.0228 -0.102507,0.05008 -0.148437,0.08203 -0.04424,0.0299 -0.08628,0.06281 -0.125,0.09766 a 0.0660066,0.0660066 0 0 0 -0.0059,0.0918 l 0.140625,0.164063 a 0.0660066,0.0660066 0 0 0 0.09375,0.0078 c 0.05954,-0.05177 0.121007,-0.09468 0.185547,-0.126953 a 0.0660066,0.0660066 0 0 0 0.002,0 c 0.06098,-0.03088 0.128786,-0.04687 0.207031,-0.04687 0.04205,0 0.07817,0.0079 0.109375,0.01953 0.03088,0.01149 0.05448,0.02643 0.07617,0.04883 a 0.0660066,0.0660066 0 0 0 0.002,0.002 c 0.02213,0.02144 0.04018,0.04686 0.05273,0.08008 0.01225,0.03242 0.01758,0.07323 0.01758,0.121094 0,0.06345 -0.0077,0.119561 -0.02539,0.171875 -0.01821,0.05298 -0.04608,0.107335 -0.08203,0.162109 -0.03556,0.0555 -0.07854,0.114406 -0.130859,0.173828 -0.05376,0.06104 -0.114994,0.127084 -0.183594,0.201172 a 0.0660066,0.0660066 0 0 0 -0.002,0.002 l -0.480469,0.523438 a 0.0660066,0.0660066 0 0 0 -0.01758,0.04492 v 0.214843 a 0.0660066,0.0660066 0 0 0 0.06445,0.06641 h 1.257813 a 0.0660066,0.0660066 0 0 0 0.06641,-0.06641 v -0.228515 a 0.0660066,0.0660066 0 0 0 -0.06641,-0.06641 h -0.806641 l 0.292969,-0.310546 a 0.0660066,0.0660066 0 0 0 0,-0.002 c 0.0691,-0.07462 0.134165,-0.145504 0.193359,-0.214843 v -0.002 c 0.06124,-0.07078 0.114124,-0.141981 0.158203,-0.212891 0.04567,-0.07287 0.08176,-0.146651 0.107422,-0.222656 0.02732,-0.0779 0.04102,-0.159064 0.04102,-0.244141 0,-0.09085 -0.01552,-0.174741 -0.04687,-0.25 -0.02992,-0.07532 -0.07383,-0.140549 -0.13086,-0.193359 -0.05691,-0.05375 -0.125731,-0.09363 -0.205078,-0.121094 -0.07882,-0.02764 -0.165384,-0.04102 -0.259765,-0.04102 z m 1.818359,0 c -0.06446,0 -0.126049,0.0074 -0.185547,0.02148 -0.05746,0.01278 -0.113845,0.0301 -0.166016,0.05273 -0.05255,0.0228 -0.100553,0.05008 -0.146484,0.08203 -0.04473,0.03014 -0.0859,0.06247 -0.125,0.09766 a 0.0660066,0.0660066 0 0 0 -0.0059,0.0918 l 0.140625,0.164063 a 0.0660066,0.0660066 0 0 0 0.0918,0.0078 c 0.05954,-0.05177 0.12296,-0.09468 0.1875,-0.126953 0.06098,-0.03088 0.128786,-0.04687 0.207031,-0.04687 0.04205,0 0.07817,0.0079 0.109375,0.01953 0.03088,0.01149 0.05643,0.02643 0.07813,0.04883 a 0.0660066,0.0660066 0 0 0 0,0.002 c 0.02213,0.02144 0.04018,0.04686 0.05273,0.08008 0.01225,0.03242 0.01953,0.07323 0.01953,0.121094 0,0.06345 -0.0096,0.119561 -0.02734,0.171875 -0.01821,0.05298 -0.04413,0.107335 -0.08008,0.162109 a 0.0660066,0.0660066 0 0 0 -0.002,0 c -0.03556,0.0555 -0.07854,0.114406 -0.130859,0.173828 -0.05376,0.06104 -0.114994,0.127084 -0.183594,0.201172 a 0.0660066,0.0660066 0 0 0 0,0.002 l -0.482422,0.523438 a 0.0660066,0.0660066 0 0 0 -0.01758,0.04492 v 0.214843 a 0.0660066,0.0660066 0 0 0 0.06641,0.06641 h 1.255859 a 0.0660066,0.0660066 0 0 0 0.06641,-0.06641 v -0.228515 a 0.0660066,0.0660066 0 0 0 -0.06641,-0.06641 h -0.806641 l 0.292969,-0.310546 a 0.0660066,0.0660066 0 0 0 0,-0.002 c 0.0691,-0.07462 0.134166,-0.145504 0.193359,-0.214843 v -0.002 c 0.06124,-0.07078 0.114124,-0.141981 0.158204,-0.212891 0.04566,-0.07287 0.08176,-0.146651 0.107421,-0.222656 0.02732,-0.0779 0.04102,-0.159064 0.04102,-0.244141 0,-0.09085 -0.01552,-0.174741 -0.04687,-0.25 h 0.002 c -0.02992,-0.07532 -0.07382,-0.140549 -0.130859,-0.193359 -0.05651,-0.05337 -0.126429,-0.09363 -0.205078,-0.121094 h -0.002 c -0.07837,-0.02723 -0.166072,-0.04102 -0.259766,-0.04102 z m 1.863281,0.128907 c 0.09989,0 0.182275,0.02212 0.251953,0.0625 0.07032,0.03995 0.129432,0.09891 0.177735,0.179687 0.04846,0.08021 0.08585,0.181695 0.111328,0.304688 0.02551,0.123176 0.03906,0.263884 0.03906,0.423828 0,0.159376 -0.01218,0.302074 -0.03516,0.425781 -0.0219,0.122668 -0.05799,0.223898 -0.105469,0.304687 -0.04638,0.08034 -0.104498,0.13884 -0.175781,0.179688 -0.07001,0.04012 -0.155833,0.0625 -0.263672,0.0625 -0.0989,0 -0.182181,-0.02206 -0.251953,-0.0625 -0.0697,-0.04086 -0.127342,-0.09868 -0.175781,-0.179688 -0.04782,-0.08137 -0.08582,-0.18347 -0.111328,-0.30664 -0.02467,-0.123372 -0.03711,-0.2647 -0.03711,-0.423828 0,-0.158774 0.01128,-0.300352 0.0332,-0.423828 v -0.002 c 0.02287,-0.122113 0.05985,-0.223113 0.105469,-0.302734 0.04647,-0.08049 0.103435,-0.138891 0.173828,-0.179687 0.07011,-0.04017 0.156822,-0.0625 0.263672,-0.0625 z m -3.68164,0.0039 c 0.08201,0 0.15414,0.01123 0.216796,0.0332 0.06397,0.02215 0.1159,0.0538 0.158204,0.09375 0.04218,0.03906 0.07429,0.08572 0.09766,0.144531 a 0.0660066,0.0660066 0 0 0 0.002,0.002 c 0.02376,0.05703 0.03516,0.122872 0.03516,0.199219 0,0.0711 -0.01091,0.137589 -0.0332,0.201172 -0.02211,0.06547 -0.05306,0.130382 -0.09375,0.195312 -0.04018,0.06464 -0.08876,0.130659 -0.146484,0.197266 a 0.0660066,0.0660066 0 0 0 -0.002,0.002 c -0.05785,0.06779 -0.121492,0.137515 -0.189454,0.210938 l -0.386718,0.412109 a 0.0660066,0.0660066 0 0 0 -0.01758,0.04492 v 0.01172 a 0.0660066,0.0660066 0 0 0 0.06641,0.06641 h 0.882812 v 0.0957 h -1.125 v -0.123047 l 0.464844,-0.505859 c 0.0692,-0.07474 0.130895,-0.143017 0.185547,-0.205078 0.05608,-0.06368 0.10475,-0.125407 0.144531,-0.1875 0.04122,-0.06281 0.0735,-0.12679 0.0957,-0.191407 0.02272,-0.06711 0.0332,-0.138652 0.0332,-0.214843 0,-0.06054 -0.0084,-0.117705 -0.02734,-0.167969 -0.01836,-0.04859 -0.04632,-0.09177 -0.08203,-0.126953 -0.03527,-0.03641 -0.07883,-0.06412 -0.126953,-0.08203 -0.04781,-0.01779 -0.09897,-0.02539 -0.154297,-0.02539 -0.09631,0 -0.187078,0.01978 -0.267578,0.06055 -0.05534,0.02767 -0.105152,0.06832 -0.15625,0.107422 l -0.05859,-0.06836 c 0.02005,-0.01583 0.03888,-0.03227 0.06055,-0.04687 0.03859,-0.02685 0.08017,-0.05086 0.125,-0.07031 0.04466,-0.01938 0.09231,-0.03384 0.142579,-0.04492 0.0489,-0.0116 0.101269,-0.01758 0.15625,-0.01758 z m 1.818359,0 c 0.08201,0 0.15414,0.01123 0.216797,0.0332 0.06397,0.02215 0.115899,0.0538 0.158203,0.09375 a 0.0660066,0.0660066 0 0 0 0.002,0 c 0.04218,0.03906 0.07429,0.08572 0.09766,0.144531 a 0.0660066,0.0660066 0 0 0 0,0.002 c 0.02376,0.05703 0.03516,0.122872 0.03516,0.199219 -10e-7,0.0711 -0.01091,0.137589 -0.0332,0.201172 -0.02211,0.06547 -0.05306,0.130382 -0.09375,0.195312 -0.04018,0.06464 -0.08876,0.130659 -0.146484,0.197266 a 0.0660066,0.0660066 0 0 0 0,0.002 c -0.05785,0.06779 -0.121491,0.137515 -0.189453,0.210938 l -0.388672,0.412109 a 0.0660066,0.0660066 0 0 0 -0.01758,0.04492 v 0.01172 a 0.0660066,0.0660066 0 0 0 0.06641,0.06641 h 0.882813 v 0.0957 h -1.123047 v -0.123047 l 0.464844,-0.505859 h -0.002 c 0.0692,-0.07474 0.132849,-0.143017 0.1875,-0.205078 0.05608,-0.06368 0.102797,-0.125407 0.142579,-0.1875 0.04122,-0.06281 0.0735,-0.12679 0.0957,-0.191407 0.02272,-0.06711 0.0332,-0.138652 0.0332,-0.214843 0,-0.06054 -0.0084,-0.117705 -0.02734,-0.167969 -0.01836,-0.04859 -0.04632,-0.09177 -0.08203,-0.126953 -0.03527,-0.03641 -0.07883,-0.06412 -0.126953,-0.08203 -0.04781,-0.01779 -0.09897,-0.02539 -0.154297,-0.02539 -0.09631,0 -0.187079,0.01978 -0.267578,0.06055 -0.05534,0.02767 -0.105153,0.06832 -0.15625,0.107422 l -0.05859,-0.06836 c 0.02005,-0.01583 0.03888,-0.03227 0.06055,-0.04687 0.03859,-0.02685 0.08017,-0.05086 0.125,-0.07031 0.04466,-0.01938 0.09231,-0.03384 0.142578,-0.04492 a 0.0660066,0.0660066 0 0 0 0.002,0 c 0.0489,-0.0116 0.09932,-0.01758 0.154297,-0.01758 z m 1.863281,0.08008 c -0.08131,0 -0.157074,0.02024 -0.21875,0.0625 -0.06036,0.04213 -0.106624,0.103438 -0.140625,0.179687 -0.03385,0.0759 -0.05789,0.168081 -0.07227,0.275391 -0.01429,0.106735 -0.02148,0.229137 -0.02148,0.369141 0,0.140003 0.0072,0.262405 0.02148,0.36914 0.01437,0.107285 0.03855,0.198777 0.07227,0.275391 a 0.0660066,0.0660066 0 0 0 0,0.002 c 0.03395,0.07615 0.07876,0.136735 0.138672,0.179688 a 0.0660066,0.0660066 0 0 0 0.002,0.002 c 0.06167,0.04226 0.137437,0.0625 0.21875,0.0625 0.08131,0 0.155121,-0.02024 0.216797,-0.0625 0.0612,-0.04194 0.109502,-0.103455 0.144531,-0.179688 0.0361,-0.07632 0.0598,-0.167699 0.07422,-0.27539 0.01527,-0.107853 0.02148,-0.231994 0.02148,-0.373047 0,-0.139416 -0.0064,-0.262555 -0.02148,-0.369141 v -0.002 c -0.01445,-0.10677 -0.03836,-0.197619 -0.07422,-0.273438 -0.03502,-0.07624 -0.08332,-0.13775 -0.144531,-0.179687 -0.06167,-0.04226 -0.135483,-0.0625 -0.216797,-0.0625 z m 0,0.130859 c 0.06017,0 0.105039,0.01529 0.142578,0.04102 0.03802,0.02605 0.07021,0.06527 0.09766,0.125 a 0.0660066,0.0660066 0 0 0 0.002,0 c 0.02821,0.05964 0.04936,0.140186 0.0625,0.238281 0.01412,0.09881 0.02148,0.216106 0.02148,0.351563 0,0.136391 -0.0074,0.255697 -0.02148,0.355468 -0.01314,0.0981 -0.03429,0.176685 -0.0625,0.236329 a 0.0660066,0.0660066 0 0 0 -0.002,0 c -0.02745,0.05973 -0.05964,0.100904 -0.09766,0.126953 -0.03754,0.02573 -0.08241,0.03906 -0.142578,0.03906 -0.05941,0 -0.105313,-0.01396 -0.142578,-0.03906 -0.03748,-0.02687 -0.07099,-0.06714 -0.09766,-0.126953 -0.02693,-0.06119 -0.04735,-0.141733 -0.06055,-0.240235 -0.01327,-0.09905 -0.01953,-0.215958 -0.01953,-0.351562 0,-0.135604 0.0063,-0.252512 0.01953,-0.351563 0.01319,-0.09848 0.03376,-0.178213 0.06055,-0.238281 0.02637,-0.05913 0.05913,-0.09912 0.0957,-0.125 0.03754,-0.02573 0.08436,-0.04102 0.144531,-0.04102 z"
         id="path7" />
    </g>
  </g>
  <g
     id="layer4"
     inkscape:label="resistor">
    <rect
       style="fill:#cccccc;fill-opacity:1;stroke:none;stroke-width:0.114315;stroke-linejoin:round;stroke-dasharray:none;stroke-opacity:1"
       id="rect5-4"
       width="2"
       height="3"
       x="9"
       y="0.56599998"
       inkscape:label="pad2" />
    <rect
       style="fill:#cccccc;fill-opacity:1;stroke:none;stroke-width:0.114315;stroke-linejoin:round;stroke-dasharray:none;stroke-opacity:1"
       id="rect5-4-1"
       width="2"
       height="3"
       x="13.132"
       y="0.56599998"
       inkscape:label="pad1" />
    <rect
       style="fill:#000000;fill-opacity:1;stroke:#000000;stroke-width:0.132;stroke-linejoin:round;stroke-dasharray:none;stroke-opacity:1"
       id="rect5"
       width="4"
       height="2"
       x="10.066"
       y="1.066"
       inkscape:label="resistor" />
  </g>
</svg>
