<?xml version="1.0" encoding="UTF-8" standalone="no"?>
<!-- Created with Inkscape (http://www.inkscape.org/) -->

<svg
   width="36.599998mm"
   height="17mm"
   viewBox="0 0 36.599998 17"
   version="1.1"
   id="svg1"
   inkscape:version="1.3 (0e150ed6c4, 2023-07-21)"
   sodipodi:docname="pcb.svg"
   xmlns:inkscape="http://www.inkscape.org/namespaces/inkscape"
   xmlns:sodipodi="http://sodipodi.sourceforge.net/DTD/sodipodi-0.dtd"
   xmlns="http://www.w3.org/2000/svg"
   xmlns:svg="http://www.w3.org/2000/svg">
  <sodipodi:namedview
     id="namedview1"
     pagecolor="#ffffff"
     bordercolor="#000000"
     borderopacity="0.25"
     inkscape:showpageshadow="2"
     inkscape:pageopacity="0.0"
     inkscape:pagecheckerboard="0"
     inkscape:deskcolor="#d1d1d1"
     inkscape:document-units="mm"
     inkscape:zoom="5.8511223"
     inkscape:cx="54.434001"
     inkscape:cy="48.110428"
     inkscape:window-width="1920"
     inkscape:window-height="1017"
     inkscape:window-x="-8"
     inkscape:window-y="-8"
     inkscape:window-maximized="1"
     inkscape:current-layer="svg1" />
  <defs
     id="defs1" />
  <g
     id="silkscreen"
     inkscape:label="silkscreen">
    <rect
       style="fill:none;stroke:#000000;stroke-width:0.455953;stroke-linejoin:round;stroke-opacity:1"
       id="rect1"
       width="36.144047"
       height="16.544046"
       x="0.22797629"
       y="0.22797629"
       ry="2.1739848"
       inkscape:label="outline" />
  </g>
  <g
     id="copper1"
     inkscape:label="copper1">
    <g
       id="copper0"
       inkscape:label="copper0">
      <path
         id="rect2"
         style="fill:#f7bd13;fill-opacity:1;stroke:none;stroke-width:0.4318;stroke-linejoin:round;stroke-opacity:1"
         inkscape:label="pad-vout+"
         d="M 0,3.25 V 6.7500448 H 6.0001506 V 3.25 Z M 2.9998169,4.5000529 A 0.5,0.5 0 0 1 3.5000448,5.0002808 0.5,0.5 0 0 1 2.9998169,5.4999919 0.5,0.5 0 0 1 2.5001058,5.0002808 0.5,0.5 0 0 1 2.9998169,4.5000529 Z" />
      <path
         id="rect2-4"
         style="fill:#f7bd13;fill-opacity:1;stroke:none;stroke-width:0.4318;stroke-linejoin:round;stroke-opacity:1"
         inkscape:label="pad-vout-"
         d="m 0,10.25 v 3.500045 H 6.0001506 V 10.25 Z m 2.9998169,1.250053 a 0.5,0.5 0 0 1 0.5002279,0.499711 0.5,0.5 0 0 1 -0.5002279,0.500228 0.5,0.5 0 0 1 -0.4997111,-0.500228 0.5,0.5 0 0 1 0.4997111,-0.499711 z" />
      <path
         id="rect2-4-0"
         style="fill:#f7bd13;fill-opacity:1;stroke:none;stroke-width:0.4318;stroke-linejoin:round;stroke-opacity:1"
         inkscape:label="pad-vin-"
         d="m 30.600199,10.25 v 3.500045 h 5.999634 V 10.25 Z m 2.999817,1.250053 a 0.5,0.5 0 0 1 0.500228,0.499711 0.5,0.5 0 0 1 -0.500228,0.500228 0.5,0.5 0 0 1 -0.500228,-0.500228 0.5,0.5 0 0 1 0.500228,-0.499711 z" />
      <path
         id="rect2-4-0-3"
         style="fill:#f7bd13;fill-opacity:1;stroke:none;stroke-width:0.4318;stroke-linejoin:round;stroke-opacity:1"
         inkscape:label="pad-vin+"
         d="m 30.600199,3.25 v 3.5000448 h 5.999634 V 3.25 Z m 2.999817,1.2500529 a 0.5,0.5 0 0 1 0.500228,0.5002279 0.5,0.5 0 0 1 -0.500228,0.4997111 0.5,0.5 0 0 1 -0.500228,-0.4997111 0.5,0.5 0 0 1 0.500228,-0.5002279 z" />
    </g>
  </g>
</svg>
